<?xml version="1.0" encoding="utf-8"?>
<!-- Generator: Adobe Illustrator 16.0.4, SVG Export Plug-In . SVG Version: 6.00 Build 0)  -->
<!DOCTYPE svg PUBLIC "-//W3C//DTD SVG 1.1//EN" "http://www.w3.org/Graphics/SVG/1.1/DTD/svg11.dtd">
<svg version="1.1" id="Layer_1" xmlns="http://www.w3.org/2000/svg" xmlns:xlink="http://www.w3.org/1999/xlink" x="0px" y="0px"
	 width="74px" height="65.7px" viewBox="0 0 74 65.7" style="enable-background:new 0 0 74 65.7;" xml:space="preserve">
<style type="text/css">
<![CDATA[
	.st0{fill:#175A9D;}
]]>
</style>
<g>
	<path class="st0" d="M39.6,15.5c-0.6,0-1.1,0.1-1.7,0.2c-0.3,0.1-0.5,0.4-0.4,0.8c0.1,0.3,0.4,0.5,0.8,0.4c0.4-0.1,0.9-0.2,1.4-0.2
		c2.1,0,3.9,1.2,4.7,3.1c0.1,0.2,0.3,0.4,0.6,0.4c0.1,0,0.2,0,0.2-0.1c0.3-0.1,0.5-0.5,0.3-0.8C44.4,17,42.1,15.5,39.6,15.5"/>
	<path class="st0" d="M57.1,25.7c0.1-0.5,0.2-0.9,0.2-1.4c0-3.6-2.9-6.6-6.6-6.6c-1,0-2,0.2-2.9,0.7c-1.5-3.1-4.7-5.2-8.3-5.2
		c-3.6,0-6.8,2.1-8.3,5.2c-0.9-0.4-1.9-0.7-2.9-0.7c-3.6,0-6.6,2.9-6.6,6.6c0,0.5,0.1,0.9,0.2,1.4c-2.4,1.7-4,4.5-4,7.6
		c0,5.1,4.1,9.2,9.2,9.2c0.8,0,1.5-0.1,2.2-0.3c0.3-0.1,0.5-0.4,0.5-0.8c-0.1-0.3-0.4-0.5-0.8-0.5c-0.6,0.2-1.3,0.2-1.9,0.2
		c-4.4,0-8-3.6-8-8c0-3.8,2.5-7,6.2-7.8c0.3-0.1,0.5-0.4,0.5-0.7c-0.1-0.3-0.4-0.5-0.7-0.5c-0.7,0.2-1.4,0.4-2,0.7
		c0-0.2-0.1-0.5-0.1-0.7c0-2.9,2.4-5.3,5.3-5.3c0.8,0,1.7,0.2,2.4,0.6c-0.2,0.5-0.3,1-0.4,1.5c-0.1,0.3,0.2,0.7,0.5,0.7
		c0.3,0.1,0.7-0.2,0.7-0.5c0.6-3.9,3.9-6.7,7.9-6.7c4,0,7.4,3,7.9,6.9c0,0.3,0.3,0.5,0.6,0.5c0,0,0.1,0,0.1,0c0.3,0,0.6-0.4,0.5-0.7
		c-0.1-0.6-0.2-1.2-0.4-1.7c0.7-0.4,1.6-0.6,2.4-0.6c2.9,0,5.3,2.4,5.3,5.3c0,0.2,0,0.5-0.1,0.7c-0.5-0.2-1-0.4-1.5-0.6
		c-0.3-0.1-0.7,0.1-0.8,0.4c-0.1,0.3,0.1,0.7,0.4,0.8c3.4,1,5.7,4.2,5.7,7.7c0,4.4-3.6,8-8,8c-0.7,0-1.3-0.1-1.9-0.2
		c-0.3-0.1-0.7,0.1-0.8,0.5s0.1,0.7,0.5,0.8c0.7,0.2,1.5,0.3,2.2,0.3c5.1,0,9.2-4.1,9.2-9.2C61.1,30.2,59.6,27.4,57.1,25.7"/>
	<path class="st0" d="M56.3,37.6c0.1,0.1,0.2,0.1,0.4,0.1c0.2,0,0.4-0.1,0.5-0.2c0.9-1.2,1.4-2.6,1.4-4.1c0-3-2-5.6-4.8-6.5
		c-0.3-0.1-0.7,0.1-0.8,0.4c-0.1,0.3,0.1,0.7,0.4,0.8c2.3,0.7,3.9,2.9,3.9,5.3c0,1.2-0.4,2.4-1.1,3.3C56,37,56,37.3,56.3,37.6"/>
	<path class="st0" d="M28.7,34.5c2-0.5,4.2-0.3,6.1,0.7c0.2,0.1,0.4,0.1,0.5,0c0.2-0.1,0.3-0.2,0.4-0.4c0.6-2,2-3.7,3.8-4.8
		c1.8,1.1,3.2,2.8,3.8,4.8c0.1,0.2,0.2,0.3,0.4,0.4c0.2,0.1,0.4,0.1,0.5,0c1.9-1,4.1-1.2,6.1-0.7c0.8,2.9,0,6-2.2,8.1
		c-2.2,2.2-5.5,3-8.5,2.1c-0.1,0-0.2,0-0.4,0c-3,0.9-6.2,0.1-8.5-2.1C28.8,40.5,28,37.4,28.7,34.5 M39.6,49.4l-1.8-3.2
		c0.6-0.1,1.2-0.1,1.8-0.3c0.6,0.2,1.2,0.3,1.8,0.3L39.6,49.4z M49.1,43.5c2.5-2.5,3.5-6.3,2.4-9.7c-0.1-0.2-0.2-0.4-0.4-0.4
		c-2.2-0.7-4.6-0.5-6.7,0.4c-0.8-2.1-2.5-3.9-4.5-5c-0.2-0.1-0.4-0.1-0.6,0c-2,1.1-3.6,2.9-4.5,5c-2.1-0.9-4.5-1.1-6.7-0.4
		c-0.2,0.1-0.4,0.2-0.4,0.4c-1.1,3.4-0.1,7.2,2.4,9.7c1.7,1.7,4,2.7,6.4,2.8l2.5,4.6v4.9c0,0.3,0.3,0.6,0.6,0.6
		c0.3,0,0.6-0.3,0.6-0.6v-4.9l2.5-4.6C45.1,46.2,47.4,45.2,49.1,43.5"/>
	<path class="st0" d="M42.8,44.3C42.8,44.3,42.8,44.3,42.8,44.3c1.6-0.2,3.1-0.8,4.3-1.9c1.3-1.1,2.1-2.5,2.5-4.1
		c0.1-0.3-0.1-0.7-0.5-0.8c-0.3-0.1-0.7,0.1-0.7,0.5c-0.3,1.4-1,2.6-2.1,3.5c-1,0.9-2.2,1.4-3.6,1.6c-0.3,0-0.6,0.3-0.6,0.7
		C42.2,44,42.5,44.3,42.8,44.3"/>
</g>
</svg>
