<?xml version="1.0" encoding="utf-8"?>
<!-- Generator: Adobe Illustrator 16.0.4, SVG Export Plug-In . SVG Version: 6.00 Build 0)  -->
<!DOCTYPE svg PUBLIC "-//W3C//DTD SVG 1.1//EN" "http://www.w3.org/Graphics/SVG/1.1/DTD/svg11.dtd">
<svg version="1.1" id="Layer_1" xmlns="http://www.w3.org/2000/svg" xmlns:xlink="http://www.w3.org/1999/xlink" x="0px" y="0px"
	 width="74px" height="65.7px" viewBox="0 0 74 65.7" style="enable-background:new 0 0 74 65.7;" xml:space="preserve">
<style type="text/css">
<![CDATA[
	.st0{clip-path:url(#SVGID_2_);fill:#175A9D;}
]]>
</style>
<g>
	<defs>
		<rect id="SVGID_1_" x="24.6" y="1.9" width="26.7" height="62.6"/>
	</defs>
	<clipPath id="SVGID_2_">
		<use xlink:href="#SVGID_1_"  style="overflow:visible;"/>
	</clipPath>
	<path class="st0" d="M34.7,59.8h-8.6V63h8.6V59.8z M26.4,10.3c-0.1,1.4-0.2,2.7-0.3,4.1c1.4-0.9,2.3-2.5,2.5-4.1H26.4z M32.6,3.3
		H27v2.2h5.6V3.3z M41.9,3.3h-7.8v2.2h7.8V3.3z M48.9,3.3h-5.6v2.2h5.6V3.3z M28.6,6.9h-1.7c-0.1,0.6-0.2,1.2-0.3,2h2V6.9z
		 M39.9,6.9h-1.2v8.4c0.7-0.4,1.2-1.1,1.2-1.9V6.9z M45.9,6.9h-4.6v6.5c0,1.8-1.4,3.4-3.3,3.5c-0.4,0-0.8-0.3-0.8-0.8V6.9H30v2.8
		c0,2.7-1.6,5.2-4,6.4c0,0.2,0,0.4,0,0.6c0,8.4,0.1,15.9,0.2,23.4c0.1,6,0.1,12,0.2,18.3h8c0.1-4.9,0.3-9.8,0.5-14.7
		c0.1-2.9,0.2-5.9,0.3-8.8c0.1-2.7,0.3-5.5,0.7-8.1c0.4-2.9,0.9-5.6,1.4-8.1c0.2-0.9,1.2-0.9,1.5,0c0.6,2.5,1.1,5.2,1.4,8.1
		c0.3,2.6,0.6,5.4,0.7,8.1c0.1,2.9,0.2,5.9,0.3,8.8c0.2,4.9,0.4,9.7,0.5,14.7h8c0-6.3,0.1-12.3,0.2-18.3c0.1-7.5,0.2-15,0.2-23.4
		c0-0.2,0-0.4,0-0.6c-2.4-1.2-4-3.7-4-6.4V6.9z M49.1,6.9h-1.7v2.8c0,1.9,0.9,3.7,2.5,4.7C49.8,11.9,49.6,9.3,49.1,6.9 M26.3,1.9
		h23.4c0.4,0,0.7,0.3,0.7,0.7v3.5c0.8,3.4,0.9,7.1,0.9,10.6c0,7.9-0.1,15.7-0.2,23.4C51.1,46.2,51,52.2,51,58.5
		c0.2,0.1,0.3,0.3,0.3,0.6v4.6c0,0.4-0.3,0.7-0.7,0.7h-10c-0.4,0-0.7-0.3-0.7-0.7v-4.6c0-0.3,0.1-0.5,0.3-0.6
		c-0.1-4.9-0.3-9.8-0.5-14.7c-0.1-2.9-0.2-5.8-0.3-8.8c-0.1-2.7-0.3-5.4-0.7-8c-0.2-1.6-0.5-3.2-0.8-4.7c-0.3,1.5-0.5,3.1-0.8,4.7
		c-0.3,2.6-0.6,5.3-0.7,8c-0.1,3-0.2,5.9-0.3,8.8c-0.2,4.9-0.4,9.8-0.5,14.7c0.2,0.1,0.3,0.4,0.3,0.6v4.6c0,0.4-0.3,0.7-0.7,0.7h-10
		c-0.4,0-0.7-0.3-0.7-0.7v-4.6c0-0.2,0.1-0.4,0.3-0.6c0-6.3-0.1-12.4-0.2-18.4c-0.1-7.8-0.2-15.5-0.2-23.4c0-3.5,0.2-7.2,1-10.6V2.6
		C25.6,2.2,25.9,1.9,26.3,1.9 M49.9,59.8h-8.6V63h8.6V59.8z"/>
</g>
</svg>
