<?xml version="1.0" encoding="utf-8"?>
<!-- Generator: Adobe Illustrator 16.0.4, SVG Export Plug-In . SVG Version: 6.00 Build 0)  -->
<!DOCTYPE svg PUBLIC "-//W3C//DTD SVG 1.1//EN" "http://www.w3.org/Graphics/SVG/1.1/DTD/svg11.dtd">
<svg version="1.1" id="Layer_1" xmlns="http://www.w3.org/2000/svg" xmlns:xlink="http://www.w3.org/1999/xlink" x="0px" y="0px"
	 width="74px" height="65.7px" viewBox="0 0 74 65.7" style="enable-background:new 0 0 74 65.7;" xml:space="preserve">
<style type="text/css">
<![CDATA[
	.st0{fill:#175A9D;}
]]>
</style>
<path class="st0" d="M54.3,14h-2.6c-0.1,0-0.1,0-0.2,0s-0.1,0-0.2,0H24.2c-0.1,0-0.1,0-0.2,0c-0.1,0-0.1,0-0.2,0h-2.6
	c-0.5,0-0.9,0.4-0.9,0.9v29.3c0,0.4,0.2,0.7,0.6,0.9L37.4,52c0.1,0,0.2,0.1,0.4,0.1c0.1,0,0.2,0,0.4-0.1l16.5-6.9
	c0.3-0.1,0.6-0.5,0.6-0.9V15C55.2,14.5,54.8,14,54.3,14z M53.4,43.6l-15.6,6.5l-15.6-6.5V15.9h31.2V43.6z"/>
<path class="st0" d="M51.5,35.9c-0.3,0-0.5,0.2-0.5,0.5v0.9c0,0.3,0.2,0.5,0.5,0.5c0.3,0,0.5-0.2,0.5-0.5v-0.9
	C52,36.1,51.8,35.9,51.5,35.9z"/>
<path class="st0" d="M51.5,27.5c-0.3,0-0.5,0.2-0.5,0.5v0.9c0,0.3,0.2,0.5,0.5,0.5c0.3,0,0.5-0.2,0.5-0.5V28
	C52,27.7,51.8,27.5,51.5,27.5z"/>
<path class="st0" d="M51.5,33.1c-0.3,0-0.5,0.2-0.5,0.5v0.9c0,0.3,0.2,0.5,0.5,0.5c0.3,0,0.5-0.2,0.5-0.5v-0.9
	C52,33.3,51.8,33.1,51.5,33.1z"/>
<path class="st0" d="M51.5,21c0.3,0,0.5-0.2,0.5-0.5v-0.9c0-0.3-0.2-0.5-0.5-0.5c-0.3,0-0.5,0.2-0.5,0.5v0.9
	C51.1,20.8,51.3,21,51.5,21z"/>
<path class="st0" d="M51.5,18.2c0.3,0,0.5-0.2,0.5-0.5v-0.9c0-0.3-0.2-0.5-0.5-0.5c-0.3,0-0.5,0.2-0.5,0.5v0.9
	C51.1,18,51.3,18.2,51.5,18.2z"/>
<path class="st0" d="M51.5,38.7c-0.3,0-0.5,0.2-0.5,0.5v0.9c0,0.3,0.2,0.5,0.5,0.5c0.3,0,0.5-0.2,0.5-0.5v-0.9
	C52,38.9,51.8,38.7,51.5,38.7z"/>
<path class="st0" d="M51.5,30.3c-0.3,0-0.5,0.2-0.5,0.5v0.9c0,0.3,0.2,0.5,0.5,0.5c0.3,0,0.5-0.2,0.5-0.5v-0.9
	C52,30.5,51.8,30.3,51.5,30.3z"/>
<path class="st0" d="M51.5,24.7c-0.3,0-0.5,0.2-0.5,0.5v0.9c0,0.3,0.2,0.5,0.5,0.5c0.3,0,0.5-0.2,0.5-0.5v-0.9
	C52,24.9,51.8,24.7,51.5,24.7z"/>
<path class="st0" d="M51.1,43c0.1,0,0.1,0,0.2,0l0.4-0.2c0.2-0.1,0.3-0.2,0.3-0.4v-0.5c0-0.3-0.2-0.5-0.5-0.5
	c-0.3,0-0.5,0.2-0.5,0.5v0.2l-0.1,0.1c-0.2,0.1-0.3,0.4-0.2,0.6C50.7,42.9,50.9,43,51.1,43z"/>
<path class="st0" d="M48.3,44.2c0.1,0,0.1,0,0.2,0l0.9-0.4c0.2-0.1,0.3-0.4,0.2-0.6c-0.1-0.2-0.4-0.3-0.6-0.2l-0.9,0.4
	c-0.2,0.1-0.3,0.4-0.2,0.6C48,44.1,48.2,44.2,48.3,44.2z"/>
<path class="st0" d="M42.8,46.5c0.1,0,0.1,0,0.2,0l0.9-0.4c0.2-0.1,0.3-0.4,0.2-0.6c-0.1-0.2-0.4-0.3-0.6-0.2l-0.9,0.4
	c-0.2,0.1-0.3,0.4-0.2,0.6C42.5,46.4,42.6,46.5,42.8,46.5z"/>
<path class="st0" d="M45.6,45.4c0.1,0,0.1,0,0.2,0l0.9-0.4c0.2-0.1,0.3-0.4,0.2-0.6c-0.1-0.2-0.4-0.3-0.6-0.2l-0.9,0.4
	c-0.2,0.1-0.3,0.4-0.2,0.6C45.2,45.3,45.4,45.4,45.6,45.4z"/>
<path class="st0" d="M40,47.7c0.1,0,0.1,0,0.2,0l0.9-0.4c0.2-0.1,0.3-0.4,0.2-0.6c-0.1-0.2-0.4-0.3-0.6-0.2l-0.9,0.4
	c-0.2,0.1-0.3,0.4-0.2,0.6C39.7,47.6,39.9,47.7,40,47.7z"/>
<path class="st0" d="M37.2,48.4l0.4,0.2c0.1,0,0.1,0,0.2,0c0.1,0,0.1,0,0.2,0l0.4-0.2c0.2-0.1,0.3-0.4,0.2-0.6
	c-0.1-0.2-0.4-0.3-0.6-0.2l-0.2,0.1l-0.2-0.1c-0.2-0.1-0.5,0-0.6,0.2C36.8,48.1,36.9,48.3,37.2,48.4z"/>
<path class="st0" d="M32.9,45.6L32,45.3c-0.2-0.1-0.5,0-0.6,0.2c-0.1,0.2,0,0.5,0.2,0.6l0.9,0.4c0.1,0,0.1,0,0.2,0
	c0.2,0,0.4-0.1,0.4-0.3C33.3,46,33.2,45.7,32.9,45.6z"/>
<path class="st0" d="M27.4,43.3l-0.9-0.4c-0.2-0.1-0.5,0-0.6,0.2c-0.1,0.2,0,0.5,0.2,0.6l0.9,0.4c0.1,0,0.1,0,0.2,0
	c0.2,0,0.4-0.1,0.4-0.3C27.8,43.7,27.6,43.4,27.4,43.3z"/>
<path class="st0" d="M30.2,44.5l-0.9-0.4c-0.2-0.1-0.5,0-0.6,0.2c-0.1,0.2,0,0.5,0.2,0.6l0.9,0.4c0.1,0,0.1,0,0.2,0
	c0.2,0,0.4-0.1,0.4-0.3C30.5,44.8,30.4,44.6,30.2,44.5z"/>
<path class="st0" d="M35.7,46.8l-0.9-0.4c-0.2-0.1-0.5,0-0.6,0.2c-0.1,0.2,0,0.5,0.2,0.6l0.9,0.4c0.1,0,0.1,0,0.2,0
	c0.2,0,0.4-0.1,0.4-0.3C36,47.2,35.9,46.9,35.7,46.8z"/>
<path class="st0" d="M24.7,42.2l-0.1-0.1v-0.2c0-0.3-0.2-0.5-0.5-0.5c-0.3,0-0.5,0.2-0.5,0.5v0.5c0,0.2,0.1,0.4,0.3,0.4l0.4,0.2
	c0.1,0,0.1,0,0.2,0c0.2,0,0.4-0.1,0.4-0.3C25,42.5,24.9,42.3,24.7,42.2z"/>
<path class="st0" d="M23.6,40.1c0,0.3,0.2,0.5,0.5,0.5c0.3,0,0.5-0.2,0.5-0.5v-0.9c0-0.3-0.2-0.5-0.5-0.5c-0.3,0-0.5,0.2-0.5,0.5
	V40.1z"/>
<path class="st0" d="M24,18.2c0.3,0,0.5-0.2,0.5-0.5v-0.9c0-0.3-0.2-0.5-0.5-0.5c-0.3,0-0.5,0.2-0.5,0.5v0.9
	C23.6,18,23.8,18.2,24,18.2z"/>
<path class="st0" d="M24,21c0.3,0,0.5-0.2,0.5-0.5v-0.9c0-0.3-0.2-0.5-0.5-0.5c-0.3,0-0.5,0.2-0.5,0.5v0.9C23.6,20.8,23.8,21,24,21z
	"/>
<path class="st0" d="M23.6,28.9c0,0.3,0.2,0.5,0.5,0.5c0.3,0,0.5-0.2,0.5-0.5V28c0-0.3-0.2-0.5-0.5-0.5c-0.3,0-0.5,0.2-0.5,0.5V28.9
	z"/>
<path class="st0" d="M23.6,31.7c0,0.3,0.2,0.5,0.5,0.5c0.3,0,0.5-0.2,0.5-0.5v-0.9c0-0.3-0.2-0.5-0.5-0.5c-0.3,0-0.5,0.2-0.5,0.5
	V31.7z"/>
<path class="st0" d="M23.6,34.5c0,0.3,0.2,0.5,0.5,0.5c0.3,0,0.5-0.2,0.5-0.5v-0.9c0-0.3-0.2-0.5-0.5-0.5c-0.3,0-0.5,0.2-0.5,0.5
	V34.5z"/>
<path class="st0" d="M24,26.6c0.3,0,0.5-0.2,0.5-0.5v-0.9c0-0.3-0.2-0.5-0.5-0.5c-0.3,0-0.5,0.2-0.5,0.5v0.9
	C23.6,26.4,23.8,26.6,24,26.6z"/>
<path class="st0" d="M23.6,37.3c0,0.3,0.2,0.5,0.5,0.5c0.3,0,0.5-0.2,0.5-0.5v-0.9c0-0.3-0.2-0.5-0.5-0.5c-0.3,0-0.5,0.2-0.5,0.5
	V37.3z"/>
<path class="st0" d="M42.8,27c0.1,0,0.1,0,0.2,0l0.9-0.4c0.2-0.1,0.3-0.4,0.2-0.6c-0.1-0.2-0.4-0.3-0.6-0.2l-0.9,0.4
	c-0.2,0.1-0.3,0.4-0.2,0.6C42.5,26.9,42.6,27,42.8,27z"/>
<path class="st0" d="M48.3,24.6c0.1,0,0.1,0,0.2,0l0.9-0.4c0.2-0.1,0.3-0.4,0.2-0.6c-0.1-0.2-0.4-0.3-0.6-0.2l-0.9,0.4
	c-0.2,0.1-0.3,0.4-0.2,0.6C48,24.5,48.2,24.6,48.3,24.6z"/>
<path class="st0" d="M40.1,28.1c0.1,0,0.1,0,0.2,0l0.9-0.4c0.2-0.1,0.3-0.4,0.2-0.6c-0.1-0.2-0.4-0.3-0.6-0.2l-0.9,0.4
	c-0.2,0.1-0.3,0.4-0.2,0.6C39.7,28,39.9,28.1,40.1,28.1z"/>
<path class="st0" d="M51.1,23.5c0.1,0.2,0.2,0.3,0.4,0.3c0.3,0,0.5-0.2,0.5-0.5v-0.2l0.2-0.1c0.2-0.1,0.3-0.4,0.2-0.6
	c-0.1-0.2-0.3-0.3-0.5-0.3c-0.1-0.2-0.2-0.3-0.4-0.3c-0.3,0-0.5,0.2-0.5,0.5v0.2l-0.1,0.1c-0.2,0.1-0.3,0.4-0.2,0.6
	C50.8,23.4,50.9,23.5,51.1,23.5z"/>
<path class="st0" d="M45.6,25.8c0.1,0,0.1,0,0.2,0l0.9-0.4c0.2-0.1,0.3-0.4,0.2-0.6c-0.1-0.2-0.4-0.3-0.6-0.2l-0.9,0.4
	c-0.2,0.1-0.3,0.4-0.2,0.6C45.2,25.7,45.4,25.8,45.6,25.8z"/>
<path class="st0" d="M37.2,28.9l0.4,0.2c0.1,0,0.1,0,0.2,0c0.1,0,0.1,0,0.2,0l0.4-0.2c0.2-0.1,0.3-0.4,0.2-0.6
	C38.5,28,38.3,27.9,38,28l-0.2,0.1L37.5,28c-0.2-0.1-0.5,0-0.6,0.2C36.8,28.5,36.9,28.8,37.2,28.9z"/>
<path class="st0" d="M31.7,26.5l0.9,0.4c0.1,0,0.1,0,0.2,0c0.2,0,0.4-0.1,0.4-0.3c0.1-0.2,0-0.5-0.2-0.6L32,25.7
	c-0.2-0.1-0.5,0-0.6,0.2C31.3,26.2,31.4,26.4,31.7,26.5z"/>
<path class="st0" d="M28.9,25.4l0.9,0.4c0.1,0,0.1,0,0.2,0c0.2,0,0.4-0.1,0.4-0.3c0.1-0.2,0-0.5-0.2-0.6l-0.9-0.4
	c-0.2-0.1-0.5,0-0.6,0.2C28.5,25,28.7,25.3,28.9,25.4z"/>
<path class="st0" d="M23.4,23.1l0.2,0.1v0.2c0,0.3,0.2,0.5,0.5,0.5c0.2,0,0.4-0.1,0.4-0.3c0.2,0,0.3-0.1,0.4-0.3
	c0.1-0.2,0-0.5-0.2-0.6l-0.1-0.1v-0.2c0-0.3-0.2-0.5-0.5-0.5c-0.2,0-0.3,0.1-0.4,0.3c-0.2,0-0.4,0.1-0.5,0.3
	C23,22.7,23.1,23,23.4,23.1z"/>
<path class="st0" d="M26.1,24.2l0.9,0.4c0.1,0,0.1,0,0.2,0c0.2,0,0.4-0.1,0.4-0.3c0.1-0.2,0-0.5-0.2-0.6l-0.9-0.4
	c-0.2-0.1-0.5,0-0.6,0.2C25.8,23.9,25.9,24.1,26.1,24.2z"/>
<path class="st0" d="M34.4,27.7l0.9,0.4c0.1,0,0.1,0,0.2,0c0.2,0,0.4-0.1,0.4-0.3c0.1-0.2,0-0.5-0.2-0.6l-0.9-0.4
	c-0.2-0.1-0.5,0-0.6,0.2C34.1,27.3,34.2,27.6,34.4,27.7z"/>
</svg>
