<?xml version="1.0" encoding="utf-8"?>
<!-- Generator: Adobe Illustrator 16.0.4, SVG Export Plug-In . SVG Version: 6.00 Build 0)  -->
<!DOCTYPE svg PUBLIC "-//W3C//DTD SVG 1.1//EN" "http://www.w3.org/Graphics/SVG/1.1/DTD/svg11.dtd">
<svg version="1.1" id="Layer_1" xmlns="http://www.w3.org/2000/svg" xmlns:xlink="http://www.w3.org/1999/xlink" x="0px" y="0px"
	 width="74px" height="65.7px" viewBox="0 0 74 65.7" style="enable-background:new 0 0 74 65.7;" xml:space="preserve">
<style type="text/css">
<![CDATA[
	.st0{fill:none;stroke:#175A9D;stroke-width:2.532;stroke-linecap:round;stroke-linejoin:round;stroke-miterlimit:10;}
]]>
</style>
<g>
	<path class="st0" d="M41,18.1c0,0,4.5,2,5.4,2.6 M42.3,27.4c-6.9-0.3-12,3.9-14,8 M19.2,35.3c0.5,0.8,1.4,2,3.4,2.8 M45.4,46.4
		c-1.8,1.4-3.7,2.9-8.3,4 M60.5,30.5c-0.1,2.1-0.5,4.1-1.1,5.8c0.9,1.5,1.4,3.8,1.2,6.2c-0.1,1.2-0.3,2.2-0.6,3.2l1.9,3.4
		c0.4,0.8,0.3,1.7-0.3,2.4c-0.6,0.6-1.6,0.8-2.4,0.3l-2.4-1.4c-2.4,1-5.2,1.7-9.4,1.7c-4.2,0-8-0.7-10.4-1.7
		c-2.7,0.6-5.7,0.9-8.4,0.9c-3.1,0-4.8-0.4-6.8-1l-2.7,1.5c-0.8,0.4-1.7,0.3-2.4-0.3c-0.6-0.6-0.8-1.6-0.3-2.4l2.2-3.9
		c-1.3-3.6-0.9-7.7,0.5-10c-1.2-3.7-1.5-8.6-0.6-12.3l-2.1-3.7c-0.4-0.8-0.3-1.7,0.3-2.4c0.6-0.6,1.6-0.8,2.4-0.3l2.4,1.4
		c2.4-1,5-1.6,9.1-1.6c4.2,0,8,0.7,10.4,1.7c1.8-0.4,5-0.8,7.2-0.8c3,0,6.1,0.2,8.1,0.8c0.4,0,2.6-1.4,3-1.6
		c0.8-0.4,1.7-0.3,2.4,0.3c0.6,0.6,0.8,1.6,0.3,2.4l-2.2,3.8C60.4,25.1,60.7,27.7,60.5,30.5z"/>
</g>
</svg>
