<?xml version="1.0" encoding="utf-8"?>
<!-- Generator: Adobe Illustrator 16.0.4, SVG Export Plug-In . SVG Version: 6.00 Build 0)  -->
<!DOCTYPE svg PUBLIC "-//W3C//DTD SVG 1.1//EN" "http://www.w3.org/Graphics/SVG/1.1/DTD/svg11.dtd">
<svg version="1.1" id="Layer_1" xmlns="http://www.w3.org/2000/svg" xmlns:xlink="http://www.w3.org/1999/xlink" x="0px" y="0px"
	 width="74px" height="65.7px" viewBox="0 0 74 65.7" style="enable-background:new 0 0 74 65.7;" xml:space="preserve">
<style type="text/css">
<![CDATA[
	.st0{fill:#175A9D;}
]]>
</style>
<g>
	<path class="st0" d="M30.3,38.7c-0.3,0-0.6-0.3-0.6-0.6v-7.7c0-0.3,0.3-0.6,0.6-0.6c0.3,0,0.6,0.3,0.6,0.6v7.7
		C30.9,38.5,30.6,38.7,30.3,38.7"/>
	<path class="st0" d="M39.6,38.7c-0.3,0-0.6-0.3-0.6-0.6v-7.7c0-0.3,0.3-0.6,0.6-0.6c0.3,0,0.6,0.3,0.6,0.6v7.7
		C40.2,38.5,39.9,38.7,39.6,38.7"/>
	<path class="st0" d="M48.9,38.7c-0.3,0-0.6-0.3-0.6-0.6v-7.7c0-0.3,0.3-0.6,0.6-0.6s0.6,0.3,0.6,0.6v7.7
		C49.5,38.5,49.2,38.7,48.9,38.7"/>
	<path class="st0" d="M58.2,38.7c-0.3,0-0.6-0.3-0.6-0.6v-7.7c0-0.3,0.3-0.6,0.6-0.6s0.6,0.3,0.6,0.6v7.7
		C58.8,38.5,58.5,38.7,58.2,38.7"/>
	<path class="st0" d="M30.3,22.2c-0.3,0-0.6-0.3-0.6-0.6v-7.8c0-0.3,0.3-0.6,0.6-0.6c0.3,0,0.6,0.3,0.6,0.6v7.8
		C30.9,21.9,30.6,22.2,30.3,22.2"/>
	<path class="st0" d="M39.6,22.2c-0.3,0-0.6-0.3-0.6-0.6v-7.8c0-0.3,0.3-0.6,0.6-0.6c0.3,0,0.6,0.3,0.6,0.6v7.8
		C40.2,21.9,39.9,22.2,39.6,22.2"/>
	<path class="st0" d="M48.9,22.2c-0.3,0-0.6-0.3-0.6-0.6v-7.8c0-0.3,0.3-0.6,0.6-0.6s0.6,0.3,0.6,0.6v7.8
		C49.5,21.9,49.2,22.2,48.9,22.2"/>
	<path class="st0" d="M58.2,22.2c-0.3,0-0.6-0.3-0.6-0.6v-7.8c0-0.3,0.3-0.6,0.6-0.6s0.6,0.3,0.6,0.6v7.8
		C58.8,21.9,58.5,22.2,58.2,22.2"/>
	<path class="st0" d="M30.3,56.3c-0.3,0-0.6-0.3-0.6-0.6v-9.1c0-0.3,0.3-0.6,0.6-0.6c0.3,0,0.6,0.3,0.6,0.6v9.1
		C30.9,56.1,30.6,56.3,30.3,56.3"/>
	<path class="st0" d="M39.6,56.3c-0.3,0-0.6-0.3-0.6-0.6v-9.1c0-0.3,0.3-0.6,0.6-0.6c0.3,0,0.6,0.3,0.6,0.6v9.1
		C40.2,56.1,39.9,56.3,39.6,56.3"/>
	<path class="st0" d="M48.9,56.3c-0.3,0-0.6-0.3-0.6-0.6v-9.1c0-0.3,0.3-0.6,0.6-0.6s0.6,0.3,0.6,0.6v9.1
		C49.5,56.1,49.2,56.3,48.9,56.3"/>
	<path class="st0" d="M58.2,56.3c-0.3,0-0.6-0.3-0.6-0.6v-9.1c0-0.3,0.3-0.6,0.6-0.6s0.6,0.3,0.6,0.6v9.1
		C58.8,56.1,58.5,56.3,58.2,56.3"/>
	<path class="st0" d="M21,22.2c-0.3,0-0.6-0.3-0.6-0.6v-7.7c0-0.3,0.3-0.6,0.6-0.6c0.3,0,0.6,0.3,0.6,0.6v7.7
		C21.6,21.9,21.3,22.2,21,22.2"/>
	<path class="st0" d="M21,38.7c-0.3,0-0.6-0.3-0.6-0.6v-7.7c0-0.3,0.3-0.6,0.6-0.6c0.3,0,0.6,0.3,0.6,0.6v7.7
		C21.6,38.4,21.3,38.7,21,38.7"/>
	<path class="st0" d="M21,56.3c-0.3,0-0.6-0.3-0.6-0.6v-9.1c0-0.3,0.3-0.6,0.6-0.6c0.3,0,0.6,0.3,0.6,0.6v9.1
		C21.6,56.1,21.3,56.3,21,56.3"/>
	<path class="st0" d="M60.8,18.2l-0.1,0c-1.6-0.7-3.4-0.7-5,0.1c-1.3,0.6-2.8,0.6-4,0l-0.1,0l0,0l0,0l-0.1,0c-1.6-0.7-3.4-0.7-5,0.1
		c-1.3,0.6-2.8,0.6-4,0l-0.1,0c0,0,0,0,0,0l-0.1,0c-1.6-0.7-3.4-0.7-5,0.1c-1.3,0.6-2.8,0.6-4,0l-0.1,0c0,0,0,0,0,0l-0.1,0
		c-1.6-0.7-3.4-0.7-5,0.1c-1.3,0.6-2.8,0.6-4,0l-0.1,0c0,0,0,0,0,0l-0.1,0c-1.6-0.7-3.4-0.7-5,0.1c-0.3,0.1-0.5,0.5-0.3,0.8
		c0.1,0.3,0.5,0.5,0.8,0.3c1.3-0.6,2.7-0.6,4,0l0.1,0l0,0l0.1,0c0.8,0.3,1.6,0.5,2.5,0.5c0.9,0,1.8-0.2,2.6-0.6c1.3-0.6,2.8-0.6,4,0
		l0.1,0l0,0l0.1,0c0.8,0.3,1.6,0.5,2.5,0.5c0.9,0,1.8-0.2,2.6-0.6c1.3-0.6,2.7-0.6,4,0l0.1,0c0,0,0,0,0,0l0.1,0
		c0.8,0.3,1.6,0.5,2.5,0.5c0.9,0,1.8-0.2,2.6-0.6h0c1.3-0.6,2.7-0.6,4,0l0.1,0c0,0,0,0,0,0l0.1,0c0.8,0.3,1.6,0.5,2.5,0.5
		c0.9,0,1.8-0.2,2.6-0.6c1.3-0.6,2.8-0.6,4,0l0.1,0c0.1,0,0.2,0.1,0.2,0.1c0.2,0,0.5-0.1,0.6-0.4C61.2,18.7,61.1,18.4,60.8,18.2"/>
	<path class="st0" d="M60.8,34.2l-0.1,0c-1.6-0.7-3.4-0.7-5,0.1c-1.3,0.6-2.8,0.6-4,0l-0.1,0l0,0l0,0l-0.1,0c-1.6-0.7-3.4-0.7-5,0.1
		c-1.3,0.6-2.8,0.6-4,0l-0.1,0c0,0,0,0,0,0l-0.1,0c-1.6-0.7-3.4-0.7-5,0.1c-1.3,0.6-2.8,0.6-4,0l-0.1,0c0,0,0,0,0,0l-0.1,0
		c-1.6-0.7-3.4-0.7-5,0.1c-1.3,0.6-2.8,0.6-4,0l-0.1,0c0,0,0,0,0,0l-0.1,0c-1.6-0.7-3.4-0.7-5,0.1c-0.3,0.1-0.5,0.5-0.3,0.8
		c0.1,0.3,0.5,0.5,0.8,0.3c1.3-0.6,2.7-0.6,4,0l0.1,0h0l0.1,0c0.8,0.3,1.6,0.5,2.5,0.5c0.9,0,1.8-0.2,2.6-0.6c1.3-0.6,2.8-0.6,4,0
		l0.1,0h0l0.1,0c0.8,0.3,1.6,0.5,2.5,0.5c0.9,0,1.8-0.2,2.6-0.6c1.3-0.6,2.7-0.6,4,0l0.1,0c0,0,0,0,0,0l0.1,0
		c0.8,0.3,1.6,0.5,2.5,0.5c0.9,0,1.8-0.2,2.6-0.6h0c1.3-0.6,2.7-0.6,4,0l0.1,0c0,0,0,0,0,0l0.1,0c0.8,0.3,1.6,0.5,2.5,0.5
		c0.9,0,1.8-0.2,2.6-0.6c1.3-0.6,2.8-0.6,4,0l0.1,0c0.1,0,0.2,0,0.2,0c0.2,0,0.5-0.1,0.6-0.4C61.2,34.7,61.1,34.4,60.8,34.2"/>
	<path class="st0" d="M60.8,50.2l-0.1,0c-1.6-0.7-3.4-0.7-5,0.1c-1.3,0.6-2.8,0.6-4,0l-0.1,0l0,0l0,0l-0.1,0c-1.6-0.7-3.4-0.7-5,0.1
		c-1.3,0.6-2.8,0.6-4,0l-0.1,0c0,0,0,0,0,0l-0.1,0c-1.6-0.7-3.4-0.7-5,0.1c-1.3,0.6-2.8,0.6-4,0l-0.1,0c0,0,0,0,0,0l-0.1,0
		c-1.6-0.7-3.4-0.7-5,0.1c-1.3,0.6-2.8,0.6-4,0l-0.1,0c0,0,0,0,0,0l-0.1,0c-1.6-0.7-3.4-0.7-5,0.1c-0.3,0.1-0.5,0.5-0.3,0.8
		c0.1,0.3,0.5,0.5,0.8,0.3c1.3-0.6,2.7-0.6,4,0l0.1,0h0l0.1,0c0.8,0.3,1.6,0.5,2.5,0.5c0.9,0,1.8-0.2,2.6-0.6c1.3-0.6,2.8-0.6,4,0
		l0.1,0h0l0.1,0c0.8,0.3,1.6,0.5,2.5,0.5c0.9,0,1.8-0.2,2.6-0.6c1.3-0.6,2.7-0.6,4,0l0.1,0c0,0,0,0,0,0l0.1,0
		c0.8,0.3,1.6,0.5,2.5,0.5c0.9,0,1.8-0.2,2.6-0.6h0c1.3-0.6,2.7-0.6,4,0l0.1,0c0,0,0,0,0,0l0.1,0c0.8,0.3,1.6,0.5,2.5,0.5
		c0.9,0,1.8-0.2,2.6-0.6c1.3-0.6,2.8-0.6,4,0l0.1,0c0.1,0,0.2,0,0.2,0c0.2,0,0.5-0.1,0.6-0.4C61.2,50.7,61.1,50.4,60.8,50.2"/>
	<path class="st0" d="M25.6,26.1c-0.3,0-0.6-0.3-0.6-0.6V13.8c0-0.3,0.3-0.6,0.6-0.6c0.3,0,0.6,0.3,0.6,0.6v11.6
		C26.2,25.8,26,26.1,25.6,26.1"/>
	<path class="st0" d="M25.6,36.8c-0.3,0-0.6-0.3-0.6-0.6V25.5c0-0.3,0.3-0.6,0.6-0.6c0.3,0,0.6,0.3,0.6,0.6v10.7
		C26.2,36.5,26,36.8,25.6,36.8"/>
	<path class="st0" d="M25.6,56.3c-0.3,0-0.6-0.3-0.6-0.6V36.2c0-0.3,0.3-0.6,0.6-0.6c0.3,0,0.6,0.3,0.6,0.6v19.5
		C26.2,56.1,26,56.3,25.6,56.3"/>
	<path class="st0" d="M44.2,26.1c-0.3,0-0.6-0.3-0.6-0.6V13.8c0-0.3,0.3-0.6,0.6-0.6c0.3,0,0.6,0.3,0.6,0.6v11.6
		C44.8,25.8,44.6,26.1,44.2,26.1"/>
	<path class="st0" d="M44.2,36.8c-0.3,0-0.6-0.3-0.6-0.6V25.5c0-0.3,0.3-0.6,0.6-0.6c0.3,0,0.6,0.3,0.6,0.6v10.7
		C44.8,36.5,44.6,36.8,44.2,36.8"/>
	<path class="st0" d="M44.2,56.3c-0.3,0-0.6-0.3-0.6-0.6V36.2c0-0.3,0.3-0.6,0.6-0.6c0.3,0,0.6,0.3,0.6,0.6v19.5
		C44.8,56.1,44.6,56.3,44.2,56.3"/>
	<path class="st0" d="M53.5,26.1c-0.3,0-0.6-0.3-0.6-0.6V13.8c0-0.3,0.3-0.6,0.6-0.6s0.6,0.3,0.6,0.6v11.6
		C54.2,25.8,53.9,26.1,53.5,26.1"/>
	<path class="st0" d="M53.5,36.8c-0.3,0-0.6-0.3-0.6-0.6V25.5c0-0.3,0.3-0.6,0.6-0.6s0.6,0.3,0.6,0.6v10.7
		C54.2,36.5,53.9,36.8,53.5,36.8"/>
	<path class="st0" d="M53.5,56.3c-0.3,0-0.6-0.3-0.6-0.6V36.2c0-0.3,0.3-0.6,0.6-0.6s0.6,0.3,0.6,0.6v19.5
		C54.2,56.1,53.9,56.3,53.5,56.3"/>
	<path class="st0" d="M34.9,26.1c-0.3,0-0.6-0.3-0.6-0.6V13.8c0-0.3,0.3-0.6,0.6-0.6c0.3,0,0.6,0.3,0.6,0.6v11.6
		C35.5,25.8,35.3,26.1,34.9,26.1"/>
	<path class="st0" d="M34.9,36.8c-0.3,0-0.6-0.3-0.6-0.6V25.5c0-0.3,0.3-0.6,0.6-0.6c0.3,0,0.6,0.3,0.6,0.6v10.7
		C35.5,36.5,35.3,36.8,34.9,36.8"/>
	<path class="st0" d="M34.9,56.3c-0.3,0-0.6-0.3-0.6-0.6V36.2c0-0.3,0.3-0.6,0.6-0.6c0.3,0,0.6,0.3,0.6,0.6v19.5
		C35.5,56.1,35.3,56.3,34.9,56.3"/>
	<path class="st0" d="M61.1,26.6c-0.1-0.3-0.5-0.5-0.8-0.3l-0.1,0c-1.3,0.6-2.8,0.5-4,0c-1.6-0.7-3.4-0.7-5-0.1l-0.1,0c0,0,0,0,0,0
		l-0.1,0c-1.3,0.6-2.8,0.5-4,0c-1.6-0.7-3.4-0.7-5-0.1l-0.1,0l0,0l0,0l-0.1,0c-1.3,0.5-2.8,0.5-4,0c-1.6-0.7-3.4-0.7-5-0.1l-0.1,0
		c0,0,0,0,0,0l0,0l-0.1,0c-1.3,0.5-2.8,0.5-4,0c-1.6-0.7-3.4-0.7-5-0.1l-0.1,0c0,0,0,0,0,0l0,0l-0.1,0c-1.3,0.6-2.8,0.5-4,0
		c-0.3-0.1-0.7,0-0.8,0.3c-0.1,0.3,0,0.7,0.3,0.8c0.8,0.4,1.7,0.6,2.6,0.6c0.8,0,1.7-0.2,2.5-0.5l0.1,0h0l0.1,0c1.3-0.5,2.8-0.5,4,0
		c0.8,0.4,1.7,0.6,2.6,0.6c0.8,0,1.7-0.2,2.5-0.5l0.1,0h0l0.1,0c1.3-0.5,2.8-0.5,4,0c0.8,0.4,1.7,0.6,2.6,0.6c0.8,0,1.7-0.2,2.5-0.5
		l0.1,0l0,0l0.1,0c1.3-0.5,2.8-0.5,4,0c0,0,0,0,0,0c0.8,0.4,1.7,0.6,2.6,0.6c0.8,0,1.7-0.2,2.5-0.5l0.1,0c0,0,0,0,0,0l0.1,0
		c1.3-0.5,2.8-0.5,4,0c0.8,0.4,1.7,0.6,2.6,0.6c0.8,0,1.7-0.2,2.5-0.5l0.1,0C61.1,27.3,61.2,26.9,61.1,26.6"/>
	<path class="st0" d="M61.1,42.6c-0.1-0.3-0.5-0.5-0.8-0.3l-0.1,0c-1.3,0.6-2.8,0.5-4,0c-1.6-0.7-3.4-0.7-5-0.1l-0.1,0c0,0,0,0,0,0
		l-0.1,0c-1.3,0.6-2.8,0.5-4,0c-1.6-0.7-3.4-0.7-5-0.1l-0.1,0l0,0l0,0l-0.1,0c-1.3,0.5-2.8,0.5-4,0c-1.6-0.7-3.4-0.7-5-0.1l-0.1,0
		c0,0,0,0,0,0l0,0l-0.1,0c-1.3,0.5-2.8,0.5-4,0c-1.6-0.7-3.4-0.7-5-0.1l-0.1,0c0,0,0,0,0,0l0,0l-0.1,0c-1.3,0.6-2.8,0.5-4,0
		c-0.3-0.1-0.7,0-0.8,0.3c-0.1,0.3,0,0.7,0.3,0.8c0.8,0.4,1.7,0.6,2.6,0.6c0.8,0,1.7-0.2,2.5-0.5l0.1,0h0l0.1,0c1.3-0.5,2.8-0.5,4,0
		c0.8,0.4,1.7,0.6,2.6,0.6c0.8,0,1.7-0.2,2.5-0.5l0.1,0h0l0.1,0c1.3-0.5,2.8-0.5,4,0c0.8,0.4,1.7,0.6,2.6,0.6c0.8,0,1.7-0.2,2.5-0.5
		l0.1,0l0,0l0.1,0c1.3-0.5,2.8-0.5,4,0c0,0,0,0,0,0c0.8,0.4,1.7,0.6,2.6,0.6c0.8,0,1.7-0.2,2.5-0.5l0.1,0c0,0,0,0,0,0l0.1,0
		c1.3-0.5,2.8-0.5,4,0c0.8,0.4,1.7,0.6,2.6,0.6c0.8,0,1.7-0.2,2.5-0.5l0.1,0C61.1,43.3,61.2,42.9,61.1,42.6"/>
	<path class="st0" d="M21,31c-0.3,0-0.6-0.3-0.6-0.6v-8.8c0-0.3,0.3-0.6,0.6-0.6c0.3,0,0.6,0.3,0.6,0.6v8.8C21.6,30.7,21.3,31,21,31
		"/>
	<path class="st0" d="M21,47.2c-0.3,0-0.6-0.3-0.6-0.6v-8.5c0-0.3,0.3-0.6,0.6-0.6c0.3,0,0.6,0.3,0.6,0.6v8.5
		C21.6,47,21.3,47.2,21,47.2"/>
	<path class="st0" d="M30.3,31c-0.3,0-0.6-0.3-0.6-0.6v-8.8c0-0.3,0.3-0.6,0.6-0.6c0.3,0,0.6,0.3,0.6,0.6v8.8
		C30.9,30.7,30.6,31,30.3,31"/>
	<path class="st0" d="M30.3,47.3c-0.3,0-0.6-0.3-0.6-0.6v-8.5c0-0.3,0.3-0.6,0.6-0.6c0.3,0,0.6,0.3,0.6,0.6v8.5
		C30.9,47,30.6,47.3,30.3,47.3"/>
	<path class="st0" d="M39.6,31c-0.3,0-0.6-0.3-0.6-0.6v-8.8c0-0.3,0.3-0.6,0.6-0.6c0.3,0,0.6,0.3,0.6,0.6v8.8
		C40.2,30.7,39.9,31,39.6,31"/>
	<path class="st0" d="M39.6,47.3c-0.3,0-0.6-0.3-0.6-0.6v-8.5c0-0.3,0.3-0.6,0.6-0.6c0.3,0,0.6,0.3,0.6,0.6v8.5
		C40.2,47,39.9,47.3,39.6,47.3"/>
	<path class="st0" d="M48.9,31c-0.3,0-0.6-0.3-0.6-0.6v-8.8c0-0.3,0.3-0.6,0.6-0.6s0.6,0.3,0.6,0.6v8.8C49.5,30.7,49.2,31,48.9,31"
		/>
	<path class="st0" d="M48.9,47.3c-0.3,0-0.6-0.3-0.6-0.6v-8.5c0-0.3,0.3-0.6,0.6-0.6s0.6,0.3,0.6,0.6v8.5
		C49.5,47,49.2,47.3,48.9,47.3"/>
	<path class="st0" d="M58.2,31c-0.3,0-0.6-0.3-0.6-0.6v-8.8c0-0.3,0.3-0.6,0.6-0.6s0.6,0.3,0.6,0.6v8.8C58.8,30.7,58.5,31,58.2,31"
		/>
	<path class="st0" d="M58.2,47.3c-0.3,0-0.6-0.3-0.6-0.6v-8.5c0-0.3,0.3-0.6,0.6-0.6s0.6,0.3,0.6,0.6v8.5
		C58.8,47,58.5,47.3,58.2,47.3"/>
</g>
</svg>
