<?xml version="1.0" encoding="utf-8"?>
<!-- Generator: Adobe Illustrator 16.0.4, SVG Export Plug-In . SVG Version: 6.00 Build 0)  -->
<!DOCTYPE svg PUBLIC "-//W3C//DTD SVG 1.1//EN" "http://www.w3.org/Graphics/SVG/1.1/DTD/svg11.dtd">
<svg version="1.1" id="Layer_1" xmlns="http://www.w3.org/2000/svg" xmlns:xlink="http://www.w3.org/1999/xlink" x="0px" y="0px"
	 width="74px" height="65.7px" viewBox="0 0 74 65.7" style="enable-background:new 0 0 74 65.7;" xml:space="preserve">
<style type="text/css">
<![CDATA[
	.st0{fill:#175A9D;}
]]>
</style>
<g>
	<path class="st0" d="M27.1,17.2c-0.2,0.5-0.4,0.9-0.6,1.3c-0.1,0.3-0.5,0.4-0.7,0.3c-1.9-0.8-3.9-1.6-5.8-2.3
		c-0.3-0.1-0.4-0.4-0.3-0.7c1.1-2.9,2.2-5.9,3.3-8.8c0.2-0.4,0.4-0.9,0.8-1.3c0.3-0.4,0.7-0.7,1.1-1C25.9,4,27,3.5,28.1,3
		c1.1-0.5,2.1-1,3.2-1.6c0,0,0.1-0.1,0.1-0.1c0.3-0.1,0.6,0,0.7,0.3c0.6,1.6,2.5,2.5,4.1,2.5c1.6,0,3.5-0.8,4.1-2.5c0,0,0,0,0,0
		c0,0,0-0.1,0-0.1c0.2-0.3,0.5-0.4,0.8-0.2C42.2,2,43.3,2.5,44.4,3c1.1,0.5,2.2,1,3.3,1.7c0.4,0.2,0.7,0.6,1,1
		c0.3,0.4,0.6,0.9,0.8,1.3c1.1,2.9,2.2,5.9,3.3,8.8c0.1,0.3,0,0.6-0.3,0.7c-1.9,0.8-3.8,1.5-5.7,2.3c-0.3,0.1-0.6,0-0.8-0.3
		c-0.2-0.4-0.4-0.8-0.6-1.3c0,0.8,0,1.7,0,2.5c0,4.7,0,9.3,0.8,15.2c0,0.2-0.1,0.5-0.3,0.6c-1,0.5-2.3,0.9-4,1.2
		c-1.6,0.3-3.4,0.4-5.6,0.4c-2.2,0-4.1-0.1-5.6-0.4c-1.7-0.3-3-0.7-3.9-1.2c-0.2-0.1-0.4-0.3-0.3-0.6c0.7-5.9,0.7-10.5,0.8-15.2
		C27.1,18.9,27.1,18.1,27.1,17.2 M45.4,14.6c0.2,0.5,0.5,1.1,0.8,1.6c0.2,0.4,0.4,0.8,0.6,1.3c1.6-0.6,3.2-1.3,4.8-1.9
		c-1-2.8-2.1-5.5-3.1-8.3c-0.1-0.3-0.3-0.7-0.6-1c-0.2-0.3-0.5-0.5-0.7-0.7C46.1,5,45,4.5,43.9,4c-0.9-0.4-1.8-0.8-2.7-1.3
		c-1,1.7-3,2.6-4.9,2.6c-1.9,0-4-0.9-4.9-2.6c-0.9,0.5-1.8,0.9-2.7,1.3c-1.1,0.5-2.2,1-3.2,1.6c-0.2,0.1-0.5,0.4-0.7,0.7
		c-0.3,0.3-0.5,0.7-0.6,1c-1,2.8-2.1,5.5-3.1,8.3c1.6,0.6,3.2,1.3,4.8,1.9c0.2-0.5,0.4-0.9,0.6-1.3c0.3-0.6,0.6-1.2,0.8-1.6
		c-0.1-0.3-0.1-0.7-0.2-1.1c-0.2-0.9-0.4-1.8-0.4-2.6c0-1,0.6-2.3,1.5-3.5C28.8,6.2,29.8,5,30.6,4c0.2-0.3,0.6-0.3,0.9,0
		c0.2,0.2,0.3,0.3,0.5,0.5c1.2,1,2.7,1.5,4.3,1.5s3.1-0.5,4.3-1.5C40.7,4.3,40.9,4.1,41,4c0.2-0.2,0.6-0.2,0.8,0.1
		c0.8,1,1.8,2.2,2.6,3.3c0.8,1.2,1.4,2.5,1.5,3.5c0,0.8-0.2,1.7-0.4,2.6C45.5,13.9,45.4,14.3,45.4,14.6 M44.4,13.3
		c0.2-0.8,0.3-1.7,0.3-2.4c0-0.8-0.5-1.8-1.3-2.9c-0.6-1-1.4-1.9-2.2-2.8c-1.4,1.2-3.3,1.8-5.1,1.8s-3.7-0.6-5.1-1.8
		c-0.7,0.8-1.5,1.8-2.2,2.8c-0.7,1.1-1.3,2.1-1.3,2.9c0,0.7,0.2,1.6,0.3,2.4c0.1,0.4,0.2,0.9,0.2,1.3c0,0,0,0,0,0v0v0v0c0,0,0,0,0,0
		v0v0c0,0,0,0,0,0v0c0,0,0,0,0,0v0v0v0v0v0c0,0,0,0,0,0v0v0c0,0,0,0,0,0v0v0v0c0,0,0,0,0,0v0v0c0,0,0,0,0,0v0l0,0v0v0l0,0v0
		c0,0,0,0,0,0v0v0l0,0v0c0,0,0,0,0,0v0v0v0v0v0v0c0,0,0,0,0,0v0v0v0v0v0v0v0v0v0v0l0,0v0v0v0v0l0,0v0v0v0v0c0,1.7,0,3.4-0.1,5
		c0,4.7,0,9.2-0.7,14.9c0.8,0.4,1.9,0.7,3.3,0.9c1.5,0.2,3.3,0.4,5.5,0.4c2.1,0,4-0.1,5.5-0.4c1.4-0.2,2.4-0.5,3.3-0.9
		c-0.7-5.7-0.7-10.3-0.7-14.9c0-1.6,0-3.3-0.1-5C44.2,14.4,44.4,13.8,44.4,13.3"/>
	<path class="st0" d="M26,42.2v2c6.8,0.5,13.7,0.5,20.5,0v-2C39.6,42.6,32.8,42.6,26,42.2 M25.5,41c7.2,0.4,14.3,0.4,21.5,0
		c0.4,0,0.6,0.3,0.6,0.6v2.9c0.9,1.6,1.6,3.5,1.7,5.4c0.3,4.2,0.7,8.3,1,12.5c0,0.4-0.2,0.6-0.6,0.6c-4.1,0.4-8.2,0.8-12.4,1.3
		c-0.3,0-0.6-0.2-0.6-0.5c-0.2-0.8-0.4-1.7-0.6-2.5c-0.2,0.8-0.4,1.7-0.6,2.5c-0.1,0.3-0.3,0.5-0.6,0.5c-4.1-0.4-8.2-0.8-12.4-1.3
		c-0.3,0-0.6-0.3-0.6-0.6c0.3-4.2,0.7-8.3,1-12.5c0.2-1.9,0.8-3.7,1.7-5.4v-3C24.8,41.2,25.2,41,25.5,41 M39,45.7v7.7
		c0,0.8-0.3,1.5-0.8,2c-0.5,0.5-1.2,0.9-1.9,0.9c-0.3,0-0.6-0.2-0.6-0.5c0-0.3,0.2-0.6,0.5-0.6c0.5,0,0.9-0.2,1.2-0.6
		c0.3-0.3,0.5-0.7,0.5-1.2v-7.7c-4,0-8.1-0.1-12.1-0.4c-0.8,1.5-1.3,3-1.5,4.7c-0.3,4-0.6,8-1,11.9c3.8,0.4,7.6,0.8,11.3,1.2
		c0.3-1.5,0.7-3,1-4.4c0.1-0.7,1-0.7,1.1,0c0.3,1.5,0.7,3,1,4.4c3.8-0.4,7.6-0.8,11.3-1.2c-0.3-4-0.6-7.9-1-11.9
		c-0.1-1.7-0.7-3.2-1.5-4.7C44.1,45.5,41.6,45.6,39,45.7"/>
</g>
</svg>
