<?xml version="1.0" encoding="utf-8"?>
<!-- Generator: Adobe Illustrator 16.0.4, SVG Export Plug-In . SVG Version: 6.00 Build 0)  -->
<!DOCTYPE svg PUBLIC "-//W3C//DTD SVG 1.1//EN" "http://www.w3.org/Graphics/SVG/1.1/DTD/svg11.dtd">
<svg version="1.1" id="Layer_1" xmlns="http://www.w3.org/2000/svg" xmlns:xlink="http://www.w3.org/1999/xlink" x="0px" y="0px"
	 width="74px" height="65.7px" viewBox="0 0 74 65.7" style="enable-background:new 0 0 74 65.7;" xml:space="preserve">
<style type="text/css">
<![CDATA[
	.st0{fill:#175A9D;}
	.st1{fill:#FFFFFF;}
]]>
</style>
<g>
	<path class="st1" d="M63.2,36.1c2.2,1.1,3.5,2.3,3.5,3.6c0,4.2-13.1,7.6-29.2,7.6c-16.1,0-29.2-3.4-29.2-7.6c0-1.2,1.1-2.4,3.2-3.4
		L63.2,36.1z"/>
	<path class="st0" d="M37.5,48c-14.6,0-30-2.9-30-8.4c0-1.5,1.2-2.9,3.6-4.1c0.4-0.2,0.9,0,1.1,0.4c0.2,0.4,0,0.9-0.4,1.1
		c-1.8,0.9-2.7,1.9-2.7,2.7c0,3.2,11.7,6.8,28.4,6.8s28.4-3.6,28.4-6.8c0-0.9-1.1-1.9-3-2.9c-0.4-0.2-0.6-0.7-0.4-1.1
		c0.2-0.4,0.7-0.6,1.1-0.4c2.6,1.3,3.9,2.7,3.9,4.3C67.5,45.1,52,48,37.5,48z"/>
</g>
<g>
	<path class="st1" d="M63.3,27.3c2.2,1.1,3.4,2.3,3.4,3.5c0,4.2-13.1,7.6-29.2,7.6c-16.1,0-29.2-3.4-29.2-7.6c0-1.3,1.2-2.5,3.4-3.5
		L63.3,27.3z"/>
	<path class="st0" d="M37.5,39.2c-14.6,0-30-2.9-30-8.4c0-1.6,1.3-3,3.8-4.3c0.4-0.2,0.9,0,1.1,0.4c0.2,0.4,0,0.9-0.4,1.1
		c-1.9,0.9-2.9,1.9-2.9,2.8c0,3.2,11.7,6.8,28.4,6.8s28.4-3.6,28.4-6.8c0-0.9-1-1.9-2.9-2.8c-0.4-0.2-0.6-0.7-0.4-1.1
		c0.2-0.4,0.7-0.6,1.1-0.4c2.5,1.2,3.8,2.7,3.8,4.3C67.5,36.2,52,39.2,37.5,39.2z"/>
</g>
<g>
	<ellipse class="st1" cx="37.5" cy="22" rx="29.2" ry="7.6"/>
	<path class="st0" d="M37.5,30.3c-14.6,0-30-2.9-30-8.4c0-5.4,15.5-8.4,30-8.4s30,2.9,30,8.4C67.5,27.4,52,30.3,37.5,30.3z
		 M37.5,15.2c-16.8,0-28.4,3.6-28.4,6.8c0,3.2,11.7,6.8,28.4,6.8s28.4-3.6,28.4-6.8C65.9,18.8,54.2,15.2,37.5,15.2z"/>
</g>
<g>
	<g>
		<path class="st0" d="M66.6,29.8c-0.2-0.2-0.4-0.4-0.6-0.6c-0.5,0-1,0-1.4,0.1c-0.8,0.1-0.8,0.3,0,0.5
			C65.1,29.8,65.9,29.8,66.6,29.8z"/>
	</g>
	<g>
		<path class="st0" d="M62.7,28.4c-0.5-0.1-1.2-0.1-1.9-0.1c-0.5,0.2-1,0.3-1.5,0.4c0.1,0,0.3,0.1,0.5,0.1c0.8,0.1,2.1,0.1,2.9,0
			C63.5,28.8,63.5,28.6,62.7,28.4z"/>
	</g>
	<g>
		<path class="st0" d="M66.2,30.7c-0.6,0-1.2,0-1.6,0.1c-0.8,0.1-0.8,0.3,0,0.5c0.4,0.1,0.9,0.1,1.4,0.1
			C66.1,31.1,66.2,30.9,66.2,30.7z"/>
	</g>
	<g>
		<path class="st0" d="M62.7,30.4c0.8-0.1,0.8-0.3,0-0.5c-0.8-0.1-2.1-0.1-2.9,0c-0.8,0.1-0.8,0.3,0,0.5
			C60.6,30.6,61.9,30.6,62.7,30.4z"/>
	</g>
	<g>
		<path class="st0" d="M57.9,29.2c-0.1,0-0.1,0-0.2,0c-0.8,0.2-1.7,0.4-2.5,0.5c0.8,0.1,2,0.1,2.7,0C58.7,29.5,58.7,29.3,57.9,29.2z
			"/>
	</g>
	<g>
		<path class="st0" d="M62.8,32c0.8-0.1,0.8-0.3,0-0.5c-0.8-0.1-2.1-0.1-2.9,0c-0.8,0.1-0.8,0.3,0,0.5C60.7,32.1,62,32.1,62.8,32z"
			/>
	</g>
	<g>
		<path class="st0" d="M58,31.2c0.8-0.1,0.8-0.3,0-0.5c-0.8-0.1-2.1-0.1-2.9,0c-0.8,0.1-0.8,0.3,0,0.5S57.1,31.3,58,31.2z"/>
	</g>
	<g>
		<path class="st0" d="M53.4,30c-1,0.2-2.1,0.3-3.1,0.4c0.8,0.1,2.1,0.1,2.9,0C53.8,30.3,53.9,30.2,53.4,30z"/>
	</g>
	<g>
		<path class="st0" d="M62.8,33.5c0.8-0.1,0.8-0.3,0-0.5s-2.1-0.1-2.9,0c-0.8,0.1-0.8,0.3,0,0.5C60.7,33.7,62,33.7,62.8,33.5z"/>
	</g>
	<g>
		<path class="st0" d="M58,32.8c0.8-0.1,0.8-0.3,0-0.5c-0.8-0.1-2.1-0.1-2.9,0c-0.8,0.1-0.8,0.3,0,0.5C55.9,32.9,57.2,32.9,58,32.8z
			"/>
	</g>
	<g>
		<path class="st0" d="M53.2,32c0.8-0.1,0.8-0.3,0-0.5c-0.8-0.1-2.1-0.1-2.9,0c-0.8,0.1-0.8,0.3,0,0.5C51,32.1,52.4,32.1,53.2,32z"
			/>
	</g>
	<g>
		<path class="st0" d="M48.3,30.8c-0.1,0-0.2,0-0.4,0c-1,0.1-2.1,0.2-3.2,0.3c0,0.1,0.2,0.2,0.6,0.2c0.8,0.1,2.1,0.1,2.9,0
			C49.1,31.1,49.1,30.9,48.3,30.8z"/>
	</g>
	<g>
		<path class="st0" d="M59.9,35.1c0.6,0.1,1.4,0.1,2.2,0.1c0.3-0.2,0.5-0.4,0.8-0.5c0,0,0,0-0.1,0c-0.8-0.1-2.1-0.1-2.9,0
			C59.1,34.7,59.1,34.9,59.9,35.1z"/>
	</g>
	<g>
		<path class="st0" d="M58,34.3c0.8-0.1,0.8-0.3,0-0.5c-0.8-0.1-2.1-0.1-2.9,0c-0.8,0.1-0.8,0.3,0,0.5C55.9,34.4,57.2,34.4,58,34.3z
			"/>
	</g>
	<g>
		<path class="st0" d="M53.2,33.5c0.8-0.1,0.8-0.3,0-0.5c-0.8-0.1-2.1-0.1-2.9,0c-0.8,0.1-0.8,0.3,0,0.5
			C51.1,33.7,52.4,33.7,53.2,33.5z"/>
	</g>
	<g>
		<path class="st0" d="M48.4,32.8c0.8-0.1,0.8-0.3,0-0.5c-0.8-0.1-2.1-0.1-2.9,0c-0.8,0.1-0.8,0.3,0,0.5
			C46.3,32.9,47.6,32.9,48.4,32.8z"/>
	</g>
	<g>
		<path class="st0" d="M43.5,32c0.8-0.1,0.8-0.3,0-0.5c-0.8-0.1-2.1-0.1-2.9,0c-0.8,0.1-0.8,0.3,0,0.5C41.4,32.1,42.7,32.1,43.5,32z
			"/>
	</g>
	<g>
		<path class="st0" d="M11.5,27.1c-0.1,0-0.2,0.1-0.4,0.1c0.1,0.1,0.3,0.1,0.5,0.1c0.4,0.1,1,0.1,1.6,0.1c-0.2-0.1-0.3-0.1-0.5-0.2
			C12.3,27.3,11.9,27.2,11.5,27.1z"/>
	</g>
	<g>
		<path class="st0" d="M58.1,35.8c0.8-0.1,0.8-0.3,0-0.5c-0.8-0.1-2.1-0.1-2.9,0c-0.8,0.1-0.8,0.3,0,0.5C55.9,36,57.3,36,58.1,35.8z
			"/>
	</g>
	<g>
		<path class="st0" d="M53.2,35.1c0.8-0.1,0.8-0.3,0-0.5c-0.8-0.1-2.1-0.1-2.9,0c-0.8,0.1-0.8,0.3,0,0.5
			C51.1,35.2,52.4,35.2,53.2,35.1z"/>
	</g>
	<g>
		<path class="st0" d="M48.4,34.3c0.8-0.1,0.8-0.3,0-0.5c-0.8-0.1-2.1-0.1-2.9,0c-0.8,0.1-0.8,0.3,0,0.5
			C46.3,34.4,47.6,34.4,48.4,34.3z"/>
	</g>
	<g>
		<path class="st0" d="M43.6,33.5c0.8-0.1,0.8-0.3,0-0.5c-0.8-0.1-2.1-0.1-2.9,0c-0.8,0.1-0.8,0.3,0,0.5
			C41.5,33.7,42.8,33.7,43.6,33.5z"/>
	</g>
	<g>
		<path class="st0" d="M38.7,32.8c0.8-0.1,0.8-0.3,0-0.5c-0.8-0.1-2.1-0.1-2.9,0c-0.8,0.1-0.8,0.3,0,0.5
			C36.6,32.9,37.9,32.9,38.7,32.8z"/>
	</g>
	<g>
		<path class="st0" d="M33.9,32c0.8-0.1,0.8-0.3,0-0.5c-0.8-0.1-2.1-0.1-2.9,0c-0.8,0.1-0.8,0.3,0,0.5C31.8,32.1,33.1,32.1,33.9,32z
			"/>
	</g>
	<g>
		<path class="st0" d="M26.8,30.7c-0.2,0-0.5,0-0.7,0.1c-0.8,0.1-0.8,0.3,0,0.5c0.8,0.1,2.1,0.1,2.9,0c0.4-0.1,0.6-0.1,0.6-0.2
			C28.7,30.9,27.8,30.8,26.8,30.7z"/>
	</g>
	<g>
		<path class="st0" d="M22,29.9c-0.2,0-0.5,0-0.7,0.1c-0.8,0.1-0.8,0.3,0,0.5c0.8,0.1,2.1,0.1,2.9,0c0.1,0,0.3,0,0.3-0.1
			C23.7,30.3,22.8,30.1,22,29.9z"/>
	</g>
	<g>
		<path class="st0" d="M18.5,29.2c-0.7,0-1.5,0-2.1,0.1c-0.8,0.1-0.8,0.3,0,0.5c0.8,0.1,2.1,0.1,2.9,0c0.3-0.1,0.5-0.1,0.6-0.2
			C19.5,29.4,19,29.3,18.5,29.2z"/>
	</g>
	<g>
		<path class="st0" d="M14.6,28.9c0.8-0.1,0.8-0.3,0-0.5c-0.8-0.1-2.1-0.1-2.9,0c-0.8,0.1-0.8,0.3,0,0.5
			C12.5,29.1,13.8,29.1,14.6,28.9z"/>
	</g>
	<g>
		<path class="st0" d="M55,37.4c0.8-0.1,1.7-0.3,2.6-0.5c-0.8-0.1-1.8,0-2.5,0.1C54.4,37,54.4,37.2,55,37.4z"/>
	</g>
	<g>
		<path class="st0" d="M53.3,36.6c0.8-0.1,0.8-0.3,0-0.5c-0.8-0.1-2.1-0.1-2.9,0c-0.8,0.1-0.8,0.3,0,0.5
			C51.2,36.7,52.5,36.7,53.3,36.6z"/>
	</g>
	<g>
		<path class="st0" d="M48.4,35.8c0.8-0.1,0.8-0.3,0-0.5c-0.8-0.1-2.1-0.1-2.9,0c-0.8,0.1-0.8,0.3,0,0.5C46.3,36,47.6,36,48.4,35.8z
			"/>
	</g>
	<g>
		<path class="st0" d="M43.6,35.1c0.8-0.1,0.8-0.3,0-0.5s-2.1-0.1-2.9,0c-0.8,0.1-0.8,0.3,0,0.5C41.5,35.2,42.8,35.2,43.6,35.1z"/>
	</g>
	<g>
		<path class="st0" d="M38.8,34.3c0.8-0.1,0.8-0.3,0-0.5c-0.8-0.1-2.1-0.1-2.9,0s-0.8,0.3,0,0.5C36.7,34.4,38,34.4,38.8,34.3z"/>
	</g>
	<g>
		<path class="st0" d="M33.9,33.5c0.8-0.1,0.8-0.3,0-0.5c-0.8-0.1-2.1-0.1-2.9,0c-0.8,0.1-0.8,0.3,0,0.5
			C31.8,33.7,33.1,33.7,33.9,33.5z"/>
	</g>
	<g>
		<path class="st0" d="M29.1,32.8c0.8-0.1,0.8-0.3,0-0.5c-0.8-0.1-2.1-0.1-2.9,0c-0.8,0.1-0.8,0.3,0,0.5
			C27,32.9,28.3,32.9,29.1,32.8z"/>
	</g>
	<g>
		<path class="st0" d="M24.3,32c0.8-0.1,0.8-0.3,0-0.5c-0.8-0.1-2.1-0.1-2.9,0c-0.8,0.1-0.8,0.3,0,0.5C22.2,32.1,23.5,32.1,24.3,32z
			"/>
	</g>
	<g>
		<path class="st0" d="M19.4,31.2c0.8-0.1,0.8-0.3,0-0.5c-0.8-0.1-2.1-0.1-2.9,0c-0.8,0.1-0.8,0.3,0,0.5
			C17.3,31.4,18.6,31.4,19.4,31.2z"/>
	</g>
	<g>
		<path class="st0" d="M14.6,30.5c0.8-0.1,0.8-0.3,0-0.5c-0.8-0.1-2.1-0.1-2.9,0c-0.8,0.1-0.8,0.3,0,0.5
			C12.5,30.6,13.8,30.6,14.6,30.5z"/>
	</g>
	<g>
		<path class="st0" d="M52.8,37.6c-0.8-0.1-1.7,0-2.4,0.1c-0.3,0.1-0.5,0.1-0.6,0.2C50.9,37.8,51.8,37.7,52.8,37.6z"/>
	</g>
	<g>
		<path class="st0" d="M48.5,37.4c0.8-0.1,0.8-0.3,0-0.5c-0.8-0.1-2.1-0.1-2.9,0c-0.8,0.1-0.8,0.3,0,0.5
			C46.4,37.5,47.7,37.5,48.5,37.4z"/>
	</g>
	<g>
		<path class="st0" d="M43.6,36.6c0.8-0.1,0.8-0.3,0-0.5c-0.8-0.1-2.1-0.1-2.9,0c-0.8,0.1-0.8,0.3,0,0.5
			C41.5,36.8,42.8,36.8,43.6,36.6z"/>
	</g>
	<g>
		<path class="st0" d="M38.8,35.9c0.8-0.1,0.8-0.3,0-0.5c-0.8-0.1-2.1-0.1-2.9,0c-0.8,0.1-0.8,0.3,0,0.5C36.7,36,38,36,38.8,35.9z"
			/>
	</g>
	<g>
		<path class="st0" d="M34,35.1c0.8-0.1,0.8-0.3,0-0.5c-0.8-0.1-2.1-0.1-2.9,0c-0.8,0.1-0.8,0.3,0,0.5C31.9,35.2,33.2,35.2,34,35.1z
			"/>
	</g>
	<g>
		<path class="st0" d="M29.1,34.3c0.8-0.1,0.8-0.3,0-0.5c-0.8-0.1-2.1-0.1-2.9,0c-0.8,0.1-0.8,0.3,0,0.5
			C27,34.4,28.3,34.4,29.1,34.3z"/>
	</g>
	<g>
		<path class="st0" d="M24.3,33.5c0.8-0.1,0.8-0.3,0-0.5c-0.8-0.1-2.1-0.1-2.9,0c-0.8,0.1-0.8,0.3,0,0.5
			C22.2,33.7,23.5,33.7,24.3,33.5z"/>
	</g>
	<g>
		<path class="st0" d="M19.5,32.8c0.8-0.1,0.8-0.3,0-0.5c-0.8-0.1-2.1-0.1-2.9,0c-0.8,0.1-0.8,0.3,0,0.5
			C17.4,32.9,18.7,32.9,19.5,32.8z"/>
	</g>
	<g>
		<path class="st0" d="M14.7,32c0.8-0.1,0.8-0.3,0-0.5c-0.8-0.1-2.1-0.1-2.9,0c-0.8,0.1-0.8,0.3,0,0.5C12.5,32.1,13.9,32.1,14.7,32z
			"/>
	</g>
	<g>
		<path class="st0" d="M9.8,30.8c-0.4-0.1-0.9-0.1-1.4-0.1c0,0.2,0.1,0.4,0.1,0.7c0.5,0,1,0,1.4-0.1C10.6,31.1,10.6,30.9,9.8,30.8z"
			/>
	</g>
	<g>
		<path class="st0" d="M43.7,38.2c0.8-0.1,0.8-0.3,0-0.5c-0.8-0.1-2.1-0.1-2.9,0c-0.8,0.1-0.8,0.3,0,0.5S42.9,38.3,43.7,38.2z"/>
	</g>
	<g>
		<path class="st0" d="M38.8,37.4c0.8-0.1,0.8-0.3,0-0.5c-0.8-0.1-2.1-0.1-2.9,0c-0.8,0.1-0.8,0.3,0,0.5
			C36.7,37.5,38,37.5,38.8,37.4z"/>
	</g>
	<g>
		<path class="st0" d="M34,36.6c0.8-0.1,0.8-0.3,0-0.5c-0.8-0.1-2.1-0.1-2.9,0c-0.8,0.1-0.8,0.3,0,0.5C31.9,36.8,33.2,36.8,34,36.6z
			"/>
	</g>
	<g>
		<path class="st0" d="M29.2,35.9c0.8-0.1,0.8-0.3,0-0.5c-0.8-0.1-2.1-0.1-2.9,0c-0.8,0.1-0.8,0.3,0,0.5C27.1,36,28.4,36,29.2,35.9z
			"/>
	</g>
	<g>
		<path class="st0" d="M24.4,35.1c0.8-0.1,0.8-0.3,0-0.5c-0.8-0.1-2.1-0.1-2.9,0c-0.8,0.1-0.8,0.3,0,0.5
			C22.2,35.2,23.5,35.2,24.4,35.1z"/>
	</g>
	<g>
		<path class="st0" d="M19.5,34.3c0.8-0.1,0.8-0.3,0-0.5c-0.8-0.1-2.1-0.1-2.9,0c-0.8,0.1-0.8,0.3,0,0.5
			C17.4,34.5,18.7,34.5,19.5,34.3z"/>
	</g>
	<g>
		<path class="st0" d="M14.7,33.6c0.8-0.1,0.8-0.3,0-0.5c-0.8-0.1-2.1-0.1-2.9,0c-0.8,0.1-0.8,0.3,0,0.5
			C12.6,33.7,13.9,33.7,14.7,33.6z"/>
	</g>
	<g>
		<path class="st0" d="M9.8,32.3c-0.4-0.1-0.8-0.1-1.3-0.1c0,0.1,0,0.1,0,0.2c0,0.1,0,0.1,0,0.2c0.1,0.1,0.3,0.2,0.4,0.2
			c0.3,0,0.6,0,0.9-0.1C10.7,32.7,10.7,32.4,9.8,32.3z"/>
	</g>
	<g>
		<path class="st0" d="M35.6,38.6c1.3,0.1,2.6,0.1,3.8,0c-0.1-0.1-0.3-0.1-0.6-0.2c-0.8-0.1-2.1-0.1-2.9,0
			C35.8,38.5,35.6,38.5,35.6,38.6C35.5,38.6,35.6,38.6,35.6,38.6z"/>
	</g>
	<g>
		<path class="st0" d="M34.1,38.2c0.8-0.1,0.8-0.3,0-0.5c-0.8-0.1-2.1-0.1-2.9,0c-0.8,0.1-0.8,0.3,0,0.5
			C31.9,38.3,33.2,38.3,34.1,38.2z"/>
	</g>
	<g>
		<path class="st0" d="M29.2,37.4c0.8-0.1,0.8-0.3,0-0.5c-0.8-0.1-2.1-0.1-2.9,0c-0.8,0.1-0.8,0.3,0,0.5
			C27.1,37.5,28.4,37.5,29.2,37.4z"/>
	</g>
	<g>
		<path class="st0" d="M24.4,36.6c0.8-0.1,0.8-0.3,0-0.5c-0.8-0.1-2.1-0.1-2.9,0c-0.8,0.1-0.8,0.3,0,0.5
			C22.3,36.8,23.6,36.8,24.4,36.6z"/>
	</g>
	<g>
		<path class="st0" d="M19.6,35.9c0.8-0.1,0.8-0.3,0-0.5s-2.1-0.1-2.9,0c-0.8,0.1-0.8,0.3,0,0.5C17.4,36,18.8,36,19.6,35.9z"/>
	</g>
	<g>
		<path class="st0" d="M12.9,35.2c0.1,0,0.1,0,0.2,0c0.6,0,1.1,0,1.6-0.1c0.8-0.1,0.8-0.3,0-0.5c-0.8-0.1-2.1-0.1-2.9,0
			C12.2,34.8,12.6,34.9,12.9,35.2z"/>
	</g>
</g>
</svg>
