<?xml version="1.0" encoding="utf-8"?>
<!-- Generator: Adobe Illustrator 16.0.4, SVG Export Plug-In . SVG Version: 6.00 Build 0)  -->
<!DOCTYPE svg PUBLIC "-//W3C//DTD SVG 1.1//EN" "http://www.w3.org/Graphics/SVG/1.1/DTD/svg11.dtd">
<svg version="1.1" id="Layer_1" xmlns="http://www.w3.org/2000/svg" xmlns:xlink="http://www.w3.org/1999/xlink" x="0px" y="0px"
	 width="74px" height="65.7px" viewBox="0 0 74 65.7" style="enable-background:new 0 0 74 65.7;" xml:space="preserve">
<style type="text/css">
<![CDATA[
	.st0{fill:#175A9D;}
]]>
</style>
<g>
	<path class="st0" d="M26.4,32.4c-0.8,2-1.5,4-1.9,6.1c-0.6,3.5-1.1,6.7-1.6,9.8c-0.4,2.8-1,6.1-1.5,9.7c-0.1,0.5-0.4,0.8-0.9,0.8
		c-2.2-0.1-4.4-0.3-6.6-0.5c-0.5,0-1-0.3-0.9-0.9c0.5-6.4,1-13.6,2.2-20.7c1.1-7.1,2.7-14.1,5.3-20.1c0.3-0.6,0.7-1.3,1.2-1.9
		c0.4-0.6,0.9-1,1.5-1.3c1.6-0.9,3.2-1.7,4.8-2.4c1.5-0.7,3-1.4,4.5-2.2c0.5-0.3,1.1-0.3,1.3,0.4c0.9,2.4,3.5,3.6,6,3.6
		c2.4,0,5-1.1,5.9-3.5c0.2-0.5,0.7-0.8,1.2-0.5c1.5,0.9,3.1,1.6,4.7,2.3c1.6,0.7,3.1,1.5,4.8,2.4c0.5,0.3,1,0.8,1.5,1.3
		c0.5,0.6,0.9,1.3,1.2,1.9c2.6,6,4.2,13,5.3,20.1c1.1,7,1.7,14.1,2.1,20.5c0,0.5-0.1,1.1-0.8,1.1c-2.2,0.1-4.4,0.3-6.7,0.5
		c-0.5,0.1-0.9-0.3-0.9-0.7c-0.6-3.6-1.1-6.9-1.5-9.7c-0.5-3.1-1-6.2-1.6-9.8c-0.4-2.1-1.1-4.1-1.9-6.1c0.2,8.1,0.4,15.8,1.1,24.8
		c0,0.4-0.1,0.7-0.5,0.9c-4.1,2.1-9.4,2.3-14,2.3c-4.5,0-9.8-0.2-13.9-2.3c-0.3-0.1-0.5-0.5-0.5-0.8C26,48.2,26.2,40.5,26.4,32.4
		 M53,27.7c1.4,3.3,3,6.9,3.6,10.5c0.6,3.3,1.1,6.5,1.6,9.8c0.5,3.2,0.9,6,1.4,9c1.7-0.1,3.4-0.3,5.1-0.4c-0.5-6.2-1-13-2.1-19.7
		c-1.1-7-2.7-13.8-5.2-19.7c-0.2-0.5-0.5-1.1-0.9-1.6c-0.3-0.4-0.7-0.7-1-0.9c-1.5-0.9-3.1-1.6-4.7-2.3c-1.3-0.6-2.6-1.2-4-1.9
		c-1.4,2.6-4.3,3.8-7.2,3.8c-2.8,0-5.8-1.2-7.2-3.8c-1.4,0.7-2.7,1.3-4,1.9c-1.6,0.7-3.1,1.5-4.7,2.3c-0.3,0.2-0.7,0.5-1,0.9
		c-0.4,0.5-0.7,1.1-0.9,1.6c-2.5,5.9-4.1,12.7-5.2,19.7c-1,6.7-1.6,13.5-2.1,19.7c1.7,0.1,3.4,0.3,5.1,0.4c0.4-2.9,0.9-5.7,1.4-9
		c0.5-3.3,1-6.4,1.6-9.8c0.6-3.6,2.2-7.2,3.6-10.5c-0.1-0.5-0.2-1-0.3-1.5c-0.3-1.3-0.5-2.6-0.5-3.8c0-1.5,0.9-3.3,2.1-5.1
		c1.1-1.7,2.6-3.4,3.8-4.8c0.3-0.4,0.9-0.5,1.3-0.1c1.8,1.8,4.4,2.8,6.9,2.8c2.4,0,4.8-0.8,6.6-2.4c0.7-0.6,1.1-0.9,1.8-0.1
		c1.2,1.4,2.5,3,3.7,4.7c1.2,1.8,2.1,3.6,2.1,5.1c0,1.2-0.3,2.5-0.5,3.8C53.2,26.7,53.1,27.2,53,27.7 M39.7,16.8
		c-2.7,0-5.4-0.9-7.5-2.7c-1,1.2-2.2,2.6-3.1,4c-1,1.6-1.8,3.1-1.8,4.2c0,1,0.2,2.3,0.5,3.5c0.3,1.4,0.4,2.3,0.3,3.7
		C28,38.6,27.8,47,27,56.8c3.8,1.8,8.6,1.9,12.7,1.9c4.1,0,8.9-0.1,12.7-1.9c-0.7-9.8-0.9-18.2-1.1-27.3c0-1.4,0-2.3,0.3-3.7
		c0.2-1.2,0.5-2.4,0.5-3.5c0-1.1-0.8-2.6-1.8-4.2c-0.9-1.4-2.1-2.8-3.1-4C45.1,15.9,42.4,16.8,39.7,16.8"/>
</g>
</svg>
