<?xml version="1.0" encoding="utf-8"?>
<!-- Generator: Adobe Illustrator 16.0.4, SVG Export Plug-In . SVG Version: 6.00 Build 0)  -->
<!DOCTYPE svg PUBLIC "-//W3C//DTD SVG 1.1//EN" "http://www.w3.org/Graphics/SVG/1.1/DTD/svg11.dtd">
<svg version="1.1" id="Layer_1" xmlns="http://www.w3.org/2000/svg" xmlns:xlink="http://www.w3.org/1999/xlink" x="0px" y="0px"
	 width="74px" height="65.7px" viewBox="0 0 74 65.7" style="enable-background:new 0 0 74 65.7;" xml:space="preserve">
<style type="text/css">
<![CDATA[
	.st0{fill:#175A9D;}
]]>
</style>
<path class="st0" d="M40.3,18.3c0-0.1-0.1-0.1-0.1-0.1c0,0,0,0,0,0c-1.6-2.2-3.2-3.6-4.6-3.6c-1.6,0-3.3,1.6-4.8,3.7
	c0,0,0,0-0.1,0.1c0,0,0,0,0,0.1c-0.9,1.3-1.8,2.8-2.5,4.3c-0.2,0.4-0.4,0.8-0.5,1.2c0,0,0,0,0,0c0,0,0,0,0,0.1
	c-0.8,1.8-1.4,3.6-1.9,5.5c0,0,0,0.1,0,0.2c-0.5,1.9-0.9,3.8-1.2,5.7c0,0,0,0.1,0,0.1c-0.1,1.2-0.2,2.4-0.2,3.5c0,1,0,2,0.1,3
	c0,0,0,0.1,0,0.1c0.8,8.3,4.7,13,11.2,13c4.1,0,11-2.1,11-16.1C46.5,31.3,43.5,23,40.3,18.3z M35.5,15.4c1.1,0,2.4,1.1,3.7,3
	c-1.7,1.1-5.8,0.8-7.5,0C33,16.5,34.4,15.4,35.5,15.4z M31.1,19.1c1.1,0.5,2.8,0.9,4.6,0.9c1.5,0,3-0.3,4-0.9
	c0.9,1.3,1.7,2.9,2.5,4.7c-2.1,0.9-4.5,1.4-6.9,1.4c-2.4,0-4.7-0.5-6.8-1.4C29.3,22,30.2,20.4,31.1,19.1z M28.2,24.6
	c2.2,0.9,4.6,1.5,7.2,1.5c2.5,0,5-0.5,7.2-1.5c0.6,1.5,1.2,3.1,1.6,4.7c-2.5,1.6-5.6,2.5-8.9,2.5c-3.2,0-6.3-0.9-8.8-2.4
	C27,27.7,27.5,26.1,28.2,24.6z M26.3,30.2c2.6,1.6,5.8,2.4,9.1,2.4c3.3,0,6.5-0.9,9.1-2.5c0.4,1.6,0.7,3.2,0.9,4.9
	c-2.7,2.1-6.2,3.3-10,3.3c-3.8,0-7.3-1.2-10-3.3C25.5,33.4,25.8,31.8,26.3,30.2z M35.5,54c-5.7,0-9.3-4-10.2-11.2
	c2.8,2,6.3,3.1,10,3.1c3.8,0,7.3-1.1,10.1-3.1C44.5,50.1,41.1,54,35.5,54z M35.3,45c-3.9,0-7.5-1.2-10.2-3.4
	c-0.1-0.9-0.1-1.8-0.1-2.7c0-0.9,0-1.8,0.1-2.7c2.8,2,6.4,3.2,10.1,3.2c3.8,0,7.4-1.1,10.2-3.1c0.1,0.9,0.1,1.8,0.1,2.7
	c0,1,0,1.9-0.1,2.7C42.8,43.8,39.2,45,35.3,45z"/>
</svg>
