<?xml version="1.0" encoding="utf-8"?>
<!-- Generator: Adobe Illustrator 16.0.4, SVG Export Plug-In . SVG Version: 6.00 Build 0)  -->
<!DOCTYPE svg PUBLIC "-//W3C//DTD SVG 1.1//EN" "http://www.w3.org/Graphics/SVG/1.1/DTD/svg11.dtd">
<svg version="1.1" id="Layer_1" xmlns="http://www.w3.org/2000/svg" xmlns:xlink="http://www.w3.org/1999/xlink" x="0px" y="0px"
	 width="74px" height="65.7px" viewBox="0 0 74 65.7" style="enable-background:new 0 0 74 65.7;" xml:space="preserve">
<style type="text/css">
<![CDATA[
	.st0{fill:#175A9D;}
]]>
</style>
<g>
	<polygon class="st0" points="44,19.2 44,19.2 44,19.2 	"/>
</g>
<path class="st0" d="M60.8,23L60.8,23L60.8,23z"/>
<g id="Element_17_">
	<path class="st0" d="M56.4,17.1h-3.2v-0.4c0-1.8-1.5-3.2-3.2-3.2H26c-1.8,0-3.2,1.5-3.2,3.2v0.4h-3.2c-0.5,0-1,0.4-1,1
		c0,0.5,0.4,1,1,1h3.2v21.3c0,0.5,0.4,1,1,1h3.6v10c0,0.5,0.4,1,1,1h23.9c0.5,0,1-0.4,1-1V19h3.2c0.5,0,1-0.4,1-1
		C57.4,17.5,56.9,17.1,56.4,17.1z M51.2,17.1h-2.6v-0.4c0-0.7,0.6-1.3,1.3-1.3c0.7,0,1.3,0.6,1.3,1.3V17.1z M24.7,34.8h22v1.3h-22
		V34.8z M26,15.4h21c-0.2,0.4-0.3,0.8-0.3,1.3v16.2h-22V16.7C24.7,16,25.3,15.4,26,15.4z M24.7,39.4v-1.3h22v1.3H24.7z M51.2,50.4
		h-22v-9.1h18.4c0.5,0,1-0.4,1-1V19h2.6V50.4z"/>
</g>
</svg>
