<?xml version="1.0" encoding="utf-8"?>
<!-- Generator: Adobe Illustrator 16.0.4, SVG Export Plug-In . SVG Version: 6.00 Build 0)  -->
<!DOCTYPE svg PUBLIC "-//W3C//DTD SVG 1.1//EN" "http://www.w3.org/Graphics/SVG/1.1/DTD/svg11.dtd">
<svg version="1.1" id="Layer_1" xmlns="http://www.w3.org/2000/svg" xmlns:xlink="http://www.w3.org/1999/xlink" x="0px" y="0px"
	 width="74px" height="65.7px" viewBox="0 0 74 65.7" style="enable-background:new 0 0 74 65.7;" xml:space="preserve">
<style type="text/css">
<![CDATA[
	.st0{fill:#175A9D;stroke:#175A9D;stroke-width:0.5;}
]]>
</style>
<path class="st0" d="M49.5,26.8c0,10.2,0,20.4,0,30.5c0,0.3,0.6,0.3,0.6,0c0-10.2,0-20.4,0-30.5C50.1,26.5,49.5,26.5,49.5,26.8
	L49.5,26.8z"/>
<path class="st0" d="M50,39.8c0.2-2.1,2-3.9,3.4-5.3c0.2-0.2-0.1-0.5-0.3-0.3c-1.5,1.5-3.3,3.4-3.5,5.6C49.5,40.1,49.9,40.1,50,39.8
	L50,39.8z"/>
<path class="st0" d="M53.5,34.4c0.6-0.8,1-1.8,0.3-2.7c-0.1-0.1-0.2-0.1-0.3,0c-0.7,0.8-0.6,1.7-0.4,2.7c0,0.3,0.5,0.2,0.4-0.1
	c-0.1-0.8-0.2-1.7,0.3-2.3c-0.1,0-0.2,0-0.3,0c0.6,0.6,0.1,1.5-0.3,2.2C52.9,34.4,53.3,34.6,53.5,34.4L53.5,34.4z"/>
<path class="st0" d="M49.9,43.5c-1.3-1.5-2.5-3-3.7-4.5c-0.2-0.2-0.5,0.1-0.3,0.3c1.2,1.5,2.5,3,3.7,4.5
	C49.8,44,50.1,43.7,49.9,43.5L49.9,43.5z"/>
<path class="st0" d="M46.2,39.3c0.3-1.2-0.4-2.2-1.5-2.8c-0.1,0-0.2,0-0.3,0c-1,1.1,0.6,2.3,1.4,2.9c0.2,0.2,0.4-0.2,0.2-0.4
	c-0.6-0.4-2.1-1.4-1.3-2.2c-0.1,0-0.2,0-0.3,0c0.9,0.4,1.5,1.2,1.3,2.3C45.8,39.4,46.2,39.5,46.2,39.3L46.2,39.3z"/>
<path class="st0" d="M50.1,26.5c-0.7,0.1-2.4,0-2.3-1.1c0-0.3-0.4-0.3-0.4,0c0,1.4,1.8,1.6,2.8,1.5C50.4,26.9,50.4,26.5,50.1,26.5
	L50.1,26.5z"/>
<path class="st0" d="M47.7,25.3c0-0.4,0.7-0.8,1-1c0.4-0.2,0.8-0.4,1.1-0.7c0.2-0.2-0.1-0.5-0.3-0.3c-0.4,0.4-1,0.6-1.4,1
	c-0.3,0.3-0.8,0.6-0.8,1.1C47.3,25.6,47.8,25.6,47.7,25.3L47.7,25.3z"/>
<path class="st0" d="M49.6,23.5c0.2,0.4,0.7,0.5,1.1,0.7c0.3,0.1,1.1,0.4,0.8,0.9c-0.1,0.2,0.2,0.5,0.4,0.2c0.3-0.5,0.1-0.9-0.4-1.2
	c-0.3-0.2-0.5-0.3-0.8-0.4c-0.2-0.1-0.5-0.2-0.7-0.4C49.8,23.1,49.4,23.3,49.6,23.5L49.6,23.5z"/>
<path class="st0" d="M50.3,27c0.6-0.1,2.1-1.1,1.5-1.8c-0.3-0.4-1.3-0.4-1.8-0.4c-0.9-0.1-1.6,0.1-2.4,0.4c-0.3,0.1-0.2,0.5,0.1,0.4
	c0.9-0.3,1.7-0.4,2.7-0.4c0.2,0,0.5,0.1,0.7,0.1c0.5,0.1,0.2,0.4,0,0.6c-0.3,0.3-0.6,0.5-1,0.6C49.9,26.6,50,27,50.3,27L50.3,27z"/>
<path class="st0" d="M49.9,54.8c1.1-1.9,3.3-3.5,3.6-5.7c0-0.3-0.4-0.4-0.4-0.1c-0.3,2.2-2.5,3.7-3.6,5.6
	C49.4,54.8,49.8,55,49.9,54.8L49.9,54.8z"/>
<path class="st0" d="M50.2,54.3c0-1,0.7-2,1.3-2.8c0.6-0.9,1.3-1.7,2.1-2.4c0.2-0.2-0.1-0.5-0.3-0.3c-0.8,0.7-1.5,1.6-2.1,2.5
	c-0.6,0.8-1.4,1.9-1.3,3C49.7,54.6,50.2,54.6,50.2,54.3L50.2,54.3z"/>
<path class="st0" d="M49.8,49.1c-1.2-1.3-2.5-2.3-4.1-3c-0.3-0.1-0.4,0.3-0.1,0.4c1.6,0.6,2.8,1.6,3.9,2.9
	C49.7,49.6,50,49.3,49.8,49.1L49.8,49.1z"/>
<path class="st0" d="M45.5,46.5c1.1,1.3,2.6,2.3,4.1,2.9c0.3,0.1,0.4-0.3,0.1-0.4c-1.5-0.6-2.9-1.6-3.9-2.8
	C45.6,46,45.3,46.3,45.5,46.5L45.5,46.5z"/>
<path class="st0" d="M36.8,12.8c-0.6,2.6-0.2,5.3-0.2,7.9c0,3,0.1,5.9,0.2,8.9c0.1,5.9,0.6,11.7,0.7,17.6c0,0.3,0.4,0.3,0.4,0
	c0-5.7-0.6-11.4-0.7-17.1c0-2.8-0.1-5.6-0.2-8.4c-0.1-2.9-0.5-6.1,0.2-8.9C37.3,12.6,36.9,12.5,36.8,12.8L36.8,12.8z"/>
<path class="st0" d="M37.3,26.4c0.9-1.5,1.6-3.2,2.3-4.8c0.6-1.3,1.6-2.4,2.3-3.7c0.1-0.2-0.2-0.5-0.4-0.2c-0.7,1.3-1.6,2.3-2.3,3.7
	c-0.8,1.6-1.4,3.2-2.3,4.8C36.8,26.4,37.1,26.6,37.3,26.4L37.3,26.4z"/>
<path class="st0" d="M37,32.5c-2.2-3.3-4.5-6.8-6-10.5c-0.1-0.3-0.5-0.1-0.4,0.1c1.5,3.7,3.8,7.3,6,10.6
	C36.8,32.9,37.1,32.7,37,32.5L37,32.5z"/>
<path class="st0" d="M37.2,12.3c-0.5,0-0.8-0.2-1.2-0.5c-0.3-0.3-0.4-0.7-0.1-1c0.2-0.2-0.1-0.5-0.3-0.3c-0.4,0.4-0.4,1-0.1,1.4
	c0.3,0.5,1,0.8,1.6,0.8C37.5,12.8,37.5,12.3,37.2,12.3L37.2,12.3z"/>
<path class="st0" d="M35.8,10.9c1,0.6,2,0.9,3,0.4c0.3-0.1,0-0.5-0.2-0.4c-0.9,0.4-1.8,0.1-2.6-0.4C35.7,10.4,35.5,10.7,35.8,10.9
	L35.8,10.9z"/>
<path class="st0" d="M38.5,11.1c0,0.4-0.1,0.8-0.3,1c-0.2,0.2-0.7,0.2-1,0.2c-0.3,0-0.3,0.4,0,0.4c0.4,0,0.9,0,1.2-0.3
	c0.4-0.3,0.5-0.9,0.5-1.4C39,10.8,38.6,10.8,38.5,11.1L38.5,11.1z"/>
<path class="st0" d="M36.2,10.9l-0.5-0.3c0.4-0.7,1.1-1.1,1.8-1.5c0.2-0.1,0.3-0.2,0.5-0.3l0.3,0.5c-0.1,0.1-0.3,0.2-0.5,0.3
	C37.2,10,36.5,10.4,36.2,10.9z"/>
<path class="st0" d="M38.4,11.1c0-0.3-0.2-0.5-0.3-0.7c-0.2-0.3-0.5-0.7-0.4-1.2l0.6,0.1c0,0.3,0.1,0.6,0.3,0.8
	c0.2,0.3,0.4,0.6,0.4,1L38.4,11.1z"/>
<path class="st0" d="M29.5,22.1c1,0.4,2.2-0.9,2.2-1.9c0-0.3-0.4-0.3-0.4,0c0,0.7-1,1.7-1.7,1.4C29.3,21.6,29.2,22,29.5,22.1
	L29.5,22.1z"/>
<path class="st0" d="M31.3,19.8c-1.2,0-3,0.7-2.3,2.2c0.1,0.3,0.5,0,0.4-0.2c-0.5-1.1,1.1-1.5,1.9-1.5
	C31.5,20.3,31.5,19.8,31.3,19.8L31.3,19.8z"/>
<path class="st0" d="M29.2,21.2C28.9,20.9,29,20.3,29,20c0-0.4,0.1-0.8,0.1-1.2c0-0.3-0.4-0.3-0.4,0c0,0.8-0.5,2.2,0.3,2.8
	C29.2,21.7,29.4,21.3,29.2,21.2L29.2,21.2z"/>
<path class="st0" d="M28.8,18.8c1.1,0,1.9,0.6,2.8,1.3c0.2,0.2,0.4-0.2,0.2-0.4c-0.4-0.3-0.8-0.7-1.2-0.9c-0.5-0.2-1.1-0.4-1.7-0.5
	C28.5,18.4,28.5,18.8,28.8,18.8L28.8,18.8z"/>
<path class="st0" d="M41,16.7c-0.3,0.8,0.9,1.7,1.5,1.9c0.3,0.1,0.4-0.4,0.1-0.4c-0.4-0.1-1.4-0.8-1.2-1.3
	C41.5,16.5,41.1,16.4,41,16.7L41,16.7z"/>
<path class="st0" d="M41.3,16.9c0.8-0.5,2.1,0.5,1.1,1.2c-0.2,0.2,0,0.5,0.2,0.4c0.6-0.4,0.7-1.1,0.2-1.7c-0.4-0.5-1.3-0.7-1.8-0.3
	C40.9,16.7,41.1,17.1,41.3,16.9L41.3,16.9z"/>
<path class="st0" d="M41.4,16.9c0.5-0.6,1.3-0.3,2-0.6c0.3-0.1,0.1-0.5-0.1-0.4c-0.7,0.3-1.6,0-2.2,0.7
	C40.9,16.8,41.2,17.2,41.4,16.9L41.4,16.9z"/>
<path class="st0" d="M43.2,16c-0.2,0.2-0.2,0.5-0.3,0.8c-0.1,0.4-0.1,0.9-0.4,1.2c-0.2,0.2,0.1,0.5,0.3,0.3c0.3-0.3,0.4-0.6,0.4-1
	c0-0.3,0-0.8,0.2-1C43.7,16.1,43.4,15.8,43.2,16L43.2,16z"/>
<path class="st0" d="M37,20.2c-0.4-0.8-1-1.6-1.6-2.3c-0.2-0.2-0.5,0.1-0.3,0.3c0.6,0.7,1.1,1.4,1.5,2.2
	C36.8,20.6,37.1,20.4,37,20.2L37,20.2z"/>
<path class="st0" d="M35.5,18.1c0-0.3-0.2-0.8-0.3-1c-0.2-0.3-0.4-0.8-0.8-0.7c-0.5,0.1-0.2,0.7-0.1,1c0.2,0.4,0.6,0.7,0.9,1
	c0.2,0.2,0.4-0.2,0.2-0.4c-0.2-0.2-0.4-0.4-0.6-0.6c-0.1-0.1-0.2-0.2-0.3-0.4c0-0.1-0.1-0.1-0.1-0.2c0-0.1,0,0-0.1,0
	c0.2,0,0.4,0.5,0.4,0.6c0.1,0.2,0.2,0.5,0.2,0.7C35.1,18.3,35.5,18.3,35.5,18.1L35.5,18.1z"/>
<path class="st0" d="M37.5,38c0.5-1,1.2-1.8,1.8-2.7c0.7-0.9,1.3-2,2.4-2.6c0.2-0.1,0-0.5-0.2-0.4c-1,0.5-1.6,1.4-2.2,2.3
	c-0.7,1-1.6,2-2.1,3.1C37,38.1,37.4,38.3,37.5,38L37.5,38z"/>
<path class="st0" d="M37.4,38.1c2-1.3,3.3-3.3,4.3-5.4c0.1-0.2-0.2-0.5-0.4-0.2c-1,2-2.2,4-4.2,5.3C37,37.9,37.2,38.3,37.4,38.1
	L37.4,38.1z"/>
<path class="st0" d="M37.4,41.2c-1-0.3-1.8-1.2-2.6-2c-0.8-0.8-1.7-1.4-1.6-2.6c0-0.3-0.4-0.3-0.4,0c-0.1,1.3,0.7,1.9,1.6,2.7
	c0.9,0.9,1.7,1.9,2.9,2.3C37.5,41.7,37.6,41.2,37.4,41.2L37.4,41.2z"/>
<path class="st0" d="M32.9,36.8c1.7,1.3,2.9,3.1,4.3,4.7c0.2,0.2,0.5-0.1,0.3-0.3c-1.4-1.6-2.6-3.5-4.4-4.8
	C32.9,36.3,32.7,36.6,32.9,36.8L32.9,36.8z"/>
<path class="st0" d="M37.5,47.3c0,0,0.1,6.1,0.1,9.1c0,0.3,0.4,0.3,0.4,0c0-3-0.1-5.9-0.1-9.1C37.9,47,37.5,47,37.5,47.3
	C37.5,47.3,37.5,47,37.5,47.3z"/>
<path class="st0" d="M37.9,52.3c0.9-2.1,2.9-3.6,4.6-5.1c0.2-0.2-0.1-0.5-0.3-0.3c-1.7,1.5-3.7,3-4.6,5.2
	C37.4,52.4,37.8,52.6,37.9,52.3L37.9,52.3z"/>
<path class="st0" d="M42.4,47.4c0.4,0,0.8-0.2,1-0.5c0.2-0.3,0.2-0.8-0.1-1c-0.5-0.3-1,0.9-1.1,1.2c-0.1,0.3,0.4,0.4,0.4,0.1
	c0-0.2,0.1-0.4,0.2-0.5c0.1-0.1,0.2-0.4,0.3-0.4c0,0-0.1,0-0.1,0c0,0,0,0.1,0,0.1c0,0.1,0,0.2-0.1,0.3c-0.2,0.2-0.5,0.3-0.7,0.3
	C42,47,42.1,47.4,42.4,47.4L42.4,47.4z"/>
<g>
	<path class="st0" d="M25.5,30.6c-0.6,4.1,0,8.3,0,12.4c0,4.6-0.4,9.2-0.7,13.7c0,0.3,0.4,0.3,0.4,0c0.3-4.2,0.6-8.4,0.7-12.6
		c0.1-4.5-0.7-9,0-13.4C26,30.5,25.6,30.4,25.5,30.6L25.5,30.6z"/>
	<path class="st0" d="M25.1,52.8c-1-2-2.5-3.5-4.7-4c-0.1,0-0.3,0.1-0.3,0.2c-0.1,0.9,1,1.7,1.7,2.2c1.1,0.8,2.2,1.4,3.3,2.2
		c0.2,0.2,0.4-0.2,0.2-0.4c-0.8-0.6-1.7-1.1-2.6-1.7c-0.7-0.4-2.3-1.4-2.2-2.4c-0.1,0.1-0.2,0.1-0.3,0.2c2.1,0.6,3.5,1.9,4.4,3.8
		C24.9,53.3,25.2,53.1,25.1,52.8L25.1,52.8z"/>
	<path class="st0" d="M25.6,50.6c1.6-1.5,4.9-1.9,5.5-4.2c0-0.1,0-0.2-0.1-0.2c-0.9-0.5-1.9,0.3-2.6,0.8c-1,0.8-2,1.8-2.6,2.9
		c-0.1,0.2,0.2,0.5,0.4,0.2c0.5-0.8,1.1-1.5,1.8-2.1c0.4-0.4,0.8-0.7,1.2-1c0.1-0.1,1.4-0.6,1.4-0.4c-0.3,1.1-1.8,1.8-2.7,2.2
		c-0.9,0.5-1.9,0.9-2.6,1.6C25.1,50.5,25.4,50.8,25.6,50.6L25.6,50.6z"/>
	<path class="st0" d="M25.9,41.9c1.6-1.5,2.7-3.5,4.3-5c0.2-0.2-0.1-0.5-0.3-0.3c-1.6,1.5-2.7,3.5-4.3,5
		C25.4,41.7,25.7,42,25.9,41.9L25.9,41.9z"/>
	<path class="st0" d="M30.2,36.9c0.3-0.3,0.6-0.6,0.6-1c0-0.3-0.1-0.5-0.4-0.6c-0.2-0.1-0.5,0-0.7,0.2c-0.3,0.3-0.3,0.7-0.3,1
		c0,0.3,0.5,0.3,0.4,0c0-0.1,0-0.3,0-0.4c0-0.1,0-0.1,0-0.1c0,0,0,0,0-0.1c0,0,0,0,0,0c0,0,0,0,0,0c0,0,0,0,0.1-0.1c0,0,0,0,0,0
		c0,0,0,0,0.1,0c-0.1,0,0,0,0,0c0,0,0.1,0,0,0c0,0,0,0,0.1,0c0,0,0.1,0,0,0c0,0,0,0,0.1,0c0,0,0,0,0,0c0,0,0,0,0,0c-0.1,0,0,0,0,0
		c0,0,0,0,0,0c0,0,0,0.1,0,0c0,0,0,0,0,0.1c0,0,0,0,0,0c0,0,0,0,0,0.1c0,0,0,0,0,0c0,0,0,0.1,0,0.1c0,0-0.1,0.1-0.1,0.2
		c-0.1,0.2-0.2,0.3-0.4,0.4C29.7,36.8,30,37.1,30.2,36.9L30.2,36.9z"/>
	<path class="st0" d="M25.9,45.8c-0.4-0.6-1.1-1-1.6-1.5c-0.8-0.6-1.1-1.6-1.8-2.4c-0.2-0.2-0.5,0.1-0.3,0.3
		c0.6,0.7,0.9,1.5,1.5,2.1c0.6,0.6,1.4,1,1.8,1.6C25.6,46.3,26,46.1,25.9,45.8L25.9,45.8z"/>
	<path class="st0" d="M22.5,42c0-0.5-0.1-2-0.9-1.8c-0.5,0.1-0.7,0.6-0.6,1c0.1,0.5,0.6,0.9,1,1.2c0.2,0.2,0.4-0.2,0.2-0.4
		c-0.3-0.2-0.5-0.4-0.7-0.7c-0.1-0.1-0.1-0.3-0.1-0.5c0-0.1,0.2-0.3,0.3-0.3c0.2,0,0.2,0.5,0.3,0.6c0.1,0.2,0.1,0.5,0.1,0.8
		C22.1,42.3,22.5,42.3,22.5,42L22.5,42z"/>
	<path class="st0" d="M24.5,30.4c0.4,0.4,0.9,0.7,1.5,0.5c0.6-0.2,0.9-0.8,1.1-1.3c0.1-0.3-0.3-0.4-0.4-0.1c-0.1,0.4-0.3,0.8-0.6,1
		c-0.4,0.3-0.9-0.1-1.2-0.3C24.6,29.9,24.3,30.2,24.5,30.4L24.5,30.4z"/>
	<path class="st0" d="M24.8,30.1c-0.1-0.1-0.4-0.4-0.3-0.5c0.2-0.1,0.5-0.1,0.7-0.1c0.6,0,1.1,0.1,1.6,0.2c0.3,0,0.3-0.4,0-0.4
		c-0.7-0.1-1.5-0.2-2.2-0.1c-0.3,0-0.5,0.1-0.6,0.4c-0.1,0.3,0.3,0.7,0.5,0.9C24.7,30.6,25,30.3,24.8,30.1L24.8,30.1z"/>
	<path class="st0" d="M24.5,29.7c0-0.8,1-1.1,1.1-1.7c-0.1,0-0.3,0-0.4,0c0.1,0.3,0.4,0.5,0.7,0.7c0.2,0.2,1,0.4,0.8,0.8
		c-0.1,0.2,0.2,0.5,0.4,0.2c0.5-1-1.2-1.2-1.4-1.9c-0.1-0.2-0.4-0.2-0.4,0c-0.1,0.5-0.4,0.6-0.8,0.9c-0.3,0.3-0.4,0.6-0.4,1
		C24.1,29.9,24.5,30,24.5,29.7L24.5,29.7z"/>
</g>
</svg>
