<?xml version="1.0" encoding="utf-8"?>
<!-- Generator: Adobe Illustrator 16.0.4, SVG Export Plug-In . SVG Version: 6.00 Build 0)  -->
<!DOCTYPE svg PUBLIC "-//W3C//DTD SVG 1.1//EN" "http://www.w3.org/Graphics/SVG/1.1/DTD/svg11.dtd">
<svg version="1.1" id="Layer_1" xmlns="http://www.w3.org/2000/svg" xmlns:xlink="http://www.w3.org/1999/xlink" x="0px" y="0px"
	 width="74px" height="65.7px" viewBox="0 0 74 65.7" style="enable-background:new 0 0 74 65.7;" xml:space="preserve">
<style type="text/css">
<![CDATA[
	.st0{fill:#175A9D;}
	.st1{fill:none;stroke:#175A9D;stroke-width:0.3;stroke-miterlimit:10;}
]]>
</style>
<g>
	<path class="st0" d="M61.8,57.9c0,0.6-0.5,1.1-1.1,1.1h-17V24.8l2.7,2.8L53.8,17l8,2.3V57.9z M42.8,59h-7.3V23.8l3.7-3.7l3.7,3.7
		V59z M34.5,59h-17c-0.6,0-1.1-0.5-1.1-1.1V19.3l8-2.3l7.3,10.5l2.7-2.8V59z M28.6,9.7c0.2-0.3,0.6-0.5,1-0.5h0.1
		c-0.1,0.2-0.1,0.5,0.1,0.7l8.5,9.2l-6.3,6.5l-6.6-9.5L28.6,9.7z M47.4,9.3l-8.3,9l-8.3-9H47.4z M48.5,9.3L48.5,9.3
		c0.4,0,0.8,0.2,1,0.5l3.4,6.4l-6.6,9.5l-6.3-6.5l8.5-9.2C48.6,9.7,48.6,9.5,48.5,9.3 M54.1,15.8l-3.5-6.7L50.6,9
		c-0.5-0.6-1.2-1-2-1h-19c-0.8,0-1.5,0.4-2,1l-3.6,6.8l-8.9,2.6v39.5c0,1.3,1.1,2.3,2.3,2.3h43.2c1.3,0,2.3-1.1,2.3-2.3V18.4
		L54.1,15.8z"/>
	<path class="st1" d="M61.8,57.9c0,0.6-0.5,1.1-1.1,1.1h-17V24.8l2.7,2.8L53.8,17l8,2.3V57.9z M42.8,59h-7.3V23.8l3.7-3.7l3.7,3.7
		V59z M34.5,59h-17c-0.6,0-1.1-0.5-1.1-1.1V19.3l8-2.3l7.3,10.5l2.7-2.8V59z M28.6,9.7c0.2-0.3,0.6-0.5,1-0.5h0.1
		c-0.1,0.2-0.1,0.5,0.1,0.7l8.5,9.2l-6.3,6.5l-6.6-9.5L28.6,9.7z M47.4,9.3l-8.3,9l-8.3-9H47.4z M48.5,9.3L48.5,9.3
		c0.4,0,0.8,0.2,1,0.5l3.4,6.4l-6.6,9.5l-6.3-6.5l8.5-9.2C48.6,9.7,48.6,9.5,48.5,9.3z M54.1,15.8l-3.5-6.7L50.6,9
		c-0.5-0.6-1.2-1-2-1h-19c-0.8,0-1.5,0.4-2,1l-3.6,6.8l-8.9,2.6v39.5c0,1.3,1.1,2.3,2.3,2.3h43.2c1.3,0,2.3-1.1,2.3-2.3V18.4
		L54.1,15.8z"/>
	<path class="st0" d="M37.5,30.1c0,0.9,0.7,1.6,1.6,1.6c0.9,0,1.6-0.7,1.6-1.6c0-0.9-0.7-1.6-1.6-1.6C38.2,28.5,37.5,29.2,37.5,30.1
		"/>
	<circle class="st1" cx="39.1" cy="30.1" r="1.6"/>
	<path class="st0" d="M39.1,38.7c-0.9,0-1.6,0.7-1.6,1.6c0,0.9,0.7,1.6,1.6,1.6c0.9,0,1.6-0.7,1.6-1.6C40.7,39.4,40,38.7,39.1,38.7"
		/>
	<circle class="st1" cx="39.1" cy="40.3" r="1.6"/>
	<path class="st0" d="M39.1,48.9c-0.9,0-1.6,0.7-1.6,1.6c0,0.9,0.7,1.6,1.6,1.6c0.9,0,1.6-0.7,1.6-1.6C40.7,49.6,40,48.9,39.1,48.9"
		/>
	<circle class="st1" cx="39.1" cy="50.5" r="1.6"/>
</g>
<path class="st0" d="M48.7,38h8.9v4.9l-4.5,1.9l-4.5-1.9V38z M48.7,35.2h8.9V37h-8.9V35.2z M47.5,43.7l5.7,2.4l5.7-2.4V34H47.5V43.7
	z"/>
<path class="st1" d="M48.7,38h8.9v4.9l-4.5,1.9l-4.5-1.9V38z M48.7,35.2h8.9V37h-8.9V35.2z M47.5,43.7l5.7,2.4l5.7-2.4V34H47.5V43.7
	z"/>
</svg>
