<?xml version="1.0" encoding="utf-8"?>
<!-- Generator: Adobe Illustrator 16.0.4, SVG Export Plug-In . SVG Version: 6.00 Build 0)  -->
<!DOCTYPE svg PUBLIC "-//W3C//DTD SVG 1.1//EN" "http://www.w3.org/Graphics/SVG/1.1/DTD/svg11.dtd">
<svg version="1.1" id="Layer_1" xmlns="http://www.w3.org/2000/svg" xmlns:xlink="http://www.w3.org/1999/xlink" x="0px" y="0px"
	 width="74px" height="65.7px" viewBox="0 0 74 65.7" style="enable-background:new 0 0 74 65.7;" xml:space="preserve">
<style type="text/css">
<![CDATA[
	.st0{fill:#175A9D;}
]]>
</style>
<g>
	<path class="st0" d="M58.8,11.4c0-0.3-0.3-0.6-0.7-0.5C39.3,13.2,37.4,23,35.6,32.5c-1.6,8.4-3.1,16.3-17.2,18.1
		c-0.3,0-0.6,0.3-0.5,0.7c0,0.3,0.3,0.5,0.6,0.5c0,0,0.1,0,0.1,0c14.9-1.9,16.6-10.6,18.3-19.1c1.7-9.1,3.6-18.4,21.5-20.7
		C58.6,12,58.8,11.7,58.8,11.4z"/>
	<path class="st0" d="M63.3,37.4l-1.3-6c-0.1-0.3-0.4-0.5-0.7-0.5c-0.3,0.1-0.5,0.4-0.5,0.7l0.9,4L47.2,21.1c-0.2-0.2-0.6-0.2-0.9,0
		c-0.2,0.2-0.2,0.6,0,0.9l14.5,14.5l-4-0.9c-0.3-0.1-0.7,0.1-0.7,0.5c-0.1,0.3,0.1,0.7,0.5,0.7l6,1.3c0,0,0.1,0,0.1,0
		c0.2,0,0.3-0.1,0.4-0.2C63.3,37.8,63.3,37.6,63.3,37.4z"/>
	<path class="st0" d="M12.2,27.5L26.6,42c0.1,0.1,0.3,0.2,0.4,0.2s0.3-0.1,0.4-0.2c0.2-0.2,0.2-0.6,0-0.9L13,26.7l4,0.9
		c0.3,0.1,0.7-0.1,0.7-0.5c0.1-0.3-0.1-0.7-0.5-0.7l-6-1.3c-0.2,0-0.4,0-0.6,0.2c-0.1,0.1-0.2,0.4-0.2,0.6l1.3,6
		c0.1,0.3,0.3,0.5,0.6,0.5c0,0,0.1,0,0.1,0c0.3-0.1,0.5-0.4,0.5-0.7L12.2,27.5z"/>
</g>
</svg>
