<?xml version="1.0" encoding="utf-8"?>
<!-- Generator: Adobe Illustrator 16.0.4, SVG Export Plug-In . SVG Version: 6.00 Build 0)  -->
<!DOCTYPE svg PUBLIC "-//W3C//DTD SVG 1.1//EN" "http://www.w3.org/Graphics/SVG/1.1/DTD/svg11.dtd">
<svg version="1.1" id="Layer_1" xmlns="http://www.w3.org/2000/svg" xmlns:xlink="http://www.w3.org/1999/xlink" x="0px" y="0px"
	 width="74px" height="65.7px" viewBox="0 0 74 65.7" style="enable-background:new 0 0 74 65.7;" xml:space="preserve">
<style type="text/css">
<![CDATA[
	.st0{fill:#175A9D;}
]]>
</style>
<g>
	<polygon class="st0" points="44,19.2 44,19.2 44,19.2 	"/>
</g>
<path class="st0" d="M60.8,23L60.8,23L60.8,23z"/>
<g>
	<path class="st0" d="M61.7,23.1C61.5,23,61.2,23,61,23c0,0-0.1,0-0.1,0l-7.8,0.5l-0.4,0c-0.2-1.2-0.4-2.4-0.6-3.5
		c-0.4-1.8-1-3.6-1.7-5.2c-0.7-1.6-1.7-3.1-2.8-4.3c-0.4-0.4-0.9-0.8-1.5-1c-0.6-0.3-1.2-0.4-1.8-0.5c-0.3-0.1-0.7-0.1-1.1-0.2
		c-0.4-0.1-0.8-0.1-1.1-0.2c-0.2,0-0.4,0-0.5,0.1c-0.2,0.1-0.2,0.3-0.3,0.5c0,0,0,0.1,0,0.1c0,0.1,0,0.1,0,0.2c0,0,0,0.1,0,0.1
		c0,0,0,0,0,0c0,0.5-0.2,1-0.4,1.4c-0.2,0.3-0.4,0.6-0.6,0.8c-0.4,0.4-0.8,0.7-1.4,0.9c-0.5,0.2-1.1,0.3-1.7,0.3c0,0-0.1,0-0.1,0
		c-0.5,0-1-0.1-1.5-0.3c-0.7-0.3-1.3-0.7-1.8-1.2c-0.2-0.3-0.4-0.6-0.5-0.9c-0.1-0.3-0.2-0.7-0.2-1.1c0,0,0-0.1,0-0.1
		c0,0,0-0.1,0-0.2c0-0.2,0-0.4-0.2-0.6c-0.2-0.2-0.4-0.2-0.6-0.2c-0.1,0-0.2,0-0.4,0c-0.2,0-0.4,0-0.7,0c-0.3,0-0.5,0-0.8,0
		c-0.3,0-0.7,0-1.1,0.1c-0.6,0.1-1.2,0.2-1.8,0.5c-0.3,0.1-0.6,0.3-0.9,0.5c-0.3,0.2-0.5,0.5-0.8,0.8c-2.1,2.7-3.5,4.9-4.4,6.7
		c-0.8-1.1-1.8-2.3-3.3-3.6c0,0,0,0,0,0c-0.1-0.1-0.1-0.1-0.2-0.1c-0.1,0-0.2,0-0.3,0c-0.1,0-0.2,0-0.2,0c-0.1,0-0.2,0.1-0.2,0.1
		c0,0-0.1,0.1-0.1,0.1c-0.7,0.4-1.3,0.9-1.9,1.4c-0.6,0.5-1.1,1.1-1.6,1.6h0c0,0,0,0,0,0c0,0,0,0,0,0c0,0-0.1,0.1-0.1,0.2
		c0,0,0,0.1-0.1,0.2c0,0.1,0,0.1,0,0.2c0,0.1,0,0.1,0,0.2c0,0.1,0,0.1,0.1,0.2c0,0.1,0.1,0.1,0.1,0.1s0,0,0.1,0.1
		c1.4,1.6,2.5,3,3.4,4.2c0.7,0.9,1.3,1.8,1.7,2.6c0.4,0.6,0.7,1.1,1,1.5c0.2,0.3,0.4,0.6,0.6,0.9c0.1,0.2,0.3,0.4,0.4,0.6
		c0.2,0.3,0.4,0.5,0.7,0.6c0.1,0.1,0.3,0.2,0.4,0.2c0.1,0.1,0.3,0.1,0.5,0.1c0.1,0,0.3,0,0.4-0.1c0.1,0,0.2-0.1,0.3-0.1
		c0.2-0.1,0.4-0.2,0.5-0.4c0.3-0.3,0.6-0.6,0.9-1.1c0.5-0.7,1-1.5,1.7-2.6c0.4-0.7,0.9-1.5,1.5-2.5c0,1.2-0.1,2.5-0.2,3.9
		c-0.1,1.6-0.2,3.2-0.2,4.8c0,0.8,0,1.5,0.1,2.3c0.1,0.7,0.2,1.4,0.3,2c0,0,0,0.1,0,0.1c0,0,0,0,0,0.1c0,0,0,0,0,0.1c0,0,0,0,0,0.1
		c0,0,0,0.1,0.1,0.1c0,0,0,0.1,0.1,0.1c0,0,0.1,0.1,0.2,0.1c0.1,0,0.2,0.1,0.3,0.1c0.1,0,0.1,0,0.2,0c0,0,0,0,0,0
		c4.9,0.1,9.9,0.2,14.8,0.2v18.1c0,0.4,0.2,0.8,0.4,1.1c0.1,0.1,0.3,0.3,0.5,0.3c0.2,0.1,0.3,0.1,0.5,0.1v0.5c0,0,0,0.1,0,0.1
		c0,0.1,0,0.2,0,0.2c0,0.2,0,0.4,0.1,0.6c0,0.2,0.1,0.3,0.1,0.5c0,0.1,0.1,0.2,0.1,0.3c0,0.1,0.1,0.2,0.1,0.2c0,0.1,0.1,0.1,0.1,0.2
		c0,0,0.1,0.1,0.1,0.1c0.1,0.1,0.1,0.2,0.2,0.2c0.1,0,0.1,0.1,0.2,0.1c0.1,0,0.2,0.1,0.3,0h3c0.1,0,0.2,0,0.2,0s0.1-0.1,0.2-0.1
		c0.1-0.1,0.2-0.1,0.2-0.2c0-0.1,0.1-0.1,0.1-0.2c0.1-0.1,0.1-0.2,0.1-0.3c0.1-0.2,0.1-0.3,0.2-0.5c0.1-0.3,0.1-0.5,0.2-0.8
		c0-0.1,0-0.2,0-0.3c0-0.1,0-0.1,0-0.1c0,0,0-0.1,0-0.1v-0.5h0.1c0.2,0,0.4,0,0.6-0.1c0.5-0.2,0.9-0.7,0.9-1.3l0,0l1.2-17l1.3,17
		l0,0c0,0.4,0.2,0.7,0.5,1c0.1,0.1,0.3,0.2,0.5,0.3c0.2,0.1,0.4,0.1,0.6,0.1h0.1v0.5c0,0,0,0.1,0,0.1c0,0.1,0,0.2,0,0.2
		c0,0.2,0,0.4,0.1,0.6c0,0.2,0.1,0.3,0.1,0.5c0,0.1,0.1,0.2,0.1,0.3c0,0.1,0.1,0.2,0.1,0.2c0,0.1,0.1,0.1,0.1,0.2
		c0,0,0.1,0.1,0.1,0.1c0.1,0.1,0.1,0.2,0.2,0.2c0.1,0,0.1,0.1,0.2,0.1c0.1,0,0.2,0.1,0.3,0h3c0.1,0,0.2,0,0.2,0
		c0.1,0,0.1-0.1,0.2-0.1c0.1-0.1,0.2-0.1,0.2-0.2c0-0.1,0.1-0.1,0.1-0.2c0.1-0.1,0.1-0.2,0.1-0.3c0.1-0.2,0.1-0.3,0.2-0.5
		c0.1-0.3,0.1-0.5,0.2-0.8c0-0.1,0-0.2,0-0.3c0-0.1,0-0.1,0-0.1c0,0,0-0.1,0-0.1v-0.5c0.2,0,0.3-0.1,0.5-0.1
		c0.3-0.1,0.5-0.3,0.7-0.6c0.2-0.2,0.2-0.5,0.2-0.8V25c0-0.5-0.2-1-0.5-1.4C62.1,23.4,61.9,23.2,61.7,23.1 M60.1,55.3
		C60.1,55.3,60.1,55.3,60.1,55.3c0,0.1,0,0.1,0,0.2c0,0.1,0,0.3-0.1,0.5c0,0.1-0.1,0.3-0.1,0.4c0,0.1,0,0.2-0.1,0.2h-2.3
		c0-0.1,0-0.1-0.1-0.2c-0.1-0.2-0.1-0.5-0.1-0.7c0-0.1,0-0.2,0-0.3c0,0,0-0.1,0-0.1c0,0,0,0,0,0l0,0l0,0v-0.5h2.8V55.3z M25.1,22.7
		c-0.5,0.8-0.8,1.4-1.2,2c-0.3,0.4-0.5,0.8-0.7,1.1c-0.2,0.2-0.3,0.4-0.4,0.5c-0.2,0.2-0.3,0.4-0.5,0.4c-0.1,0-0.1,0.1-0.1,0.1
		c0,0,0,0,0,0s0,0,0,0c0,0,0,0-0.1-0.1c-0.1-0.1-0.2-0.2-0.4-0.3c-0.1-0.2-0.3-0.3-0.4-0.6c-0.3-0.4-0.6-0.9-1-1.5
		c-0.6-0.9-1.3-2-2.3-3.3c-0.9-1.2-1.9-2.5-3.2-4c0.4-0.4,0.8-0.8,1.2-1.2c0.5-0.4,0.9-0.8,1.4-1.1c1.7,1.6,2.7,2.9,3.4,4.1
		c0.1,0.2,0.4,0.4,0.6,0.4c0.3,0,0.5-0.2,0.6-0.4c0.8-1.8,2.2-4.3,4.8-7.6c0.2-0.3,0.5-0.5,0.7-0.7c0.4-0.3,0.8-0.4,1.3-0.5
		c0.5-0.1,0.9-0.1,1.4-0.1c0.3,0,0.5,0,0.8,0c0.2,0,0.4,0,0.6,0c0.1,0.6,0.2,1.2,0.5,1.7c0.2,0.5,0.5,0.9,0.9,1.2
		c0.5,0.5,1.1,0.9,1.8,1.2s1.4,0.4,2.2,0.5h0c0,0,0.1,0,0.1,0c0.7,0,1.3-0.1,2-0.3c0.9-0.3,1.8-0.9,2.4-1.6c0.3-0.4,0.6-0.8,0.8-1.3
		c0.1-0.4,0.3-0.8,0.3-1.2c0.1,0,0.3,0,0.4,0.1c0.4,0.1,0.8,0.1,1.1,0.2c0.5,0.1,1,0.2,1.4,0.4c0.4,0.2,0.8,0.5,1.1,0.7l0.5-0.5
		l-0.5,0.5c1,1.1,1.9,2.4,2.6,3.9c1,2.3,1.7,4.9,2.1,7.6c0.4,2.7,0.5,5.6,0.5,8.1c0,1.3,0,2.6-0.1,3.8c-0.1,0-0.3,0-0.4,0
		c-0.8,0-1.7,0-2.6-0.1c0-0.3,0-0.6,0-0.9c0-2.4-0.2-5.2-0.7-7.9c-0.2-1.3-0.6-2.7-1-3.9c-0.4-1.2-0.9-2.4-1.4-3.4
		c0,0-0.1-0.1-0.1-0.1c0,0,0-0.1-0.1-0.1c0-0.1-0.1-0.1-0.2-0.2c0,0-0.1-0.1-0.2-0.1c-0.1,0-0.2,0-0.2,0c-0.1,0-0.1,0-0.2,0
		c-0.1,0-0.1,0.1-0.2,0.1c-0.1,0.1-0.2,0.1-0.2,0.2c0,0.1-0.1,0.1-0.1,0.1c0,0.1,0,0.1-0.1,0.2c0,0.1,0,0.1,0,0.2c0,0,0,0.1,0,0.1
		c0,0,0,0,0,0c0,1.4,0.2,3.1,0.3,5c0.1,1.9,0.2,3.8,0.2,5.6c0,0.9,0,1.7-0.1,2.5c0,0.6-0.1,1.1-0.2,1.6c-5.1-0.1-10.2-0.2-15.4-0.2
		c-0.1-0.4-0.1-0.9-0.2-1.4c-0.1-0.7-0.1-1.4-0.1-2.1c0-1.5,0.1-3.1,0.2-4.7s0.2-3.1,0.2-4.5c0-0.5,0-1,0-1.4c0,0,0,0,0-0.1
		c0-0.1,0-0.1,0.1-0.2c0,0,0-0.1,0-0.1c0,0,0,0,0-0.1c0,0,0-0.1,0-0.1c0,0,0-0.1,0-0.1c0,0,0-0.1,0-0.1c0,0,0-0.1-0.1-0.1
		c0,0-0.1-0.1-0.1-0.1c-0.1-0.1-0.1-0.1-0.2-0.2c-0.1,0-0.2-0.1-0.3-0.1c-0.1,0-0.1,0-0.2,0c-0.1,0-0.1,0-0.2,0.1c0,0-0.1,0-0.1,0.1
		c0,0-0.1,0.1-0.1,0.1c0,0-0.1,0.1-0.1,0.1c0,0.1-0.1,0.1-0.2,0.2c-0.1,0.1-0.1,0.2-0.2,0.3C26.4,20.5,25.7,21.7,25.1,22.7
		 M48.8,55.3C48.8,55.3,48.8,55.3,48.8,55.3c0,0.1,0,0.1,0,0.2c0,0.1,0,0.3-0.1,0.5c0,0.1-0.1,0.3-0.1,0.4c0,0.1,0,0.2-0.1,0.2h-2.3
		c0-0.1,0-0.1-0.1-0.2c-0.1-0.2-0.1-0.5-0.1-0.7c0-0.1,0-0.2,0-0.3c0,0,0-0.1,0-0.1c0,0,0,0,0,0l0,0l0,0v-0.5h2.8V55.3z M50.4,53.3
		c0,0.1,0,0.1-0.1,0.1c0,0,0,0,0,0c0,0,0,0,0,0h-0.5h-4.9h-0.2c0,0,0,0,0,0c0,0,0,0-0.1,0s0-0.1,0-0.1v-18c0,0,0,0,0.1,0
		c0.1,0,0.1,0,0.2,0c0.1,0,0.1,0,0.2-0.1c0.1,0,0.1-0.1,0.2-0.1c0,0,0.1-0.1,0.1-0.1c0,0,0-0.1,0.1-0.1c0,0,0-0.1,0-0.1
		c0,0,0-0.1,0-0.1v0c0.2-0.7,0.3-1.4,0.4-2.2c0.1-0.8,0.1-1.7,0.1-2.6c0-1.9-0.1-3.9-0.2-5.7c0-0.6-0.1-1.2-0.1-1.8
		c0,0.1,0.1,0.2,0.1,0.3c0.6,1.8,1,3.7,1.2,5.7c0.3,2,0.4,3.9,0.4,5.7c0,0.5,0,0.9,0,1.4v0c0,0,0,0.1,0,0.1c0,0.1,0,0.1,0,0.1
		c0,0.1,0,0.1,0.1,0.2c0,0,0,0.1,0.1,0.1c0.1,0.1,0.1,0.1,0.2,0.2c0.1,0,0.1,0.1,0.2,0.1c0.1,0,0.1,0,0.2,0c0,0,0,0,0,0h0h0
		c0.2,0,0.3,0,0.5,0c0.9,0,1.8,0.1,2.7,0.1c0.1,0,0.3,0,0.4,0L50.4,53.3z M54.3,34.8L54.3,34.8c0-0.2-0.1-0.4-0.1-0.5
		c-0.1-0.1-0.1-0.2-0.2-0.3c-0.1-0.1-0.3-0.2-0.4-0.3c-0.1-0.1-0.3-0.1-0.4-0.1c0-0.8,0-1.7,0-2.6c0-2-0.1-4.1-0.3-6.2l0.2,0h0
		c0,0,0,0,0.1,0c0,0,0,0,0.1,0l7.8-0.5h0c0,0,0,0,0,0c0.1,0,0.1,0,0.2,0c0.1,0,0.2,0.1,0.2,0.2c0.1,0.1,0.1,0.2,0.1,0.4v28.3
		c0,0.1,0,0.1,0,0.1c0,0,0,0,0,0s0,0,0,0h-0.2h-4.9h-0.4c0,0,0,0,0,0c0,0-0.1-0.1-0.1-0.1L54.3,34.8z"/>
</g>
</svg>
