<?xml version="1.0" encoding="utf-8"?>
<!-- Generator: Adobe Illustrator 16.0.4, SVG Export Plug-In . SVG Version: 6.00 Build 0)  -->
<!DOCTYPE svg PUBLIC "-//W3C//DTD SVG 1.1//EN" "http://www.w3.org/Graphics/SVG/1.1/DTD/svg11.dtd">
<svg version="1.1" id="Layer_1" xmlns="http://www.w3.org/2000/svg" xmlns:xlink="http://www.w3.org/1999/xlink" x="0px" y="0px"
	 width="74px" height="65.7px" viewBox="0 0 74 65.7" style="enable-background:new 0 0 74 65.7;" xml:space="preserve">
<style type="text/css">
<![CDATA[
	.st0{fill:#175A9D;}
]]>
</style>
<g>
	<g>
		<path class="st0" d="M30.2,53.8c-3.7,0-8.1-2.7-11.4-7.2c-7.4-10.1-4-26.8-3.9-27.6c0-0.2,0.2-0.3,0.3-0.4
			c0.2-0.1,0.4-0.1,0.5-0.1c0.8,0.2,20.5,5.5,28.7,15.8l0,0C47.4,38,48.2,42,46.6,45c-1.5,2.8-5,4.3-9.6,4c-1.7,3.6-4.2,4.7-6,4.9
			C30.7,53.8,30.5,53.8,30.2,53.8z M16.1,20.1c-0.6,3.3-2.4,17.3,3.8,25.7c3.2,4.4,7.6,7,11,6.6c2.2-0.3,3.9-1.8,5.1-4.5
			c0.1-0.3,0.4-0.4,0.7-0.4c4.2,0.4,7.4-0.8,8.7-3.2c1.3-2.5,0.6-5.8-2-9.1C36.3,26.4,19.8,21.2,16.1,20.1z"/>
	</g>
	<g>
		<path class="st0" d="M45.5,22.2c-0.2,0-0.4-0.1-0.6-0.3c-3.3-5-7.2-9-8.6-10.3c-1.3,1.3-5,5.2-8.1,10c-0.2,0.3-0.6,0.4-1,0.2
			c-0.3-0.2-0.4-0.6-0.2-1c3.9-6.1,8.7-10.6,8.8-10.7c0.3-0.3,0.7-0.3,0.9,0c0.1,0,5.1,4.7,9.3,11c0.2,0.3,0.1,0.7-0.2,1
			C45.8,22.1,45.7,22.2,45.5,22.2z"/>
	</g>
	<g>
		<path class="st0" d="M45.7,52.3c-1.5,0-3.1-0.4-4.7-1.3c-0.3-0.2-0.4-0.6-0.2-0.9s0.6-0.4,0.9-0.2c6.5,3.8,11.8-3,12.4-3.8
			c6.2-8.5,4.3-22.4,3.8-25.7c-2.5,0.7-10.8,3.3-18.2,7.7c-0.3,0.2-0.8,0.1-0.9-0.2c-0.2-0.3-0.1-0.8,0.2-0.9c8.8-5.2,19.1-8,19.2-8
			c0.2,0,0.4,0,0.5,0.1S59,19,59,19.2c0.1,0.7,3.5,17.5-3.9,27.6C53,49.7,49.6,52.3,45.7,52.3z"/>
	</g>
	<g>
		<path class="st0" d="M35.3,46.2c-0.4,0-0.7-0.3-0.7-0.6c-1.4-15.9-13.3-22.3-18.4-25l-0.6-0.3c-0.3-0.2-0.5-0.6-0.3-0.9
			c0.2-0.3,0.6-0.5,0.9-0.3l0.6,0.3c5.3,2.8,17.7,9.5,19.2,26.1C36,45.9,35.7,46.2,35.3,46.2C35.3,46.2,35.3,46.2,35.3,46.2z"/>
	</g>
	<g>
		<path class="st0" d="M44.3,33.1c-0.1,0-0.2,0-0.2,0c-0.4-0.1-0.5-0.5-0.4-0.9C46.8,24.1,57.6,19,58,18.7c0.3-0.2,0.8,0,0.9,0.3
			c0.2,0.3,0,0.8-0.3,0.9c-0.1,0-10.8,5.1-13.7,12.6C44.8,32.9,44.6,33.1,44.3,33.1z"/>
	</g>
</g>
</svg>
