<?xml version="1.0" encoding="utf-8"?>
<!-- Generator: Adobe Illustrator 16.0.4, SVG Export Plug-In . SVG Version: 6.00 Build 0)  -->
<!DOCTYPE svg PUBLIC "-//W3C//DTD SVG 1.1//EN" "http://www.w3.org/Graphics/SVG/1.1/DTD/svg11.dtd">
<svg version="1.1" id="Layer_1" xmlns="http://www.w3.org/2000/svg" xmlns:xlink="http://www.w3.org/1999/xlink" x="0px" y="0px"
	 width="74px" height="65.7px" viewBox="0 0 74 65.7" style="enable-background:new 0 0 74 65.7;" xml:space="preserve">
<style type="text/css">
<![CDATA[
	.st0{fill:#175A9D;}
]]>
</style>
<g>
	<g>
		<path class="st0" d="M15.8,54.9C15.8,54.9,15.8,54.9,15.8,54.9c-0.4,0-0.7-0.3-0.7-0.7c0-2.3,1.3-3.5,2.5-4.5c1.1-1,2-1.8,2-3.5
			c0-1.7-0.9-2.6-1.9-3.5c-0.7-0.6-1.4-1.3-1.9-2.2c-0.2-0.3,0-0.8,0.3-0.9c0.3-0.2,0.8,0,0.9,0.3c0.4,0.7,0.9,1.3,1.6,1.8
			c1.1,1.1,2.4,2.3,2.4,4.6c0,2.3-1.3,3.5-2.5,4.5c-1.1,1-2,1.8-2,3.5C16.5,54.6,16.2,54.9,15.8,54.9z"/>
	</g>
	<g>
		<path class="st0" d="M16.4,36.9c-0.1,0-0.2,0-0.3-0.1c-0.3-0.2-0.5-0.6-0.3-0.9c0.5-1,1.2-1.6,1.9-2.2c1.1-1,2-1.8,2-3.5
			c0-1.7-0.9-2.6-1.9-3.5c-1.1-1.1-2.4-2.2-2.4-4.6c0-1.5,0.4-2.2,1.1-3c0.3-0.3,0.7-0.3,1-0.1c0.3,0.3,0.3,0.7,0.1,1
			c-0.5,0.6-0.8,1-0.8,2.1c0,1.7,0.9,2.6,1.9,3.5c1.1,1.1,2.4,2.2,2.4,4.6s-1.3,3.5-2.5,4.5c-0.6,0.6-1.3,1.1-1.6,1.8
			C16.9,36.7,16.7,36.9,16.4,36.9z"/>
	</g>
	<g>
		<path class="st0" d="M19.3,17.8c-0.2,0-0.3-0.1-0.5-0.2c-0.3-0.3-0.3-0.7,0-1c0.5-0.6,1.1-1.3,1.1-2.6c0-0.4,0.3-0.7,0.7-0.7
			c0,0,0,0,0,0c0.4,0,0.7,0.3,0.7,0.7c0,1.8-0.8,2.9-1.5,3.6C19.7,17.8,19.5,17.8,19.3,17.8z"/>
	</g>
	<g>
		<path class="st0" d="M27.1,56.1c-0.4,0-0.7-0.3-0.7-0.7c0-2.4,1.3-3.6,2.4-4.7c0.4-0.4,0.8-0.8,1.1-1.2c0.2-0.3,0.7-0.4,1-0.1
			c0.3,0.2,0.4,0.7,0.1,1c-0.4,0.5-0.8,0.9-1.3,1.3c-1.1,1-2,1.9-2,3.6C27.8,55.8,27.5,56.1,27.1,56.1z"/>
	</g>
	<g>
		<path class="st0" d="M31.4,47c-0.3,0-0.6-0.2-0.7-0.6c-0.2-1.3-1-2.1-1.9-2.9c-1.1-1.1-2.4-2.3-2.4-4.6s1.3-3.6,2.4-4.7
			c1.1-1,2-1.9,2-3.6c0-0.9-0.2-1.7-0.8-2.4c-0.2-0.3-0.2-0.7,0.1-1c0.3-0.2,0.7-0.2,1,0.1c0.8,1,1.1,2,1.1,3.3
			c0,2.4-1.3,3.6-2.4,4.6c-1.1,1-2,1.9-2,3.6s0.9,2.6,2,3.6c1,0.9,2.1,1.9,2.4,3.7c0.1,0.4-0.2,0.7-0.6,0.8C31.5,47,31.5,47,31.4,47
			z"/>
	</g>
	<g>
		<path class="st0" d="M27.9,25.6c-0.2,0-0.4-0.1-0.6-0.3c-0.6-0.9-0.9-1.9-0.9-3c0-2.4,1.3-3.6,2.4-4.6c1.1-1,2-1.9,2-3.6
			c0-0.4,0.3-0.7,0.7-0.7s0.7,0.3,0.7,0.7c0,2.4-1.3,3.6-2.4,4.6c-1.1,1-2,1.9-2,3.6c0,0.9,0.2,1.6,0.7,2.2c0.2,0.3,0.1,0.8-0.2,1
			C28.2,25.5,28,25.6,27.9,25.6z"/>
	</g>
	<g>
		<path class="st0" d="M38.4,56.1c-0.4,0-0.7-0.3-0.7-0.7c0-2.4,1.3-3.6,2.4-4.7c1.1-1,2-1.9,2-3.6c0-1.6-0.8-2.5-1.8-3.4
			c-0.3-0.3-0.3-0.7,0-1c0.3-0.3,0.7-0.3,1,0c1.1,1.1,2.2,2.3,2.2,4.5c0,2.4-1.3,3.6-2.4,4.6c-1.1,1-2,1.9-2,3.6
			C39.1,55.8,38.8,56.1,38.4,56.1z"/>
	</g>
	<g>
		<path class="st0" d="M38.7,41.2c-0.3,0-0.5-0.2-0.7-0.4c-0.2-0.6-0.4-1.2-0.4-2c0-2.4,1.3-3.6,2.4-4.7c1.1-1,2-1.9,2-3.6
			s-0.9-2.6-2-3.6c-1.1-1.1-2.4-2.3-2.4-4.6c0-0.4,0-0.8,0.1-1.1c0.1-0.4,0.4-0.6,0.8-0.5c0.4,0.1,0.6,0.4,0.6,0.8
			c-0.1,0.3-0.1,0.5-0.1,0.8c0,1.8,0.9,2.6,2,3.6c1.1,1.1,2.4,2.3,2.4,4.6s-1.3,3.6-2.4,4.6c-1.1,1-2,1.9-2,3.6c0,0.5,0.1,1,0.3,1.4
			c0.1,0.4,0,0.8-0.4,0.9C38.9,41.2,38.8,41.2,38.7,41.2z"/>
	</g>
	<g>
		<path class="st0" d="M39.3,19.3c-0.1,0-0.3,0-0.4-0.1c-0.3-0.2-0.4-0.6-0.2-1c0.4-0.6,1-1.1,1.6-1.6c1-0.8,1.8-1.5,1.8-2.6
			c0-0.4,0.3-0.7,0.7-0.7c0.4,0,0.7,0.3,0.7,0.7c0,1.9-1.3,2.9-2.3,3.7c-0.5,0.4-1,0.8-1.3,1.2C39.8,19.2,39.6,19.3,39.3,19.3z"/>
	</g>
	<g>
		<path class="st0" d="M48.9,55.5c-0.4,0-0.7-0.3-0.7-0.7c0-1.1,0.3-2.1,0.9-2.9c0.2-0.3,0.6-0.4,1-0.2c0.3,0.2,0.4,0.7,0.2,1
			c-0.4,0.6-0.6,1.3-0.6,2.2C49.6,55.2,49.3,55.5,48.9,55.5z"/>
	</g>
	<g>
		<path class="st0" d="M51.7,50.8c-0.2,0-0.4-0.1-0.5-0.2c-0.3-0.3-0.3-0.7,0-1c0.8-0.8,1.4-1.7,1.4-3c0-1.8-0.9-2.6-2-3.6
			c-1.1-1.1-2.4-2.3-2.4-4.7c0-2.4,1.3-3.6,2.4-4.6c0.7-0.6,1.3-1.2,1.7-2c0.2-0.4,0.6-0.5,0.9-0.4c0.4,0.2,0.5,0.6,0.4,0.9
			c-0.5,1.1-1.2,1.8-2,2.5c-1.1,1-2,1.9-2,3.6c0,1.8,0.9,2.6,2,3.6c1.1,1.1,2.4,2.3,2.4,4.7c0,2-0.9,3.1-1.8,4
			C52.1,50.7,51.9,50.8,51.7,50.8z"/>
	</g>
	<g>
		<path class="st0" d="M52.8,28.2c-0.3,0-0.5-0.2-0.6-0.4c-0.4-0.8-1-1.3-1.6-1.8c-1.1-0.9-2.3-1.9-2.3-4.3c0-2.4,1.3-3.6,2.4-4.6
			c1.1-1,2-1.9,2-3.6c0-0.4,0.3-0.7,0.7-0.7S54,13,54,13.4c0,2.4-1.3,3.6-2.4,4.6c-1.1,1-2,1.9-2,3.6c0,1.7,0.8,2.4,1.8,3.2
			c0.7,0.6,1.5,1.2,2,2.3c0.2,0.4,0,0.8-0.3,0.9C53,28.2,52.9,28.2,52.8,28.2z"/>
	</g>
	<g>
		<path class="st0" d="M54.4,53.9C54.4,53.9,54.4,53.9,54.4,53.9c-2.3,0-3.5-1.3-4.5-2.5c-1-1.1-1.8-2-3.5-2c0,0,0,0-0.1,0
			c-1.3,0-1.7,0.6-2.2,1.6c-0.3,0.6-0.7,1.3-1.5,1.9c-0.3,0.2-0.8,0.2-1-0.1c-0.2-0.3-0.2-0.7,0.1-1c0.5-0.4,0.8-0.9,1.1-1.5
			c0.6-1,1.3-2.3,3.4-2.3c0,0,0,0,0.1,0c2.3,0,3.5,1.3,4.5,2.5c1,1.1,1.8,2,3.5,2c0.4,0,0.7,0.3,0.7,0.7
			C55.1,53.5,54.8,53.9,54.4,53.9z"/>
	</g>
	<g>
		<path class="st0" d="M22.2,53.5C22.2,53.5,22.2,53.5,22.2,53.5c-1.8,0-2.9-0.8-3.5-1.4c-0.3-0.3-0.3-0.7,0-1c0.3-0.3,0.7-0.3,1,0
			c0.8,0.7,1.5,1,2.5,1c0,0,0,0,0.1,0c1.7,0,2.5-0.9,3.5-1.9c1-1.1,2.2-2.4,4.5-2.4c0,0,0,0,0.1,0c2.3,0,3.5,1.3,4.5,2.5
			c0.7,0.8,1.4,1.5,2.4,1.8c0.4,0.1,0.6,0.5,0.5,0.9c-0.1,0.4-0.5,0.6-0.9,0.5c-1.4-0.4-2.2-1.4-3-2.2c-1-1.1-1.8-2-3.5-2
			c0,0,0,0-0.1,0c-1.7,0-2.5,0.9-3.5,1.9C25.7,52.2,24.5,53.5,22.2,53.5z"/>
	</g>
	<g>
		<path class="st0" d="M17,50.1c-0.2,0-0.3-0.1-0.5-0.2c-0.7-0.6-1.5-0.9-2.4-0.9c-0.4,0-0.7-0.3-0.7-0.7c0-0.4,0.3-0.7,0.7-0.7
			c0,0,0,0,0,0c1.3,0,2.4,0.4,3.3,1.3c0.3,0.3,0.3,0.7,0.1,1C17.4,50,17.2,50.1,17,50.1z"/>
	</g>
	<g>
		<path class="st0" d="M55.5,42.5c-2.4,0-3.6-1.3-4.7-2.4c-0.1-0.1-0.3-0.3-0.4-0.4c-0.3-0.3-0.3-0.7,0-1c0.3-0.3,0.7-0.3,1,0
			c0.1,0.1,0.3,0.3,0.4,0.4c1,1.1,1.9,2,3.6,2c0.4,0,0.7,0.3,0.7,0.7C56.2,42.2,55.9,42.5,55.5,42.5z"/>
	</g>
	<g>
		<path class="st0" d="M39,42.5c-2.4,0-3.6-1.3-4.6-2.4c-1-1.1-1.9-2-3.6-2c-0.9,0-1.2,0.1-1.7,0.4c-0.3,0.2-0.8,0.1-1-0.2
			c-0.2-0.3-0.1-0.8,0.2-1c0.8-0.5,1.4-0.5,2.4-0.5c2.4,0,3.6,1.3,4.7,2.4c1,1.1,1.9,2,3.6,2s2.6-0.9,3.6-2c1.1-1.1,2.3-2.4,4.7-2.4
			c0.1,0,0,0,0.1,0c0.4,0,0.6,0.3,0.6,0.7c0,0.4-0.3,0.7-0.7,0.6c-0.1,0,0.1,0,0,0c-1.8,0-2.6,0.9-3.6,2
			C42.5,41.3,41.3,42.5,39,42.5z"/>
	</g>
	<g>
		<path class="st0" d="M22.4,42.5c-2.4,0-3.6-1.3-4.6-2.4c-1-1.1-1.9-2-3.6-2c-0.4,0-0.7-0.3-0.7-0.7s0.3-0.7,0.7-0.7
			c2.4,0,3.6,1.3,4.6,2.4c1,1.1,1.9,2,3.6,2c1.4,0,2.2-0.5,3-1.3c0.3-0.3,0.7-0.3,1,0c0.3,0.3,0.3,0.7,0,1
			C25.5,41.7,24.3,42.5,22.4,42.5z"/>
	</g>
	<g>
		<path class="st0" d="M55.5,31.2c-2.4,0-3.6-1.3-4.7-2.4c-1-1.1-1.9-2-3.6-2c-1.4,0-2.2,0.6-2.9,1.2c-0.3,0.3-0.7,0.3-1,0
			c-0.3-0.3-0.3-0.7,0-1c0.8-0.7,1.9-1.6,3.8-1.6c2.4,0,3.6,1.3,4.6,2.4c1,1.1,1.9,2,3.6,2c0.4,0,0.7,0.3,0.7,0.7
			C56.2,30.9,55.9,31.2,55.5,31.2z"/>
	</g>
	<g>
		<path class="st0" d="M39,31.2c-2.4,0-3.6-1.3-4.6-2.4c-1-1.1-1.9-2-3.6-2c-1.8,0-2.6,0.9-3.6,2c-1.1,1.1-2.3,2.4-4.6,2.4
			c-0.4,0-0.7-0.3-0.7-0.7c0-0.4,0.3-0.7,0.7-0.7c1.8,0,2.6-0.9,3.6-2c1.1-1.1,2.3-2.4,4.6-2.4c2.4,0,3.6,1.3,4.7,2.4
			c1,1.1,1.9,2,3.6,2c0.8,0,1.5-0.2,2.1-0.6c0.3-0.2,0.8-0.1,1,0.2s0.1,0.8-0.2,1C40.9,31,40,31.2,39,31.2z"/>
	</g>
	<g>
		<path class="st0" d="M18.8,29.7c-0.2,0-0.3-0.1-0.5-0.2c-0.4-0.3-0.7-0.7-0.9-1c-0.9-1-1.6-1.7-3.3-1.7c-0.4,0-0.7-0.3-0.7-0.7
			c0-0.4,0.3-0.7,0.7-0.7c2.3,0,3.4,1.1,4.3,2.2c0.3,0.3,0.5,0.6,0.9,0.9c0.3,0.3,0.3,0.7,0,1C19.2,29.6,19,29.7,18.8,29.7z"/>
	</g>
	<g>
		<path class="st0" d="M55,20.7c-1.8,0-2.9-0.8-3.7-1.5c-0.3-0.3-0.3-0.7-0.1-1c0.3-0.3,0.7-0.3,1-0.1c0.6,0.5,1.4,1.1,2.7,1.1
			c0.4,0,0.7,0.3,0.7,0.7S55.3,20.7,55,20.7z"/>
	</g>
	<g>
		<path class="st0" d="M38.4,20.7c-0.6,0-1.1-0.1-1.6-0.2c-0.4-0.1-0.6-0.5-0.5-0.9c0.1-0.4,0.5-0.6,0.9-0.5
			c0.4,0.1,0.7,0.2,1.2,0.2c1.8,0,2.6-0.9,3.6-2c1.1-1.1,2.3-2.4,4.7-2.4c1.2,0,2.2,0.3,3.2,1c0.3,0.2,0.4,0.7,0.1,1
			c-0.2,0.3-0.7,0.4-1,0.1c-0.7-0.5-1.4-0.8-2.3-0.8c-1.8,0-2.6,0.9-3.6,2C42,19.5,40.8,20.7,38.4,20.7z"/>
	</g>
	<g>
		<path class="st0" d="M37,20.6c-0.1,0-0.1,0-0.2,0c-1.4-0.4-2.3-1.4-3.1-2.2c-0.5-0.5-1-1-1.5-1.4c-0.3-0.2-0.4-0.6-0.2-1
			c0.2-0.3,0.6-0.4,1-0.2c0.7,0.5,1.2,1,1.8,1.6c0.7,0.8,1.4,1.5,2.5,1.8c0.4,0.1,0.6,0.5,0.5,0.9C37.6,20.4,37.3,20.6,37,20.6z"/>
	</g>
	<g>
		<path class="st0" d="M21.8,20.7c-2.4,0-3.6-1.3-4.6-2.4c-1-1.1-1.9-2-3.6-2c-0.4,0-0.7-0.3-0.7-0.7s0.3-0.7,0.7-0.7
			c2.4,0,3.6,1.3,4.6,2.4c1,1.1,1.9,2,3.6,2c1.8,0,2.5-0.9,3.4-1.9c1-1.1,2.1-2.4,4.5-2.4c0.4,0,0.7,0.3,0.7,0.7
			c0,0.4-0.3,0.7-0.7,0.7c-1.8,0-2.5,0.9-3.4,1.9C25.4,19.5,24.2,20.7,21.8,20.7z"/>
	</g>
</g>
</svg>
