<svg width="67" height="64" viewBox="0 0 67 64" fill="none" xmlns="http://www.w3.org/2000/svg">
<path d="M33.5184 10.1842C30.2247 10.1842 26.931 9.08626 24.3692 6.89044C23.1493 8.35432 21.6854 10.0622 20.5875 11.77C19.2456 13.7219 18.3917 15.5517 18.3917 16.8936C18.3917 18.1135 18.6356 19.6994 19.0016 21.1633C19.3676 22.8711 19.3676 23.969 19.3676 25.6769C19.1236 36.656 18.8796 47.0251 18.0257 58.9802C22.6613 61.176 28.5168 61.298 33.5184 61.298C38.52 61.298 44.3755 61.176 49.0111 58.9802C48.1572 47.0251 47.9132 36.778 47.6693 25.6769C47.6693 23.969 47.6692 22.8711 48.0352 21.1633C48.2792 19.6994 48.6452 18.1135 48.6452 16.8936C48.6452 15.5517 47.6693 13.7219 46.4493 11.77C45.3514 10.0622 43.8876 8.35432 42.6677 6.89044C40.1059 9.08626 36.8121 10.1842 33.5184 10.1842ZM49.7431 23.4811C51.4509 27.5067 53.4028 31.8984 54.1347 36.29C54.8667 40.3157 55.4766 44.2194 56.0866 48.245C56.6965 52.1487 57.3065 55.6864 57.7944 59.2241C59.8682 59.1021 61.9421 58.8582 64.0159 58.7362C63.406 51.1728 62.796 42.8775 61.4541 34.7042C60.1122 26.1649 58.1604 17.8695 55.1106 10.6721C54.8667 10.0622 54.5007 9.33024 54.0127 8.72029C53.6468 8.23233 53.2808 7.86636 52.7928 7.62238C50.963 6.52447 49.0111 5.67054 47.0593 4.81661C45.4734 4.08467 43.8876 3.35273 42.1797 2.4988C40.4718 5.67054 36.9341 7.13442 33.3964 7.13442C29.9807 7.13442 26.321 5.67054 24.7351 2.4988C23.0273 3.35273 21.4414 4.08467 19.8555 4.81661C17.9037 5.67054 16.0739 6.64646 14.122 7.62238C13.756 7.86636 13.2681 8.23233 12.9021 8.72029C12.6581 9.33024 12.1702 10.0622 11.9262 10.6721C8.87644 17.8695 6.92461 26.1649 5.58272 34.7042C4.36282 42.8775 3.63088 51.1728 3.02093 58.7362C5.09476 58.8582 7.16859 59.1021 9.24241 59.2241C9.73037 55.6864 10.3403 52.2707 10.9503 48.245C11.5602 44.2194 12.2922 40.4377 12.9021 36.29C13.6341 31.8984 15.5859 27.5067 17.2938 23.4811C17.1718 22.8711 17.0498 22.2612 16.9278 21.6512C16.5618 20.0654 16.3178 18.4795 16.3178 17.0156C16.3178 15.1858 17.4157 12.9899 18.8796 10.7941C20.2215 8.72029 22.0514 6.64646 23.5152 4.9386C23.8812 4.45064 24.6131 4.32865 25.1011 4.81661C27.2969 7.01243 30.4687 8.23233 33.5184 8.23233C36.4462 8.23233 39.3739 7.25641 41.5698 5.30457C42.4237 4.57263 42.9116 4.20666 43.7656 5.18258C45.2295 6.89044 46.9373 8.84228 48.2792 10.9161C49.7431 13.1119 50.841 15.3077 50.841 17.1376C50.841 18.6015 50.475 20.1873 50.231 21.7732C49.9871 22.2612 49.8651 22.8711 49.7431 23.4811ZM17.2938 29.2146C16.3178 31.6544 15.4639 34.0942 14.9759 36.656C14.244 40.9256 13.6341 44.8293 13.0241 48.611C12.5361 52.0267 11.9262 56.0524 11.1943 60.444C11.0723 60.932 10.7063 61.298 10.0963 61.298C7.41257 61.176 4.72879 60.932 2.04501 60.688C1.43506 60.688 0.825108 60.322 0.947098 59.5901C1.55705 51.6608 2.28899 42.9995 3.63088 34.3382C4.97277 25.6769 6.92461 17.1376 10.0963 9.8182C10.3403 9.08626 10.9503 8.23233 11.5602 7.50039C12.0482 6.76845 12.6581 6.28049 13.3901 5.91452C15.4639 4.81661 17.2938 3.84069 19.2456 2.98676C21.0754 2.13283 23.0273 1.2789 24.7351 0.302979C25.3451 -0.0629904 26.077 -0.0629905 26.321 0.790939C27.4189 3.7187 30.5907 5.18258 33.6404 5.18258C36.5682 5.18258 39.7399 3.84069 40.8378 0.912929C41.0818 0.302979 41.6917 -0.0629904 42.3017 0.302979C44.1315 1.15691 46.0834 2.01084 48.0352 2.86477C49.9871 3.7187 51.9389 4.69462 53.8907 5.79253C54.5007 6.1585 55.1106 6.76845 55.7206 7.3784C56.3305 8.11034 56.8185 8.96427 57.1845 9.69621C60.3562 17.0156 62.308 25.5549 63.6499 34.2162C64.9918 42.7555 65.7238 51.4168 66.2117 59.2241C66.2117 59.8341 66.0897 60.566 65.2358 60.566C62.552 60.688 59.8682 60.932 57.0625 61.176C56.5745 61.298 55.9646 60.81 55.9646 60.322C55.2326 55.9304 54.6227 51.9047 54.1347 48.489C53.5248 44.7073 52.9148 40.9256 52.1829 36.534C51.6949 34.0942 50.719 31.6544 49.8651 29.2146C50.109 39.0958 50.353 48.489 51.207 59.4681C51.207 59.8341 51.085 60.322 50.597 60.566C45.5954 63.1278 39.13 63.3718 33.5184 63.3718C28.0289 63.3718 21.5634 63.1278 16.5618 60.566C16.1958 60.444 15.9519 59.9561 15.9519 59.5901C16.8058 48.489 17.0498 39.0958 17.2938 29.2146Z" fill="#16478E"/>
</svg>
