<svg width="59" height="60" viewBox="0 0 59 60" fill="none" xmlns="http://www.w3.org/2000/svg">
<path d="M16.9218 35.372C16.5143 35.372 16.1067 34.9644 16.1067 34.5568V24.0957C16.1067 23.5522 16.5143 23.2805 16.9218 23.2805C17.3294 23.2805 17.737 23.6881 17.737 24.0957V34.5568C17.737 34.9644 17.3294 35.372 16.9218 35.372Z" fill="#16478E"/>
<path d="M29.5569 35.372C29.1493 35.372 28.7417 34.9644 28.7417 34.5568V24.0957C28.7417 23.5522 29.1493 23.2805 29.5569 23.2805C29.9644 23.2805 30.372 23.6881 30.372 24.0957V34.5568C30.372 34.9644 29.9644 35.372 29.5569 35.372Z" fill="#16478E"/>
<path d="M42.1916 35.372C41.784 35.372 41.3765 34.9644 41.3765 34.5568V24.0957C41.3765 23.5522 41.784 23.2805 42.1916 23.2805C42.5992 23.2805 43.0068 23.6881 43.0068 24.0957V34.5568C43.0068 34.9644 42.5992 35.372 42.1916 35.372Z" fill="#16478E"/>
<path d="M54.8264 35.372C54.4188 35.372 54.0112 34.9644 54.0112 34.5568V24.0957C54.0112 23.5522 54.4188 23.2805 54.8264 23.2805C55.234 23.2805 55.6415 23.6881 55.6415 24.0957V34.5568C55.6415 34.9644 55.234 35.372 54.8264 35.372Z" fill="#16478E"/>
<path d="M16.9218 12.9552C16.5143 12.9552 16.1067 12.5476 16.1067 12.1401V1.54306C16.1067 1.13548 16.5143 0.727905 16.9218 0.727905C17.3294 0.727905 17.737 1.13548 17.737 1.54306V12.1401C17.737 12.5476 17.3294 12.9552 16.9218 12.9552Z" fill="#16478E"/>
<path d="M29.5569 12.9552C29.1493 12.9552 28.7417 12.5476 28.7417 12.1401V1.54306C28.7417 1.13548 29.1493 0.727905 29.5569 0.727905C29.9644 0.727905 30.372 1.13548 30.372 1.54306V12.1401C30.372 12.5476 29.9644 12.9552 29.5569 12.9552Z" fill="#16478E"/>
<path d="M42.1916 12.9552C41.784 12.9552 41.3765 12.5476 41.3765 12.1401V1.54306C41.3765 1.13548 41.784 0.727905 42.1916 0.727905C42.5992 0.727905 43.0068 1.13548 43.0068 1.54306V12.1401C43.0068 12.5476 42.5992 12.9552 42.1916 12.9552Z" fill="#16478E"/>
<path d="M54.8264 12.9552C54.4188 12.9552 54.0112 12.5476 54.0112 12.1401V1.54306C54.0112 1.13548 54.4188 0.727905 54.8264 0.727905C55.234 0.727905 55.6415 1.13548 55.6415 1.54306V12.1401C55.6415 12.5476 55.234 12.9552 54.8264 12.9552Z" fill="#16478E"/>
<path d="M16.9218 59.283C16.5143 59.283 16.1067 58.8754 16.1067 58.4679V46.1047C16.1067 45.6971 16.5143 45.2896 16.9218 45.2896C17.3294 45.2896 17.737 45.6971 17.737 46.1047V58.4679C17.737 59.0113 17.3294 59.283 16.9218 59.283Z" fill="#16478E"/>
<path d="M29.5569 59.283C29.1493 59.283 28.7417 58.8754 28.7417 58.4679V46.1047C28.7417 45.6971 29.1493 45.2896 29.5569 45.2896C29.9644 45.2896 30.372 45.6971 30.372 46.1047V58.4679C30.372 59.0113 29.9644 59.283 29.5569 59.283Z" fill="#16478E"/>
<path d="M42.1916 59.283C41.784 59.283 41.3765 58.8754 41.3765 58.4679V46.1047C41.3765 45.6971 41.784 45.2896 42.1916 45.2896C42.5992 45.2896 43.0068 45.6971 43.0068 46.1047V58.4679C43.0068 59.0113 42.5992 59.283 42.1916 59.283Z" fill="#16478E"/>
<path d="M54.8264 59.283C54.4188 59.283 54.0112 58.8754 54.0112 58.4679V46.1047C54.0112 45.6971 54.4188 45.2896 54.8264 45.2896C55.234 45.2896 55.6415 45.6971 55.6415 46.1047V58.4679C55.6415 59.0113 55.234 59.283 54.8264 59.283Z" fill="#16478E"/>
<path d="M4.28646 12.9552C3.74303 12.9552 3.33545 12.5476 3.33545 12.0042V1.54306C3.33545 1.13548 3.74303 0.727905 4.28646 0.727905C4.69404 0.727905 5.10162 1.13548 5.10162 1.54306V12.0042C5.10162 12.5476 4.69404 12.9552 4.28646 12.9552Z" fill="#16478E"/>
<path d="M4.28683 35.372C3.87926 35.372 3.47168 34.9644 3.47168 34.5568V24.0957C3.47168 23.6881 3.87926 23.2805 4.28683 23.2805C4.69441 23.2805 5.10199 23.6881 5.10199 24.0957V34.5568C5.10199 34.9644 4.69441 35.372 4.28683 35.372Z" fill="#16478E"/>
<path d="M4.28683 59.283C3.87926 59.283 3.47168 58.8754 3.47168 58.4679V46.1047C3.47168 45.6971 3.87926 45.2896 4.28683 45.2896C4.69441 45.2896 5.10199 45.6971 5.10199 46.1047V58.4679C5.10199 59.0113 4.69441 59.283 4.28683 59.283Z" fill="#16478E"/>
<path d="M58.3587 7.5199H58.2228C56.0491 6.56889 53.6036 6.56889 51.4299 7.65576C49.6637 8.47091 47.6258 8.47091 45.9955 7.65576L45.5879 7.5199H45.4521C43.2783 6.56889 40.8329 6.56889 38.6591 7.65576C36.893 8.47091 34.9909 8.47091 33.2248 7.65576H33.0889L32.8172 7.5199C30.6435 6.56889 28.198 6.56889 26.0243 7.65576C24.2581 8.47091 22.2202 8.47091 20.5899 7.65576H20.454H20.3182C18.1444 6.70475 15.699 6.70475 13.5252 7.79162C11.7591 8.60677 9.72119 8.60677 8.09088 7.79162L7.6833 7.5199H7.54744C5.3737 6.56889 2.92824 6.56889 0.7545 7.5199C0.346924 7.79162 0.0752058 8.19919 0.346924 8.74263C0.482782 9.15021 1.02622 9.28607 1.43379 9.15021C3.19996 8.33505 5.10198 8.33505 6.86815 9.15021H7.00401L7.13987 9.28607C8.22674 9.69364 9.31361 9.96536 10.5363 9.96536C11.7591 9.96536 12.9818 9.69364 14.0687 9.15021C15.8348 8.33505 17.8727 8.33505 19.503 9.15021H19.6389L19.7747 9.28607C20.8616 9.69364 21.9485 9.96536 23.1712 9.96536C24.3939 9.96536 25.6167 9.69364 26.7036 9.15021C28.4697 8.33505 30.5076 8.33505 32.1379 9.15021H32.2738L32.4096 9.28607C33.4965 9.69364 34.5834 9.96536 35.8061 9.96536C37.0288 9.96536 38.2516 9.69364 39.3384 9.15021C41.1046 8.33505 43.0066 8.33505 44.7728 9.15021H44.9086H45.0445C46.1314 9.55778 47.2182 9.8295 48.441 9.8295C49.6637 9.8295 50.8864 9.55778 51.9733 9.01435C53.7395 8.19919 55.7774 8.19919 57.4077 9.01435L57.5435 9.15021H57.8152C58.087 9.15021 58.4945 9.01435 58.6304 8.60677C58.9021 8.19919 58.7662 7.79162 58.3587 7.5199Z" fill="#16478E"/>
<path d="M58.3587 29.2582H58.2228C56.0491 28.3071 53.6036 28.3071 51.4299 29.394C49.6637 30.2092 47.6258 30.2092 45.9955 29.394L45.5879 29.2582H45.4521C43.2783 28.3071 40.8329 28.3071 38.6591 29.394C36.893 30.2092 34.9909 30.2092 33.2248 29.394H33.0889L32.8172 29.2582C30.6435 28.3071 28.198 28.3071 26.0243 29.394C24.2581 30.2092 22.2202 30.2092 20.5899 29.394H20.454H20.3182C18.1444 28.443 15.699 28.443 13.5252 29.5299C11.7591 30.345 9.7212 30.345 8.09089 29.5299H7.95503H7.81917C5.64543 28.5789 3.19997 28.5789 1.02623 29.6657C0.618652 29.8016 0.346934 30.345 0.618652 30.7526C0.754511 31.1602 1.29795 31.296 1.70552 31.1602C3.47169 30.345 5.37371 30.345 7.13988 31.1602H7.27574L7.4116 31.296C8.49847 31.7036 9.58534 31.9753 10.8081 31.9753C12.0308 31.9753 13.2535 31.7036 14.3404 31.1602C16.1066 30.345 18.1444 30.345 19.7748 31.1602H19.9106L20.0465 31.296C21.1333 31.7036 22.2202 31.9753 23.4429 31.9753C24.6657 31.9753 25.8884 31.7036 26.9753 31.1602C28.7414 30.345 30.7793 30.345 32.4096 31.1602H32.5455L32.6813 31.296C33.7682 31.7036 34.8551 31.9753 36.0778 31.9753C37.3005 31.9753 38.5233 31.7036 39.6101 31.1602C41.3763 30.345 43.2783 30.345 45.0445 31.1602H45.1804H45.3162C46.4031 31.5678 47.49 31.8395 48.7127 31.8395C49.9354 31.8395 51.1582 31.5678 52.245 31.0243C54.0112 30.2092 56.0491 30.2092 57.6794 31.0243L57.8152 31.1602H58.087C58.3587 31.1602 58.7663 31.0243 58.9021 30.6167C58.9021 29.9375 58.7663 29.5299 58.3587 29.2582Z" fill="#16478E"/>
<path d="M58.3587 50.9956H58.2228C56.0491 50.0446 53.6036 50.0446 51.4299 51.1314C49.6637 51.9466 47.6258 51.9466 45.9955 51.1314L45.5879 50.9956H45.4521C43.2783 50.0446 40.8329 50.0446 38.6591 51.1314C36.893 51.9466 34.9909 51.9466 33.2248 51.1314H33.0889L32.8172 50.9956C30.6435 50.0446 28.198 50.0446 26.0243 51.1314C24.2581 51.9466 22.2202 51.9466 20.5899 51.1314H20.454H20.3182C18.1444 50.1804 15.699 50.1804 13.5252 51.2673C11.7591 52.0825 9.7212 52.0825 8.09089 51.2673H7.95503H7.81917C5.64543 50.3163 3.19997 50.3163 1.02623 51.4032C0.618652 51.539 0.346934 52.0825 0.618652 52.49C0.754511 52.8976 1.29795 53.0335 1.70552 52.8976C3.47169 52.0825 5.37371 52.0825 7.13988 52.8976H7.27574L7.4116 53.0335C8.49847 53.4411 9.58534 53.7128 10.8081 53.7128C12.0308 53.7128 13.2535 53.4411 14.3404 52.8976C16.1066 52.0825 18.1444 52.0825 19.7748 52.8976H19.9106L20.0465 53.0335C21.1333 53.4411 22.2202 53.7128 23.4429 53.7128C24.6657 53.7128 25.8884 53.4411 26.9753 52.8976C28.7414 52.0825 30.7793 52.0825 32.4096 52.8976H32.5455L32.6813 53.0335C33.7682 53.4411 34.8551 53.7128 36.0778 53.7128C37.3005 53.7128 38.5233 53.4411 39.6101 52.8976C41.3763 52.0825 43.2783 52.0825 45.0445 52.8976H45.1804H45.3162C46.4031 53.3052 47.49 53.5769 48.7127 53.5769C49.9354 53.5769 51.1582 53.3052 52.245 52.7618C54.0112 51.9466 56.0491 51.9466 57.6794 52.7618L57.8152 52.8976H58.087C58.3587 52.8976 58.7663 52.7618 58.9021 52.3542C58.9021 51.6749 58.7663 51.2673 58.3587 50.9956Z" fill="#16478E"/>
<path d="M10.5366 18.2537C10.129 18.2537 9.72144 17.8461 9.72144 17.4385V1.54306C9.72144 1.13548 10.129 0.727905 10.5366 0.727905C11.08 0.727905 11.3517 1.13548 11.3517 1.54306V17.3027C11.3517 17.8461 11.08 18.2537 10.5366 18.2537Z" fill="#16478E"/>
<path d="M10.5366 32.7905C10.129 32.7905 9.72144 32.3829 9.72144 31.9753V17.3026C9.72144 16.7591 10.129 16.4874 10.5366 16.4874C10.9442 16.4874 11.3517 16.895 11.3517 17.3026V31.9753C11.3517 32.3829 11.08 32.7905 10.5366 32.7905Z" fill="#16478E"/>
<path d="M10.5366 59.2831C10.129 59.2831 9.72144 58.8755 9.72144 58.4679V31.9754C9.72144 31.5679 10.129 31.1603 10.5366 31.1603C10.9442 31.1603 11.3517 31.5679 11.3517 31.9754V58.4679C11.3517 59.0113 11.08 59.2831 10.5366 59.2831Z" fill="#16478E"/>
<path d="M35.8064 18.2537C35.3988 18.2537 34.9912 17.8461 34.9912 17.4385V1.54306C34.9912 1.13548 35.3988 0.727905 35.8064 0.727905C36.2139 0.727905 36.6215 1.13548 36.6215 1.54306V17.3027C36.6215 17.8461 36.3498 18.2537 35.8064 18.2537Z" fill="#16478E"/>
<path d="M35.8064 32.7905C35.3988 32.7905 34.9912 32.3829 34.9912 31.9753V17.3026C34.9912 16.7591 35.3988 16.4874 35.8064 16.4874C36.2139 16.4874 36.6215 16.895 36.6215 17.3026V31.9753C36.6215 32.3829 36.3498 32.7905 35.8064 32.7905Z" fill="#16478E"/>
<path d="M35.8064 59.2831C35.3988 59.2831 34.9912 58.8755 34.9912 58.4679V31.9754C34.9912 31.5679 35.3988 31.1603 35.8064 31.1603C36.2139 31.1603 36.6215 31.5679 36.6215 31.9754V58.4679C36.6215 59.0113 36.3498 59.2831 35.8064 59.2831Z" fill="#16478E"/>
<path d="M48.4411 18.2537C48.0336 18.2537 47.626 17.8461 47.626 17.4385V1.54306C47.626 1.13548 48.0336 0.727905 48.4411 0.727905C48.8487 0.727905 49.2563 1.13548 49.2563 1.54306V17.3027C49.3921 17.8461 48.9846 18.2537 48.4411 18.2537Z" fill="#16478E"/>
<path d="M48.4411 32.7905C48.0336 32.7905 47.626 32.3829 47.626 31.9753V17.3026C47.626 16.7591 48.0336 16.4874 48.4411 16.4874C48.8487 16.4874 49.2563 16.895 49.2563 17.3026V31.9753C49.3921 32.3829 48.9846 32.7905 48.4411 32.7905Z" fill="#16478E"/>
<path d="M48.4411 59.2831C48.0336 59.2831 47.626 58.8755 47.626 58.4679V31.9754C47.626 31.5679 48.0336 31.1603 48.4411 31.1603C48.8487 31.1603 49.2563 31.5679 49.2563 31.9754V58.4679C49.3921 59.0113 48.9846 59.2831 48.4411 59.2831Z" fill="#16478E"/>
<path d="M23.1714 18.2537C22.7638 18.2537 22.3562 17.8461 22.3562 17.4385V1.54306C22.3562 1.13548 22.7638 0.727905 23.1714 0.727905C23.5789 0.727905 23.9865 1.13548 23.9865 1.54306V17.3027C23.9865 17.8461 23.7148 18.2537 23.1714 18.2537Z" fill="#16478E"/>
<path d="M23.1714 32.7905C22.7638 32.7905 22.3562 32.3829 22.3562 31.9753V17.3026C22.3562 16.7591 22.7638 16.4874 23.1714 16.4874C23.5789 16.4874 23.9865 16.895 23.9865 17.3026V31.9753C23.9865 32.3829 23.7148 32.7905 23.1714 32.7905Z" fill="#16478E"/>
<path d="M23.1714 59.2831C22.7638 59.2831 22.3562 58.8755 22.3562 58.4679V31.9754C22.3562 31.5679 22.7638 31.1603 23.1714 31.1603C23.5789 31.1603 23.9865 31.5679 23.9865 31.9754V58.4679C23.9865 59.0113 23.7148 59.2831 23.1714 59.2831Z" fill="#16478E"/>
<path d="M58.7662 18.933C58.6303 18.5254 58.0869 18.2537 57.6793 18.5254H57.5434C55.7773 19.3406 53.7394 19.2047 52.1091 18.5254C49.9353 17.5744 47.4899 17.5744 45.3161 18.3895H45.0444H44.9086C43.1424 19.2047 41.1045 19.0688 39.4742 18.3895C37.3005 17.4385 34.855 17.4385 32.6813 18.2537H32.5454L32.4095 18.3895C30.6434 19.2047 28.6055 19.0688 26.9752 18.3895C24.8014 17.4385 22.356 17.4385 20.1822 18.2537H20.0464L19.9105 18.3895C18.1444 19.2047 16.1065 19.0688 14.4762 18.3895C12.3024 17.4385 9.85697 17.4385 7.68323 18.2537L7.00393 18.3895L6.86807 18.5254C5.10191 19.3406 3.06402 19.2047 1.43372 18.5254C1.02614 18.3895 0.482704 18.5254 0.346846 18.933C0.210987 19.3406 0.346846 19.884 0.754422 20.0199C1.84129 20.5633 3.06402 20.835 4.28675 20.835C5.37362 20.835 6.59635 20.5633 7.68323 20.1557H7.81908H7.95494C9.72111 19.3406 11.759 19.4764 13.3893 20.1557C14.4762 20.6991 15.6989 20.9709 16.9216 20.9709C18.0085 20.9709 19.2312 20.6991 20.3181 20.2916H20.454H20.5898C22.356 19.4764 24.3939 19.6123 26.0242 20.2916C27.111 20.835 28.3338 21.1067 29.5565 21.1067C30.6434 21.1067 31.8661 20.835 32.953 20.4274H33.0888H33.2247C34.9909 19.6123 37.0287 19.7481 38.659 20.4274C39.7459 20.9709 40.9687 21.2426 42.1914 21.2426C43.2783 21.2426 44.501 20.9709 45.5879 20.5633L45.7237 20.4274H45.8596C47.6257 19.6123 49.6636 19.7481 51.2939 20.4274C52.3808 20.9709 53.6035 21.2426 54.8263 21.2426C55.9131 21.2426 57.1359 20.9709 58.2227 20.5633L58.3586 20.4274C58.7662 19.7481 58.902 19.3406 58.7662 18.933Z" fill="#16478E"/>
<path d="M58.7662 40.6704C58.6303 40.2628 58.0869 39.9911 57.6793 40.2628H57.5434C55.7773 41.078 53.7394 40.9421 52.1091 40.2628C49.9353 39.3118 47.4899 39.3118 45.3161 40.127H45.0444H44.9086C43.1424 40.9421 41.1045 40.8063 39.4742 40.127C37.3005 39.176 34.855 39.176 32.6813 39.9911H32.5454L32.4095 40.127C30.6434 40.9421 28.6055 40.8063 26.9752 40.127C24.8014 39.176 22.356 39.176 20.1822 39.9911H20.0464L19.9105 40.127C18.1444 40.9421 16.1065 40.8063 14.4762 40.127C12.3024 39.176 9.85697 39.176 7.68323 39.9911L7.00393 40.127L6.86807 40.2628C5.10191 41.078 3.06402 40.9421 1.43372 40.2628C1.02614 40.127 0.482704 40.2628 0.346846 40.6704C0.210987 41.078 0.346846 41.6214 0.754422 41.7573C1.84129 42.3007 3.06402 42.5724 4.28675 42.5724C5.37362 42.5724 6.59635 42.3007 7.68323 41.8931H7.81908H7.95494C9.72111 41.078 11.759 41.2138 13.3893 41.8931C14.4762 42.4366 15.6989 42.7083 16.9216 42.7083C18.0085 42.7083 19.2312 42.4366 20.3181 42.029H20.454H20.5898C22.356 41.2138 24.3939 41.3497 26.0242 42.029C27.111 42.5724 28.3338 42.8441 29.5565 42.8441C30.6434 42.8441 31.8661 42.5724 32.953 42.1649H33.0888H33.2247C34.9909 41.3497 37.0287 41.4856 38.659 42.1649C39.7459 42.7083 40.9687 42.98 42.1914 42.98C43.2783 42.98 44.501 42.7083 45.5879 42.3007L45.7237 42.1649H45.8596C47.6257 41.3497 49.6636 41.4856 51.2939 42.1649C52.3808 42.7083 53.6035 42.98 54.8263 42.98C55.9131 42.98 57.1359 42.7083 58.2227 42.3007L58.3586 42.1649C58.7662 41.4856 58.902 41.078 58.7662 40.6704Z" fill="#16478E"/>
<path d="M4.28704 24.9107C3.87946 24.9107 3.47189 24.5031 3.47189 24.0956V12.0041C3.33603 11.5965 3.74361 11.189 4.28704 11.189C4.69462 11.189 5.10219 11.5965 5.10219 12.0041V23.9597C5.10219 24.5031 4.69462 24.9107 4.28704 24.9107Z" fill="#16478E"/>
<path d="M4.28683 46.92C3.87926 46.92 3.47168 46.5124 3.47168 46.1049V34.5569C3.47168 34.1493 3.87926 33.7417 4.28683 33.7417C4.69441 33.7417 5.10199 34.1493 5.10199 34.5569V46.1049C5.10199 46.5124 4.69441 46.92 4.28683 46.92Z" fill="#16478E"/>
<path d="M16.9218 24.9107C16.5143 24.9107 16.1067 24.5031 16.1067 24.0956V12.0041C16.1067 11.5965 16.5143 11.189 16.9218 11.189C17.3294 11.189 17.737 11.5965 17.737 12.0041V23.9597C17.737 24.5031 17.3294 24.9107 16.9218 24.9107Z" fill="#16478E"/>
<path d="M16.9218 47.0557C16.5143 47.0557 16.1067 46.6482 16.1067 46.2406V34.6926C16.1067 34.285 16.5143 33.8774 16.9218 33.8774C17.3294 33.8774 17.737 34.285 17.737 34.6926V46.2406C17.737 46.6482 17.3294 47.0557 16.9218 47.0557Z" fill="#16478E"/>
<path d="M29.5569 24.9107C29.1493 24.9107 28.7417 24.5031 28.7417 24.0956V12.0041C28.7417 11.5965 29.1493 11.189 29.5569 11.189C29.9644 11.189 30.372 11.5965 30.372 12.0041V23.9597C30.372 24.5031 29.9644 24.9107 29.5569 24.9107Z" fill="#16478E"/>
<path d="M29.5569 47.0557C29.1493 47.0557 28.7417 46.6482 28.7417 46.2406V34.6926C28.7417 34.285 29.1493 33.8774 29.5569 33.8774C29.9644 33.8774 30.372 34.285 30.372 34.6926V46.2406C30.372 46.6482 29.9644 47.0557 29.5569 47.0557Z" fill="#16478E"/>
<path d="M42.1916 24.9107C41.784 24.9107 41.3765 24.5031 41.3765 24.0956V12.0041C41.3765 11.5965 41.784 11.189 42.1916 11.189C42.5992 11.189 43.0068 11.5965 43.0068 12.0041V23.9597C43.0068 24.5031 42.5992 24.9107 42.1916 24.9107Z" fill="#16478E"/>
<path d="M42.1916 47.0557C41.784 47.0557 41.3765 46.6482 41.3765 46.2406V34.6926C41.3765 34.285 41.784 33.8774 42.1916 33.8774C42.5992 33.8774 43.0068 34.285 43.0068 34.6926V46.2406C43.0068 46.6482 42.5992 47.0557 42.1916 47.0557Z" fill="#16478E"/>
<path d="M54.8264 24.9107C54.4188 24.9107 54.0112 24.5031 54.0112 24.0956V12.0041C54.0112 11.5965 54.4188 11.189 54.8264 11.189C55.234 11.189 55.6415 11.5965 55.6415 12.0041V23.9597C55.6415 24.5031 55.234 24.9107 54.8264 24.9107Z" fill="#16478E"/>
<path d="M54.8264 47.0557C54.4188 47.0557 54.0112 46.6482 54.0112 46.2406V34.6926C54.0112 34.285 54.4188 33.8774 54.8264 33.8774C55.234 33.8774 55.6415 34.285 55.6415 34.6926V46.2406C55.6415 46.6482 55.234 47.0557 54.8264 47.0557Z" fill="#16478E"/>
</svg>
