<svg width="53" height="45" viewBox="0 0 53 45" fill="none" xmlns="http://www.w3.org/2000/svg">
<path d="M15.5391 25.2984C15.1732 25.2984 14.8073 24.9325 14.8073 24.5666V19.5657C14.8073 19.1998 15.1732 18.8339 15.5391 18.8339C15.905 18.8339 16.2709 19.1998 16.2709 19.5657V24.5666C16.2709 24.9325 15.905 25.2984 15.5391 25.2984Z" fill="#16478E"/>
<path d="M4.55996 44.2068C4.19404 44.2068 3.82812 43.8409 3.82812 43.475V38.4741C3.82812 38.1082 4.19404 37.7423 4.55996 37.7423C4.92587 37.7423 5.29179 38.1082 5.29179 38.4741V43.475C5.41376 43.8409 5.04785 44.2068 4.55996 44.2068Z" fill="#16478E"/>
<path d="M18.8327 14.6855C18.5888 14.6855 18.3449 14.5636 18.1009 14.3196C17.857 13.9537 17.9789 13.4658 18.3449 13.2219L22.6139 10.7824C22.9798 10.5385 23.4677 10.6605 23.7116 11.0264C23.9556 11.3923 23.8336 11.8802 23.4677 12.1241L19.1987 14.5636C19.0767 14.6855 18.9547 14.6855 18.8327 14.6855Z" fill="#16478E"/>
<path d="M33.9589 14.6855C33.8369 14.6855 33.715 14.6855 33.593 14.5636L29.324 12.1241C28.9581 11.8802 28.8361 11.3923 29.08 11.0264C29.324 10.6605 29.8119 10.5385 30.1778 10.7824L34.4468 13.2219C34.8127 13.4658 34.9347 13.9537 34.6908 14.3196C34.4468 14.5636 34.2029 14.6855 33.9589 14.6855Z" fill="#16478E"/>
<path d="M37.2534 25.2984C36.8875 25.2984 36.5216 24.9325 36.5216 24.5666V19.5657C36.5216 19.1998 36.8875 18.8339 37.2534 18.8339C37.6194 18.8339 37.9853 19.1998 37.9853 19.5657V24.5666C37.9853 24.9325 37.6194 25.2984 37.2534 25.2984Z" fill="#16478E"/>
<path d="M48.1105 6.51188C47.7446 6.51188 47.3787 6.14597 47.3787 5.78005V0.779196C47.3787 0.413279 47.6226 0.0473633 48.1105 0.0473633C48.4764 0.0473633 48.8423 0.413279 48.8423 0.779196V5.78005C48.8423 6.14597 48.4764 6.51188 48.1105 6.51188Z" fill="#16478E"/>
<path d="M29.6899 33.472C29.446 33.472 29.202 33.3501 28.9581 33.1061C28.7141 32.7402 28.8361 32.2523 29.202 32.0084L33.4711 29.5689C33.837 29.325 34.3249 29.447 34.4468 29.8129C34.6908 30.1788 34.5688 30.6667 34.2029 30.7887L29.9339 33.2281C29.9339 33.472 29.8119 33.472 29.6899 33.472Z" fill="#16478E"/>
<path d="M23.1019 33.472C22.9799 33.472 22.8579 33.472 22.736 33.35L18.4669 30.9106C18.101 30.6667 17.979 30.1788 18.223 29.9348C18.4669 29.5689 18.8328 29.4469 19.1988 29.6909L23.4678 32.1303C23.8337 32.3743 23.9557 32.8622 23.7117 33.2281C23.5898 33.35 23.3458 33.472 23.1019 33.472Z" fill="#16478E"/>
<path d="M40.5471 14.6855C40.3031 14.6855 40.0592 14.5636 39.9372 14.3196C39.6933 13.9537 39.8152 13.4658 40.1812 13.2219L44.4502 10.7824C44.8161 10.5385 45.304 10.6605 45.5479 11.0264C45.7919 11.3923 45.6699 11.8802 45.304 12.1241L41.035 14.5636C40.791 14.6855 40.669 14.6855 40.5471 14.6855Z" fill="#16478E"/>
<path d="M4.68132 6.51188C4.19343 6.51188 3.82751 6.14597 3.82751 5.78005V0.779196C3.82751 0.413279 4.19343 0.0473633 4.68132 0.0473633C5.04724 0.0473633 5.41315 0.413279 5.41315 0.779196V5.78005C5.41315 6.14597 5.04724 6.51188 4.68132 6.51188Z" fill="#16478E"/>
<path d="M12.1227 14.6855C12.0008 14.6855 11.8788 14.6855 11.7568 14.5636L7.4878 12.1241C7.12189 11.8802 6.99991 11.3923 7.24386 11.0264C7.4878 10.6605 7.97569 10.5385 8.34161 10.7824L12.6106 13.2219C12.9765 13.4658 13.0985 13.9537 12.8546 14.3196C12.7326 14.5636 12.4887 14.6855 12.1227 14.6855Z" fill="#16478E"/>
<path d="M26.3963 6.51188C26.0303 6.51188 25.6644 6.14597 25.6644 5.78005V0.779196C25.6644 0.413279 26.0303 0.0473633 26.3963 0.0473633C26.8841 0.0473633 27.1281 0.413279 27.1281 0.779196V5.78005C27.1281 6.14597 26.7622 6.51188 26.3963 6.51188Z" fill="#16478E"/>
<path d="M7.85372 33.472C7.60977 33.472 7.36583 33.3501 7.24386 33.1061C6.99991 32.7402 7.12189 32.2523 7.4878 32.0084L11.7568 29.5689C12.1227 29.325 12.6106 29.447 12.8546 29.8129C13.0985 30.1788 12.9765 30.6667 12.6106 30.9106L8.34161 33.3501C8.21963 33.472 8.09766 33.472 7.85372 33.472Z" fill="#16478E"/>
<path d="M48.1105 44.2068C47.7446 44.2068 47.3787 43.8409 47.3787 43.475V38.4741C47.3787 38.1082 47.7446 37.7423 48.1105 37.7423C48.4764 37.7423 48.8423 38.1082 48.8423 38.4741V43.475C48.8423 43.8409 48.4764 44.2068 48.1105 44.2068Z" fill="#16478E"/>
<path d="M44.8161 33.472C44.6941 33.472 44.5722 33.472 44.4502 33.3501L40.1812 30.9106C39.8152 30.6667 39.6933 30.1788 39.9372 29.8129C40.1812 29.447 40.669 29.325 41.035 29.5689L45.304 32.0084C45.6699 32.2523 45.7919 32.7402 45.5479 33.1061C45.304 33.3501 45.06 33.472 44.8161 33.472Z" fill="#16478E"/>
<path d="M26.3963 44.2068C26.0303 44.2068 25.6644 43.8409 25.6644 43.475V38.4741C25.6644 38.1082 26.0303 37.7423 26.3963 37.7423C26.8841 37.7423 27.1281 38.1082 27.1281 38.4741V43.475C27.1281 43.8409 26.7622 44.2068 26.3963 44.2068Z" fill="#16478E"/>
<path d="M26.3964 5.04895C23.8347 5.04895 21.8828 7.12278 21.8828 9.68457C21.8828 12.2464 23.9566 14.1982 26.3964 14.1982C28.9582 14.1982 31.0321 12.1244 31.0321 9.68457C30.9101 7.00079 28.8362 5.04895 26.3964 5.04895ZM26.3964 12.6123C24.6886 12.6123 23.3467 11.2704 23.3467 9.56258C23.3467 7.85472 24.6886 6.51283 26.3964 6.51283C28.1043 6.51283 29.4462 7.85472 29.4462 9.56258C29.4462 11.2704 27.9823 12.6123 26.3964 12.6123Z" fill="#16478E"/>
<path d="M48.1105 14.0762C50.6723 14.0762 52.7462 12.0024 52.7462 9.56262C52.7462 7.00083 50.6723 4.927 48.1105 4.927C45.5488 4.927 43.5969 7.00083 43.5969 9.56262C43.4749 12.1244 45.5488 14.0762 48.1105 14.0762ZM48.1105 6.51287C49.8184 6.51287 51.1603 7.85476 51.1603 9.56262C51.1603 11.2705 49.8184 12.6124 48.1105 12.6124C46.4027 12.6124 45.0608 11.2705 45.0608 9.56262C45.0608 7.85476 46.4027 6.51287 48.1105 6.51287Z" fill="#16478E"/>
<path d="M15.5393 11.1484C12.9775 11.1484 10.9037 13.2223 10.9037 15.6621C10.9037 18.2239 12.9775 20.2977 15.5393 20.2977C18.1011 20.2977 20.0529 18.2239 20.0529 15.6621C20.0529 13.2223 17.9791 11.1484 15.5393 11.1484ZM15.5393 18.8338C13.8314 18.8338 12.4896 17.4919 12.4896 15.7841C12.4896 14.0762 13.8314 12.7343 15.5393 12.7343C17.2472 12.7343 18.5891 14.0762 18.5891 15.7841C18.5891 17.4919 17.1252 18.8338 15.5393 18.8338Z" fill="#16478E"/>
<path d="M37.2535 11.1484C34.6917 11.1484 32.7399 13.2223 32.7399 15.6621C32.7399 18.2239 34.8137 20.2977 37.2535 20.2977C39.8153 20.2977 41.8891 18.2239 41.8891 15.6621C41.7671 13.2223 39.6933 11.1484 37.2535 11.1484ZM37.2535 18.8338C35.5456 18.8338 34.2037 17.4919 34.2037 15.7841C34.2037 14.0762 35.5456 12.7343 37.2535 12.7343C38.9614 12.7343 40.3032 14.0762 40.3032 15.7841C40.3032 17.4919 38.8394 18.8338 37.2535 18.8338Z" fill="#16478E"/>
<path d="M4.68213 5.04822C2.12034 5.04822 0.0465088 7.00006 0.0465088 9.56185C0.0465088 12.1236 2.12034 14.0755 4.56014 14.0755C7.12193 14.0755 9.19576 12.0016 9.19576 9.56185C9.19576 7.00006 7.12193 5.04822 4.68213 5.04822ZM4.68213 12.6116C2.97427 12.6116 1.63238 11.2697 1.63238 9.56185C1.63238 7.85399 2.97427 6.5121 4.68213 6.5121C6.38999 6.5121 7.73188 7.85399 7.73188 9.56185C7.60989 11.2697 6.268 12.6116 4.68213 12.6116Z" fill="#16478E"/>
<path d="M37.2535 23.7134C34.6917 23.7134 32.7399 25.7872 32.7399 28.349C32.7399 30.9108 34.8137 32.8626 37.2535 32.8626C39.8153 32.8626 41.8891 30.7888 41.8891 28.349C41.7671 25.7872 39.6933 23.7134 37.2535 23.7134ZM37.2535 31.3987C35.5456 31.3987 34.2037 30.0569 34.2037 28.349C34.2037 26.6411 35.5456 25.2992 37.2535 25.2992C38.9614 25.2992 40.3032 26.6411 40.3032 28.349C40.3032 30.0569 38.8394 31.3987 37.2535 31.3987Z" fill="#16478E"/>
<path d="M15.5393 23.7134C12.9775 23.7134 10.9037 25.7872 10.9037 28.349C10.9037 30.9108 12.9775 32.8626 15.5393 32.8626C18.1011 32.8626 20.0529 30.7888 20.0529 28.349C20.0529 25.7872 17.9791 23.7134 15.5393 23.7134ZM15.5393 31.3987C13.8314 31.3987 12.4896 30.0569 12.4896 28.349C12.4896 26.6411 13.8314 25.2992 15.5393 25.2992C17.2472 25.2992 18.5891 26.6411 18.5891 28.349C18.5891 30.0569 17.1252 31.3987 15.5393 31.3987Z" fill="#16478E"/>
<path d="M26.3964 30.0569C23.8347 30.0569 21.8828 32.1307 21.8828 34.5705C21.8828 37.1323 23.9566 39.2061 26.3964 39.2061C28.9582 39.2061 31.0321 37.1323 31.0321 34.5705C30.9101 32.1307 28.8362 30.0569 26.3964 30.0569ZM26.3964 37.7423C24.6886 37.7423 23.3467 36.4004 23.3467 34.6925C23.3467 32.9846 24.6886 31.6428 26.3964 31.6428C28.1043 31.6428 29.4462 32.9846 29.4462 34.6925C29.4462 36.4004 27.9823 37.7423 26.3964 37.7423Z" fill="#16478E"/>
<path d="M4.56014 30.0569C1.99835 30.0569 0.0465088 32.1307 0.0465088 34.5705C0.0465088 37.1323 2.12034 39.2061 4.56014 39.2061C7.12193 39.2061 9.19576 37.1323 9.19576 34.5705C9.19576 32.1307 7.12193 30.0569 4.56014 30.0569ZM4.56014 37.7423C2.85228 37.7423 1.51039 36.4004 1.51039 34.6925C1.51039 32.9846 2.85228 31.6428 4.56014 31.6428C6.268 31.6428 7.60989 32.9846 7.60989 34.6925C7.60989 36.4004 6.268 37.7423 4.56014 37.7423Z" fill="#16478E"/>
<path d="M48.1104 30.0569C45.5486 30.0569 43.5968 32.1307 43.5968 34.5705C43.5968 37.1323 45.6706 39.2061 48.1104 39.2061C50.6722 39.2061 52.746 37.1323 52.746 34.5705C52.6241 32.1307 50.6722 30.0569 48.1104 30.0569ZM48.1104 37.7423C46.4026 37.7423 45.0607 36.4004 45.0607 34.6925C45.0607 32.9846 46.4026 31.6428 48.1104 31.6428C49.8183 31.6428 51.1602 32.9846 51.1602 34.6925C51.1602 36.4004 49.8183 37.7423 48.1104 37.7423Z" fill="#16478E"/>
</svg>
