<svg width="59" height="53" viewBox="0 0 59 53" fill="none" xmlns="http://www.w3.org/2000/svg">
<path d="M35.7493 3.07129C35.0173 3.07129 34.4074 3.19328 33.6755 3.31527C33.3095 3.43726 33.0655 3.80323 33.1875 4.29119C33.3095 4.65716 33.6755 4.90114 34.1634 4.77915C34.6514 4.65716 35.2613 4.53517 35.8713 4.53517C38.3111 4.53517 40.6289 5.99905 41.6048 8.31686C41.6048 8.68283 41.8488 8.92681 42.2148 8.92681L42.4587 8.80482C42.8247 8.68283 43.0687 8.19487 42.8247 7.8289C41.6048 5.02313 38.799 3.07129 35.7493 3.07129Z" fill="#16478E"/>
<path d="M48.0975 15.6364C48.2195 15.0265 48.3415 14.5385 48.3415 13.9286C48.3415 9.53694 44.6818 5.87724 40.2901 5.87724C39.0702 5.87724 37.8503 6.12122 36.7524 6.73117C34.9226 2.94948 31.1409 0.387695 26.7492 0.387695C22.3576 0.387695 18.4539 2.94948 16.6241 6.60918C15.5262 6.12122 14.3063 5.75525 13.0864 5.75525C8.69473 5.75525 5.03503 9.29296 5.03503 13.8066C5.03503 14.4165 5.15702 15.0265 5.27901 15.5145C2.35125 17.5883 0.399414 21.004 0.399414 24.7857C0.399414 31.0072 5.401 36.0088 11.6225 36.0088C12.5984 36.0088 13.4523 35.8868 14.3063 35.6428C14.6722 35.5208 14.9162 35.1548 14.9162 34.6669C14.7942 34.3009 14.4283 34.0569 13.9403 34.1789C13.2084 34.3009 12.3544 34.4229 11.6225 34.4229C6.25493 34.4229 1.86329 30.0313 1.86329 24.6637C1.86329 20.0281 4.91304 16.1244 9.42667 15.1485C9.79264 15.0265 10.0366 14.6605 10.0366 14.1726C9.91463 14.0506 9.54866 13.8066 9.18269 13.8066C8.32876 14.0506 7.47483 14.2946 6.74289 14.6605C6.74289 14.4165 6.6209 14.0506 6.6209 13.8066C6.6209 10.2689 9.54866 7.34112 13.0864 7.34112C14.0623 7.34112 15.1602 7.5851 16.0141 8.07306C15.7701 8.68301 15.6482 9.29296 15.5262 9.90291C15.4042 10.2689 15.7701 10.7568 16.1361 10.7568C16.5021 10.8788 16.99 10.5129 16.99 10.1469C17.722 5.38928 21.7477 1.97356 26.6273 1.97356C31.5069 1.97356 35.6545 5.63326 36.2645 10.3909C36.2645 10.7568 36.6304 11.0008 36.9964 11.0008H37.1184C37.4844 11.0008 37.8503 10.5129 37.7283 10.1469C37.6063 9.41495 37.4844 8.68301 37.2404 8.07306C38.0943 7.5851 39.1922 7.34112 40.1681 7.34112C43.7058 7.34112 46.6336 10.2689 46.6336 13.8066C46.6336 14.0506 46.6336 14.4165 46.5116 14.6605C45.9017 14.4165 45.2917 14.1726 44.6818 13.9286C44.3158 13.8066 43.8278 14.0506 43.7058 14.4165C43.5839 14.7825 43.8278 15.2705 44.1938 15.3925C48.3415 16.6124 51.1472 20.516 51.1472 24.7857C51.1472 30.1532 46.7556 34.5449 41.388 34.5449C40.5341 34.5449 39.8022 34.4229 39.0702 34.3009C38.7043 34.1789 38.2163 34.4229 38.0943 34.7889C37.9723 35.1548 38.2163 35.6428 38.7043 35.7648C39.5582 36.0088 40.5341 36.1308 41.388 36.1308C47.6095 36.1308 52.6111 31.0072 52.6111 24.9077C52.9771 21.126 51.1472 17.7103 48.0975 15.6364Z" fill="#16478E"/>
<path d="M56.1214 30.0312C56.2434 30.1532 56.3653 30.1532 56.6093 30.1532C56.8533 30.1532 57.0973 30.0312 57.2193 29.9092C58.3172 28.4453 58.9271 26.7375 58.9271 24.9076C58.9271 21.2479 56.4873 18.0762 53.0716 16.9783C52.7056 16.8563 52.2177 17.1003 52.0957 17.4662C51.9737 17.8322 52.2177 18.3202 52.5837 18.4421C55.3894 19.2961 57.3413 21.9799 57.3413 24.9076C57.3413 26.3715 56.8533 27.8354 55.9994 28.9333C55.7554 29.2993 55.7554 29.7872 56.1214 30.0312Z" fill="#16478E"/>
<path d="M38.3384 37.3506C41.3882 34.3008 42.6081 29.6652 41.2662 25.5175C41.1442 25.2735 41.0222 25.0296 40.7782 25.0296C38.0944 24.1756 35.1667 24.4196 32.6049 25.5175C31.629 22.9557 29.5552 20.7599 27.1154 19.418C26.8714 19.296 26.6274 19.296 26.3834 19.418C23.9436 20.7599 21.9918 22.9557 20.8939 25.5175C18.3321 24.4196 15.4043 24.1756 12.7205 25.0296C12.4766 25.1516 12.2326 25.2735 12.2326 25.5175C10.8907 29.6652 11.9886 34.1788 15.0383 37.3506C17.1122 39.4244 19.9179 40.6443 22.8457 40.7663L25.8955 46.3778V52.2333C25.8955 52.5993 26.2614 52.9653 26.6274 52.9653C26.9934 52.9653 27.3593 52.5993 27.3593 52.2333V46.3778L30.4091 40.7663C33.4588 40.6443 36.2646 39.4244 38.3384 37.3506ZM26.7494 44.548L24.5536 40.6443C25.2855 40.5223 26.0174 40.4003 26.7494 40.2783C27.4813 40.5223 28.2133 40.6443 28.9452 40.6443L26.7494 44.548ZM13.4525 26.3715C15.8923 25.7615 18.5761 26.0055 20.8939 27.2254C21.1378 27.3474 21.3818 27.3474 21.5038 27.2254C21.7478 27.1034 21.8698 26.9814 21.9918 26.7374C22.7237 24.2976 24.4316 22.1018 26.6274 20.8819C28.8232 22.2238 30.5311 24.2976 31.263 26.7374C31.385 26.9814 31.507 27.1034 31.751 27.2254C31.995 27.3474 32.2389 27.3474 32.3609 27.2254C34.6787 26.0055 37.3625 25.7615 39.8023 26.3715C40.7782 29.9092 39.8023 33.6909 37.1185 36.2526C34.4348 38.9364 30.4091 39.9123 26.7494 38.8144C26.6274 38.8144 26.5054 38.8144 26.2614 38.8144C22.6017 39.9123 18.698 38.9364 15.8923 36.2526C13.5745 33.6909 12.5985 29.9092 13.4525 26.3715Z" fill="#16478E"/>
<path d="M30.6532 38.3264C32.6051 38.0824 34.4349 37.3505 35.8988 36.0086C37.4847 34.6667 38.4606 32.9588 38.9486 31.007C39.0706 30.641 38.8266 30.1531 38.3386 30.0311C37.9726 29.9091 37.4847 30.1531 37.4847 30.641C37.1187 32.3489 36.2648 33.8128 34.9229 34.9107C33.703 36.0086 32.2391 36.6185 30.5313 36.8625C30.1653 36.8625 29.7993 37.3505 29.7993 37.7165C29.9213 37.9604 30.2873 38.3264 30.6532 38.3264Z" fill="#16478E"/>
</svg>
