<svg width="63" height="50" viewBox="0 0 63 50" fill="none" xmlns="http://www.w3.org/2000/svg">
<path d="M58.6981 20.3678L57.0305 20.2401C56.9022 22.7949 56.3891 25.2219 55.7477 27.2657C55.6194 27.7767 55.6194 28.1599 55.876 28.5431C56.6456 29.9482 57.287 32.1198 57.287 34.5468C57.287 34.93 57.287 35.3132 57.287 35.5687C57.1587 36.9738 56.9022 38.1235 56.6456 39.2731C56.5174 39.6563 56.5174 40.1673 56.7739 40.5505L59.2112 44.7658C59.3395 45.1491 59.3395 45.2768 59.3395 45.4045C59.3395 45.66 59.2112 45.9155 59.0829 46.0432C58.9546 46.171 58.6981 46.2987 58.4415 46.2987C58.3132 46.2987 58.185 46.2987 58.0567 46.171L54.978 44.3826C54.5932 44.1271 53.9518 44.1271 53.567 44.2549C50.7448 45.4045 47.2813 46.2987 42.1502 46.2987C36.8908 46.2987 32.2728 45.4045 29.4507 44.2549C29.0658 44.1271 28.681 44.1271 28.2962 44.1271C24.9609 44.8936 21.2409 45.2768 17.9056 45.2768C14.0573 45.2768 12.1331 44.8936 9.69585 43.9994C9.31101 43.8717 8.7979 43.8717 8.41306 44.1271L4.94955 46.0432C4.82128 46.171 4.693 46.171 4.56472 46.171C4.30816 46.171 4.05161 46.0432 3.92333 45.9155C3.79505 45.7877 3.66677 45.5323 3.66677 45.2768C3.66677 45.1491 3.66677 45.0213 3.79505 44.8936L6.61717 39.9118C6.87373 39.5286 6.87373 39.0176 6.74545 38.5067C6.10406 36.7183 5.8475 34.93 5.8475 33.1417C5.8475 30.7146 6.48889 28.5431 7.25856 27.138C7.51512 26.7548 7.51512 26.2438 7.38684 25.8606C6.48889 23.1781 5.97578 19.9846 5.97578 16.7912C5.97578 14.7474 6.23234 12.7036 6.61717 10.9152C6.74545 10.532 6.61717 10.1488 6.48889 9.76558L3.66677 5.29474C3.66677 5.167 3.5385 5.03927 3.5385 4.78379C3.5385 4.52831 3.66677 4.27284 3.79505 4.1451C3.92333 4.01736 4.17989 3.88962 4.43644 3.88962C4.56472 3.88962 4.693 3.88962 4.82128 4.01736L8.02823 5.80569C8.41306 6.06117 8.92618 6.06117 9.43929 5.93343C12.3897 4.78379 15.4684 4.01736 20.4712 4.01736C25.7306 4.01736 30.3486 4.91153 33.1707 6.06117C33.5556 6.18891 33.8121 6.18891 34.197 6.18891C36.3777 5.67796 40.3543 5.167 43.0482 5.29474C44.9723 5.29474 46.8965 5.29474 48.5641 5.55022C50.2317 5.67796 51.7711 5.93343 52.9256 6.31665C53.1821 6.31665 53.3104 6.44439 53.567 6.44439C53.8235 6.44439 53.9518 6.44439 54.0801 6.31665C54.4649 6.18891 54.8497 6.06117 55.2346 5.80569C55.7477 5.55022 56.5174 5.167 57.0305 4.78379C57.5436 4.52831 58.0567 4.1451 58.185 4.1451C58.3132 4.01736 58.4415 4.01736 58.5698 4.01736C58.8264 4.01736 59.0829 4.1451 59.2112 4.27284C59.2112 4.40057 59.3395 4.52831 59.3395 4.78379C59.3395 4.91153 59.3395 5.03926 59.2112 5.29474L56.3891 10.1488C56.1325 10.532 56.1325 11.043 56.2608 11.4262C56.7739 13.2145 57.1587 15.6415 57.1587 18.1963C57.1587 18.835 57.1587 19.6014 57.0305 20.2401L58.6981 20.3678L60.3657 20.4956C60.3657 19.7292 60.494 18.9627 60.494 18.1963C60.494 15.2583 60.1091 12.7036 59.4678 10.4043L57.8001 10.9152L59.2112 11.6817L62.0333 6.8276C62.4181 6.18891 62.5464 5.42248 62.5464 4.78379C62.5464 3.76188 62.1616 2.61224 61.3919 1.84581C60.6223 1.07938 59.4678 0.696167 58.4415 0.696167C57.6719 0.696167 57.0305 0.823905 56.3891 1.20712C56.2608 1.33486 56.0042 1.4626 55.6194 1.59033C55.1063 1.84581 54.4649 2.22903 53.9518 2.61224C53.6952 2.73998 53.4387 2.86772 53.1821 2.99545L53.0538 3.12319L53.3104 4.01736L53.1821 3.12319C53.0538 3.12319 52.9256 3.12319 52.9256 3.12319L53.1821 4.01736L53.0538 3.12319L53.1821 4.78379L53.6952 3.25093C52.2842 2.73998 50.4883 2.4845 48.6924 2.35676C46.8965 2.22903 44.844 2.10129 42.9199 2.10129C39.9695 2.10129 35.8646 2.4845 33.299 3.12319L33.8121 4.52831L34.4535 2.99545C31.1183 1.59033 26.1154 0.696167 20.4712 0.696167C15.0835 0.696167 11.4917 1.4626 8.28479 2.73998L8.92618 4.27284L9.69585 2.86772L6.48889 1.20712C5.8475 0.823905 5.20611 0.696167 4.43644 0.696167C3.41022 0.696167 2.38399 1.07938 1.48605 1.84581C0.716377 2.73998 0.331543 3.76188 0.331543 4.78379C0.331543 5.55022 0.459821 6.18891 0.844655 6.8276L3.5385 11.5539L4.94955 10.7875L3.41022 10.4043C2.89711 12.4481 2.64055 14.6196 2.64055 16.9189C2.64055 20.3678 3.15366 23.9445 4.17989 27.0102L5.71922 26.4993L4.30816 25.7329C3.15366 27.7767 2.38399 30.4592 2.38399 33.3971C2.38399 35.441 2.76883 37.7402 3.5385 39.9118L5.07783 39.4008L3.66677 38.6344L0.844655 43.6162C0.459821 43.9994 0.331543 44.7658 0.331543 45.4045C0.331543 46.4264 0.716377 47.5761 1.48605 48.3425C2.25571 49.1089 3.41022 49.6199 4.43644 49.6199C5.07783 49.6199 5.8475 49.4922 6.48889 49.1089L9.9524 47.1929L9.18273 45.7877L8.66962 47.3206C11.3635 48.2148 13.8007 48.7257 17.9056 48.7257C21.4974 48.7257 25.4741 48.3425 29.0658 47.4483L28.681 45.9155L28.0396 47.4483C31.3748 48.8535 36.3777 49.7476 42.0219 49.7476C47.5379 49.7476 51.5145 48.8535 54.7215 47.4483L54.0801 45.9155L53.3104 47.3206L56.3891 49.1089C57.0305 49.4922 57.8001 49.6199 58.4415 49.6199C59.4678 49.6199 60.6223 49.2367 61.3919 48.3425C62.1616 47.5761 62.5464 46.5542 62.5464 45.4045C62.5464 44.7658 62.4181 43.9994 62.0333 43.3607L59.596 39.0176L58.185 39.784L59.7243 40.295C60.1091 38.8899 60.494 37.4848 60.6223 35.8242C60.6223 35.441 60.6223 34.93 60.6223 34.5468C60.6223 31.6088 59.9809 28.9263 58.6981 26.8825L57.287 27.6489L58.8264 28.1599C59.596 25.8606 60.1091 23.3058 60.2374 20.3678H58.6981ZM38.3019 39.4008C37.1474 40.295 36.1211 41.1892 34.5818 41.9556C33.0425 42.722 31.1183 43.4885 28.2962 44.2549C27.3982 44.5104 26.8851 45.4045 27.1417 46.171C27.3982 46.9374 28.1679 47.5761 29.0658 47.3206C32.1445 46.5542 34.3252 45.66 36.1211 44.7658C37.917 43.8717 39.1998 42.8498 40.3543 41.9556C40.9957 41.4446 41.124 40.4227 40.6109 39.6563C40.0978 39.0176 39.0715 38.8899 38.3019 39.4008ZM4.43644 27.3934C4.82128 27.9044 5.33439 28.6708 6.10406 29.4373C6.87373 30.2037 8.02823 30.9701 9.43929 31.4811C10.209 31.8643 11.2352 31.3533 11.4917 30.5869C11.8766 29.8205 11.3635 28.7986 10.5938 28.5431C9.56757 28.1599 8.7979 27.6489 8.28479 27.138C7.77167 26.627 7.38684 26.1161 7.002 25.6051C6.48889 24.8387 5.46267 24.7109 4.693 25.2219C4.05161 25.7329 3.92333 26.7548 4.43644 27.3934ZM35.3515 14.7474C34.9666 14.7474 34.7101 14.7474 34.3252 14.7474C29.8355 14.7474 25.8589 16.1525 22.6519 18.1963C19.445 20.2401 17.136 23.0503 15.7249 25.8606C15.3401 26.627 15.7249 27.6489 16.4946 28.0321C17.2643 28.4154 18.2905 28.0321 18.6753 27.2657C19.8298 24.9664 21.754 22.6671 24.4478 20.8788C27.1417 19.0905 30.4769 17.9408 34.3252 17.9408C34.5818 17.9408 34.8384 17.9408 35.2232 17.9408C36.1211 17.9408 36.8908 17.3021 36.8908 16.408C37.0191 15.5138 36.2494 14.7474 35.3515 14.7474ZM33.0425 6.06117C33.0425 6.06117 33.4273 6.18891 33.9404 6.44439C34.7101 6.8276 35.9929 7.33855 37.2756 7.97724C37.917 8.23272 38.4301 8.4882 38.815 8.74367C39.3281 8.99915 39.5846 9.12689 39.7129 9.25462C40.4826 9.76558 41.5088 9.5101 41.8937 8.74367C42.4068 7.97724 42.1502 6.95534 41.3805 6.44439C41.124 6.31665 40.8674 6.18891 40.6109 6.06117C39.5846 5.55022 38.0453 4.78379 36.6342 4.1451C35.3515 3.50641 34.197 2.99545 34.197 2.99545C33.4273 2.61224 32.4011 2.99545 32.0162 3.88962C31.888 4.78379 32.2728 5.67796 33.0425 6.06117Z" fill="#16478E"/>
</svg>
