<svg width="72" height="63" viewBox="0 0 72 63" fill="none" xmlns="http://www.w3.org/2000/svg">
<path d="M14.7193 22.0626V58.9307C14.7193 59.6584 15.2055 60.2648 15.935 60.386C22.6214 61.9626 29.4293 62.6903 36.2373 62.6903C43.0452 62.6903 49.8532 61.9626 56.5396 60.386C57.269 60.2648 57.7553 59.5371 57.7553 58.9307V22.0626C57.7553 21.2137 57.0259 20.486 56.1749 20.486C55.3239 20.486 54.5945 21.2137 54.5945 22.0626V58.9307H56.1749L55.8102 57.4754C49.3669 58.9307 42.8021 59.6584 36.1157 59.6584C29.5509 59.6584 22.8645 58.9307 16.4213 57.4754L16.0565 58.9307H17.637V22.0626C17.637 21.2137 16.9075 20.486 16.0565 20.486C15.4487 20.6073 14.7193 21.2137 14.7193 22.0626ZM23.4724 0.717963L14.233 3.74988C13.8683 3.87115 13.6251 4.11371 13.382 4.35626L1.10333 22.7903C0.617052 23.518 0.860193 24.4882 1.58962 24.9733L10.829 31.1584C11.5584 31.6435 12.531 31.4009 13.0173 30.6733C13.5036 29.9456 13.2604 28.9754 12.531 28.4903L4.50732 23.1541L15.6918 6.41796L24.4449 3.50732C25.2959 3.26477 25.6606 2.41584 25.4175 1.5669C25.1743 0.83924 24.3234 0.354134 23.4724 0.717963ZM47.6649 2.17328L47.0571 0.717963C43.5315 2.17328 39.8844 2.77966 36.2373 2.77966C32.5902 2.77966 28.8215 2.05201 25.4175 0.717963C24.8096 0.47541 24.2018 0.596687 23.7155 1.08179C23.2292 1.5669 23.1076 2.17328 23.3508 2.77966C24.3233 5.2052 26.0253 7.752 28.2136 9.69243C30.4019 11.6329 33.0764 12.9669 36.2373 12.9669C39.2766 12.9669 42.0727 11.6329 44.261 9.69243C46.4492 7.752 48.1512 5.32647 49.1238 2.77966C49.3669 2.17328 49.2454 1.5669 48.7591 1.08179C48.2728 0.596687 47.6649 0.47541 47.0571 0.717963L47.6649 2.17328L46.2061 1.5669C45.3551 3.6286 43.8962 5.6903 42.1942 7.2669C40.3707 8.84349 38.304 9.81371 36.2373 9.81371C34.1706 9.81371 32.1039 8.84349 30.2803 7.2669C28.4568 5.6903 26.9979 3.6286 26.2685 1.5669L24.8096 2.17328L24.2018 3.6286C28.092 5.2052 32.1039 5.93286 36.2373 5.93286C40.3707 5.93286 44.3825 5.2052 48.2728 3.6286L47.6649 2.17328L46.2061 1.5669L47.6649 2.17328ZM48.1512 3.6286L56.7827 6.53924L67.9672 23.2754L60.0652 28.4903C59.3357 28.9754 59.2142 29.9456 59.5789 30.6733C60.0651 31.4009 61.0377 31.5222 61.7671 31.1584L71.0065 24.9733C71.3712 24.7307 71.6144 24.3669 71.6144 24.0031C71.7359 23.6392 71.6144 23.1541 71.3712 22.9116L59.0926 4.35626C58.8494 4.11371 58.6063 3.87115 58.2416 3.74988L49.0022 0.717963C48.2728 0.354134 47.4218 0.83924 47.0571 1.68818C46.8139 2.41584 47.3002 3.38605 48.1512 3.6286Z" fill="#16478E"/>
</svg>
