<svg width="110" height="115" viewBox="0 0 110 115" fill="none" xmlns="http://www.w3.org/2000/svg">
<path d="M102.327 65.1584C102.127 66.7584 101.827 68.2584 101.427 69.7584L108.127 74.9584L99.7267 75.1584C99.2267 76.4584 98.6267 77.8584 97.9267 79.1584L104.827 86.7584L94.8267 84.4584C93.7267 86.0584 92.5267 87.5584 91.2267 88.9584L97.6267 100.158L86.5267 93.3584C85.4267 94.3584 84.2267 95.2584 82.9267 96.0584L86.5267 105.258L78.4267 98.6584C76.8267 99.4584 75.1267 100.258 73.4267 100.858L74.6267 113.858L68.2267 102.458C66.3267 102.958 64.5267 103.258 62.6267 103.458L60.6267 112.258L57.7267 103.758C57.6267 103.758 57.4267 103.758 57.3267 103.758C56.0267 103.758 54.7267 103.658 53.5267 103.558L49.5267 114.958L47.8267 102.658C46.3267 102.358 44.8267 101.958 43.4267 101.458L36.5267 113.258L37.6267 99.1584C36.3267 98.5584 35.1267 97.8584 33.8267 97.1584L24.5267 105.958L28.9267 93.7584C27.7267 92.7584 26.4267 91.6584 25.3267 90.5584L16.5267 95.9584L21.9267 86.8584C20.4267 85.0584 19.1267 83.0584 17.9267 81.0584L6.92673 83.6584L15.5267 76.1584C15.1267 75.1584 14.7267 74.1584 14.4267 73.1584L0.526733 73.6584L12.7267 66.8584C12.4267 65.1584 12.2267 63.5584 12.1267 61.8584L0.526733 60.1584L12.0267 56.7584C12.0267 55.4584 12.1267 54.1584 12.3267 52.8584L2.72673 49.5584L13.3267 47.8584C13.6267 46.5584 14.0267 45.1584 14.4267 43.9584L4.02673 36.1584L16.9267 38.0584C17.3267 37.2584 17.7267 36.5584 18.1267 35.7584L11.7267 28.1584L21.7267 30.5584C22.2267 29.8584 22.8267 29.2584 23.4267 28.5584L14.3267 16.6584L27.4267 24.5584C28.8267 23.2584 30.3267 22.0584 31.9267 21.0584L28.7267 11.8584L36.0267 18.4584C37.4267 17.6584 38.9267 17.0584 40.4267 16.4584L40.3267 4.0584L46.2267 14.5584C47.8267 14.1584 49.3267 13.8584 50.9267 13.6584L52.0267 4.7584L55.7267 13.1584C56.3267 13.1584 57.0267 13.1584 57.7267 13.1584C59.0267 13.1584 60.3267 13.2584 61.5267 13.3584L66.0267 0.858399L66.7267 14.0584C67.2267 14.1584 67.7267 14.2584 68.2267 14.3584C69.2267 14.6584 70.3267 14.9584 71.3267 15.2584L75.6267 9.1584L75.3267 16.8584C76.9267 17.5584 78.4267 18.3584 79.9267 19.1584L88.0267 12.1584L84.7267 22.3584C86.0267 23.3584 87.3267 24.3584 88.5267 25.4584L94.1267 22.6584L91.2267 28.2584C92.1267 29.2584 92.9267 30.2584 93.7267 31.2584L105.027 29.0584L96.9267 36.1584C97.7267 37.6584 98.5267 39.1584 99.2267 40.7584L108.727 39.2584L100.827 44.8584C100.827 44.9584 100.927 45.1584 101.027 45.2584C101.627 47.0584 102.027 48.9584 102.327 50.7584L109.827 52.0584L102.827 55.5584C102.927 57.4584 102.927 59.3584 102.827 61.2584L109.327 63.7584L102.327 65.1584Z" fill="#82C4ED"/>
</svg>
