<svg width="130" height="144" viewBox="0 0 130 144" fill="none" xmlns="http://www.w3.org/2000/svg">
<path d="M72.856 143.453C71.1722 143.453 69.8251 142.19 69.6567 140.507C69.4883 138.991 70.4144 137.728 71.7615 137.223C71.2564 127.541 70.2461 116.259 64.4368 107.082C63.0055 106.998 61.4901 106.914 60.0588 106.661C56.5227 111.46 55.2598 117.69 54.4179 122.995C55.1757 123.331 55.5966 124.173 55.4282 125.015C55.2599 125.941 54.5021 126.531 53.576 126.531C53.4918 126.531 53.3234 126.531 53.2392 126.531C52.2289 126.362 51.5554 125.352 51.7238 124.342C51.8922 123.5 52.6499 122.91 53.4918 122.826C54.5021 117.69 57.0279 110.618 54.6705 105.483C53.4076 105.146 52.1447 104.725 50.9661 104.22C50.4609 104.051 49.9557 103.715 49.5348 103.462C41.1998 105.314 34.9695 113.986 29.5812 120.89C30.5916 122.068 30.7599 123.836 29.6654 125.015C28.9919 125.773 28.0658 126.194 27.1397 126.194C26.3819 126.194 25.7084 125.941 25.0349 125.436C23.6878 124.257 23.4352 122.237 24.6139 120.89C25.2033 120.132 26.1294 119.795 27.0555 119.795C27.5606 119.795 27.9816 119.879 28.4026 120.132C33.875 113.818 39.4317 106.493 41.7049 97.8211C40.6104 96.7266 39.6001 95.4637 38.5898 94.1167C33.6225 95.7163 29.2445 99.084 25.6242 102.115C25.961 102.873 25.7926 103.799 25.0349 104.304C24.6981 104.556 24.2771 104.725 23.8562 104.725C23.2668 104.725 22.7617 104.472 22.3407 103.967C21.6672 103.125 21.8356 101.947 22.6775 101.357C23.0143 101.105 23.351 101.02 23.772 101.02C24.1929 101.02 24.6139 101.189 25.0349 101.441C28.6551 98.663 34.1276 95.4637 36.485 91.1699C35.1379 89.0651 33.9592 86.7919 32.9489 84.4346C31.7702 84.2662 30.6757 84.182 29.4129 84.182C21.7514 84.182 13.248 87.7181 6.5126 89.5703C6.59679 91.0857 5.67068 92.4328 4.23941 92.8538C3.98683 92.938 3.65007 92.938 3.39749 92.938C1.96622 92.938 0.70334 92.0119 0.28238 90.5806C-0.222773 88.8967 0.787533 87.0445 2.55557 86.5394C2.80814 86.4552 3.14491 86.4552 3.39749 86.4552C4.49199 86.4552 5.58649 87.1287 6.17583 88.0548C14.2583 86.1184 23.4352 83.5926 30.8441 78.2885C30.339 76.4363 29.918 74.5841 29.5812 72.7318C27.4764 71.7215 24.9507 71.3848 22.3407 71.3848C19.1414 71.3848 15.8579 71.8899 13.1638 71.9741C12.9954 72.816 12.3219 73.4896 11.4799 73.5738H11.3957C10.3854 73.5738 9.54352 72.816 9.54352 71.8057C9.45932 70.7954 10.3012 69.8693 11.3116 69.7851H11.3957C12.2377 69.7851 12.9112 70.2903 13.1638 71.1322C18.2153 71.048 24.0246 70.7112 29.0761 68.3539C28.9077 65.8281 28.8235 63.3865 29.0761 60.945C24.1929 57.0721 15.9421 57.1563 10.1329 56.3986C9.79609 57.2405 9.03836 57.8298 8.11225 57.8298C8.02806 57.8298 7.94386 57.8298 7.85967 57.8298C6.68098 57.6615 5.83906 56.567 5.92325 55.3883C6.09164 54.2938 7.01775 53.4518 8.11225 53.4518C8.19644 53.4518 8.28063 53.4518 8.36483 53.4518C9.37513 53.536 10.1329 54.378 10.2171 55.3883C13.7531 55.9776 17.5418 56.567 21.4146 56.567C24.2771 56.567 27.1397 56.2302 29.918 55.3883C30.339 53.957 30.7599 52.5257 31.3493 51.1787L31.4335 51.0103C25.7084 46.8849 18.1311 44.2749 12.4902 41.5808C11.9009 42.4227 10.8906 42.8436 9.96448 42.8436C9.54352 42.8436 9.03836 42.7594 8.6174 42.5911C7.01775 41.8333 6.34421 39.8969 7.10194 38.2973C7.69129 37.1186 8.78579 36.445 10.0487 36.445C10.5538 36.445 10.9748 36.5292 11.3957 36.7818C12.7428 37.4553 13.4164 38.8866 13.1638 40.3179C19.0572 43.433 25.7926 46.7165 32.9489 48.3161C34.0434 46.3797 35.3905 44.6117 36.8218 42.9278C34.4644 38.7182 29.3287 35.5189 25.961 32.6564C25.6242 32.909 25.2033 33.0773 24.7823 33.0773C24.3613 33.0773 23.9404 32.9932 23.6036 32.6564C22.7617 31.9828 22.6775 30.8042 23.351 30.0464C23.6878 29.6255 24.2771 29.3729 24.7823 29.3729C25.2033 29.3729 25.6242 29.5413 25.961 29.7939C26.6345 30.3832 26.8029 31.3093 26.4661 31.9828C30.0022 35.1821 34.2118 38.634 39.1792 40.4863C40.6946 39.055 42.2943 37.7921 43.9781 36.6976C43.2204 30.8042 38.0847 25.0791 35.0537 20.4485C34.8012 20.5327 34.4644 20.6169 34.2118 20.6169C33.5383 20.6169 32.8647 20.2801 32.4438 19.6908C31.7702 18.6805 32.0228 17.3334 33.0331 16.6599C33.3699 16.4073 33.875 16.3231 34.296 16.3231C34.9695 16.3231 35.7273 16.6599 36.1482 17.3334C36.7376 18.1753 36.5692 19.2698 35.9799 20.0276C39.095 25.0791 42.8836 30.8042 48.3561 34.5086C50.2925 33.5825 52.3973 32.7406 54.5021 32.1512C55.2599 23.9846 51.4712 14.5551 49.619 7.31455H49.5348C48.1035 7.31455 46.7564 6.38843 46.4197 4.95717C45.9987 3.18913 47.009 1.4211 48.6929 1.00014C49.0296 0.747559 49.2822 0.747559 49.5348 0.747559C50.9661 0.747559 52.3131 1.67367 52.6499 3.18913C53.0709 4.6204 52.3131 6.05166 51.0502 6.80939C52.7341 14.6393 55.0073 23.4794 59.8904 30.8883C61.6585 30.6358 63.4265 30.3832 65.1945 30.299C66.71 25.8368 65.8681 20.0276 65.8681 15.6496C65.0261 15.4812 64.3526 14.8076 64.3526 13.8815C64.3526 12.8712 65.1945 11.9451 66.2048 11.9451C67.2151 11.9451 68.0571 12.787 68.0571 13.7973C68.0571 14.6393 67.4677 15.397 66.71 15.6496C66.6258 20.2801 66.6258 25.5001 68.3096 30.299C69.7409 30.299 71.1722 30.3832 72.6034 30.5516C76.4763 25.8368 76.9814 18.007 78.0759 12.3661C77.1498 11.9451 76.5605 11.019 76.813 10.0087C76.9814 8.9142 77.9075 8.24066 79.002 8.24066C79.1704 8.24066 79.2546 8.24066 79.423 8.32485C80.6017 8.57743 81.4436 9.67193 81.191 10.9348C81.0227 11.9451 80.1807 12.6187 79.1704 12.7028C77.8233 18.4279 76.4763 25.1633 77.7392 31.5619C80.0123 32.067 82.2013 32.7406 84.3061 33.5825C88.8525 27.6049 91.3783 19.0173 93.9882 12.787C92.8095 11.9451 92.2202 10.3455 92.8096 8.99839C93.3147 7.73551 94.4934 6.97778 95.7563 6.97778C96.1772 6.97778 96.5982 7.06197 97.0192 7.23035C98.703 7.90389 99.4607 9.84031 98.703 11.44C98.1979 12.7028 97.0192 13.3764 95.7563 13.3764C95.5879 13.3764 95.4195 13.3764 95.2511 13.3764C92.136 19.9434 88.9367 27.4365 87.8422 35.3505C90.0312 36.5292 92.0518 37.9605 93.904 39.5601C99.2082 38.2973 103.418 32.4038 106.954 28.7835C106.449 28.0258 106.533 27.0997 107.122 26.4262C107.459 26.0052 107.964 25.8368 108.469 25.8368C108.974 25.8368 109.395 26.0052 109.732 26.342C110.49 27.0997 110.49 28.2784 109.816 29.0361C109.48 29.3729 108.974 29.6255 108.469 29.6255C108.133 29.6255 107.796 29.5413 107.543 29.3729C103.67 33.0773 99.2923 37.6237 97.3559 43.2646C98.282 44.4433 99.124 45.7062 99.9659 46.9691C107.375 44.4433 114.279 38.0447 120.088 34.0035C119.498 32.6564 119.835 31.0567 121.098 30.1306C121.687 29.7097 122.361 29.5413 122.95 29.5413C123.961 29.5413 124.971 30.0464 125.56 30.8883C126.571 32.3196 126.234 34.3402 124.803 35.4347C124.213 35.8557 123.624 36.0241 123.035 36.0241C122.277 36.0241 121.519 35.7715 120.93 35.2663C114.447 39.476 107.291 44.5275 102.155 51.2629C102.744 52.6941 103.334 54.1254 103.755 55.5567C104.007 55.5567 104.26 55.5567 104.512 55.5567C110.237 55.5567 116.552 51.8522 121.435 49.7474C121.267 48.7371 121.687 47.7268 122.698 47.3058C122.95 47.2216 123.287 47.1374 123.54 47.1374C124.382 47.1374 125.224 47.6426 125.56 48.4845C126.065 49.579 125.476 50.9261 124.382 51.347C124.129 51.4312 123.792 51.5154 123.54 51.5154C122.866 51.5154 122.193 51.1787 121.772 50.6735C116.047 52.8625 109.564 55.5567 104.849 60.4398C105.102 61.7869 105.27 63.1339 105.354 64.481C106.87 64.9862 108.638 65.1546 110.322 65.1546C113.773 65.1546 117.394 64.481 120.34 64.2284C120.425 63.3865 121.098 62.713 122.024 62.6288C122.108 62.6288 122.108 62.6288 122.193 62.6288C123.119 62.6288 123.961 63.3865 124.045 64.3126C124.129 65.3229 123.371 66.2491 122.361 66.3333C122.277 66.3333 122.277 66.3333 122.193 66.3333C121.435 66.3333 120.677 65.8281 120.425 65.0704C115.626 65.3229 110.237 65.7439 105.438 67.9329C105.438 69.7851 105.354 71.6374 105.102 73.4054C105.102 73.4896 105.102 73.5738 105.017 73.658C109.985 77.9518 116.299 78.036 123.203 78.9621C123.624 77.6992 124.803 76.7731 126.234 76.7731C126.402 76.7731 126.571 76.7731 126.739 76.7731C128.507 77.0257 129.686 78.7095 129.433 80.4775C129.181 82.0772 127.833 83.2559 126.234 83.2559C126.065 83.2559 125.897 83.2559 125.729 83.2559C124.213 83.0033 123.203 81.8246 123.035 80.3933C119.583 79.7198 116.468 79.2988 113.268 79.2988C110.153 79.2988 106.954 79.7198 103.334 80.8143C102.576 83.1717 101.65 85.3607 100.724 87.2129C104.091 92.6854 111.753 95.9689 116.889 98.9998C117.309 98.4947 117.983 98.2421 118.572 98.2421C118.993 98.2421 119.33 98.3263 119.751 98.5788C120.846 99.2524 121.267 100.684 120.593 101.778C120.172 102.536 119.414 102.957 118.572 102.957C118.151 102.957 117.73 102.873 117.394 102.62C116.468 102.031 116.131 100.936 116.383 100.01C111.163 96.6424 105.017 92.938 98.282 91.7593C97.5243 92.938 96.6824 93.9483 95.8405 94.9586C96.3456 102.536 103.418 109.355 108.806 115.081C109.311 114.744 109.901 114.66 110.49 114.66C111.332 114.66 112.174 114.996 112.847 115.67C114.026 117.017 113.942 119.038 112.595 120.216C112.005 120.806 111.163 121.058 110.406 121.058C109.48 121.058 108.638 120.721 107.964 119.964C106.87 118.785 106.954 117.017 107.88 115.838C102.913 109.945 96.8508 103.967 89.2735 100.768C87.8422 101.778 86.3268 102.536 84.7271 103.378C82.5381 108.766 85.99 115.838 87.5896 121.058C87.6738 121.058 87.6738 121.058 87.758 121.058C88.5158 121.058 89.2735 121.563 89.5261 122.321C89.8628 123.331 89.2735 124.342 88.2632 124.678C88.0948 124.763 87.8422 124.763 87.6738 124.763C86.8319 124.763 86.1584 124.257 85.9058 123.416C85.6532 122.574 85.99 121.732 86.7477 121.311C85.3164 116.007 83.38 109.945 79.2546 105.567C77.8233 106.072 76.3079 106.409 74.7924 106.745C68.899 114.996 72.1825 128.214 72.9402 137.56C74.3715 137.728 75.6344 138.907 75.7185 140.422C75.8869 142.19 74.5399 143.79 72.7718 143.958C73.0244 143.453 72.9402 143.453 72.856 143.453Z" fill="#82C4ED"/>
</svg>
