<svg width="141" height="104" viewBox="0 0 141 104" fill="none" xmlns="http://www.w3.org/2000/svg">
<path d="M3.84967 73.6722C3.82841 73.2874 3.96108 72.8941 4.17068 72.4966C5.67626 70.4064 7.37868 67.6877 9.86728 66.6239C12.5825 65.4704 14.9852 65.6464 17.8709 66.1817C20.6027 66.7255 23.3349 65.8798 25.9473 65.6583C25.8235 64.816 25.6956 63.8968 25.6488 63.0502C25.5978 62.1267 25.6194 61.122 25.6454 60.1943C23.4948 60.3903 21.3872 59.9664 19.1171 59.3971C14.7267 58.173 10.3877 56.4829 6.81657 60.3083C5.57631 61.6119 3.51163 60.568 3.43935 59.2598C3.41809 58.875 3.55076 58.4817 3.91428 58.0756C7.12185 54.6563 10.923 53.5972 15.4503 54.5049C18.8063 55.1686 22.7006 57.1921 26.2109 56.4578C26.3265 55.7566 26.5191 55.0513 26.7887 54.3416C27.1824 53.0848 27.7343 51.8964 28.3674 50.7807C25.9183 48.3687 22.3948 50.2616 19.0091 49.0592C17.2735 48.3831 15.5936 47.3181 13.6526 47.1165C11.5535 46.8465 8.91526 47.9958 7.45264 49.4661C6.20813 50.6927 4.67364 49.4652 4.59711 48.08C4.56734 47.5413 4.69576 47.071 5.20894 46.5795C8.86551 42.9038 14.3508 42.9867 18.711 45.0616C21.6435 46.4434 24.6623 45.196 27.6463 46.1118C28.7449 46.4371 29.7025 47.0017 30.4333 47.6561C32.0159 45.5616 33.9232 43.758 36.0743 42.1725C35.7367 41.6508 35.3221 41.1333 34.8348 40.6971C33.0482 39.0975 29.3712 39.6095 27.1139 39.271C23.4501 38.6243 18.2191 31.966 14.7934 35.6289C13.5531 36.9325 11.4885 35.8887 11.4162 34.5804C11.3949 34.1956 11.5276 33.8023 11.8911 33.3963C13.713 31.443 15.5987 30.6441 18.2365 30.8843C21.6482 31.159 23.6568 33.9813 26.508 35.2905C29.5944 36.6638 33.3828 35.3738 36.3451 37.2943C37.5462 38.0771 38.3711 39.035 39.0505 40.1554C40.6156 39.1426 42.2619 38.2025 43.9167 37.4164C42.5578 35.1756 38.4068 34.0927 36.4276 33.1986C35.1622 32.6509 34.1022 31.6288 33.4185 30.4315C32.8161 29.3069 31.12 25.1549 29.2215 25.723C27.8533 26.1074 26.7121 25.0125 26.6483 23.8581C26.6143 23.2425 26.9651 22.6056 27.7989 22.3279C30.0779 21.6616 31.9631 22.2522 33.6043 24.0142C34.4249 24.8952 35.0916 25.7846 35.6899 26.8323C36.8906 29.0045 38.0233 29.9455 40.3018 30.6687C42.9779 31.6016 45.782 33.4536 47.1494 35.8483C48.3552 35.3185 49.5653 34.8657 50.7754 34.4129C50.6644 33.8014 50.4765 33.1943 50.2116 32.5914C49.3314 30.633 47.1898 29.5934 46.2369 27.7162C45.6302 26.5147 45.4852 25.2876 45.336 23.9835C45.012 20.9137 42.665 20.3487 40.8528 18.2874C40.528 17.9966 40.4298 17.616 40.4128 17.3082C40.332 15.846 42.5042 14.6453 43.7394 16.0437C45.5515 18.105 47.7404 18.6016 48.5903 21.4108C49.2566 23.6897 48.7387 25.4938 50.6108 27.243C52.4829 28.9922 53.6708 30.9336 54.1789 33.1441C55.8465 32.5888 57.5183 32.1105 59.1132 31.6364C59.387 31.0037 59.4299 30.3838 59.3917 29.6912C59.2641 27.3824 57.7428 24.9963 57.5255 22.461C57.4448 20.9987 58.3814 19.7891 59.1684 18.6649C59.5277 18.1819 59.6519 17.6347 59.6221 17.096C59.5371 15.5568 58.131 13.8591 57.5243 12.6575C57.3576 12.4351 57.3406 12.1273 57.3278 11.8964C57.2385 10.2803 59.9708 9.43462 60.9193 11.2348C61.8637 12.9581 62.868 14.3693 63.2821 16.2762C63.2906 16.4302 63.3803 16.6568 63.3888 16.8107C63.4228 17.4264 63.3072 18.1275 63.183 18.6747C62.8535 19.6964 61.2497 21.4061 61.3135 22.5604C61.3178 22.6374 61.322 22.7144 61.3263 22.7913C61.9968 25.1473 62.8982 27.4904 63.0215 29.7222C63.0342 29.9531 63.047 30.184 63.064 30.4918C63.7481 30.2996 64.4322 30.1074 65.1163 29.9153C65.0696 29.0687 65.181 28.2906 65.442 27.4271C66.161 25.0716 68.1113 22.648 68.048 20.1041C68.0437 20.0272 68.0437 20.0272 68.0395 19.9502C67.9289 17.9493 66.5101 16.0207 65.7966 14.2847C65.3523 13.2285 65.0577 12.0869 64.9939 10.9325C64.9514 10.163 64.9858 9.38912 65.1699 8.52982C65.5938 6.42219 68.7661 6.55569 68.8724 8.47965C68.8809 8.63356 68.8894 8.78748 68.8209 8.94565C68.6968 9.49286 68.7223 9.95461 68.7521 10.4933C68.9136 13.4177 70.9864 16.005 71.6867 18.8996C71.7806 19.2032 71.7977 19.511 71.8147 19.8188C71.9932 23.0511 69.4485 25.8934 68.9987 28.9288C70.4439 28.5402 71.8933 28.2285 73.3385 27.8399C74.4079 26.237 75.319 24.5656 75.2854 22.5604C75.2812 22.4835 75.2812 22.4835 75.2769 22.4065C75.1536 20.1747 74.0256 17.9213 73.7484 15.698C73.7271 15.3132 73.6289 14.9326 73.6077 14.5479C73.4036 10.8539 74.7599 7.45962 76.8258 4.33495C77.8952 2.73201 79.9641 3.85279 80.0492 5.39195C80.0704 5.77674 80.0147 6.16579 79.7239 6.49063C77.8676 9.21775 77.2425 11.8768 77.3956 14.6473C77.4849 16.2635 77.8051 17.8668 78.3646 19.6113C78.6423 20.4451 78.766 21.2874 78.8128 22.134C78.902 23.7501 78.6023 25.3105 77.9862 26.734C79.4357 26.4224 80.9663 26.1834 82.42 25.9487C82.7023 25.4699 83.0616 24.9869 83.5021 24.5766C84.011 24.0082 84.1352 23.4609 84.1012 22.8453C84.0544 21.9987 83.6998 21.1692 83.3495 20.4166C82.4778 18.6122 81.7601 16.7992 81.4956 14.8068C81.4829 14.5759 81.4701 14.345 81.4574 14.1142C81.2788 10.8819 82.9642 7.85546 84.4273 4.99568C85.3299 3.17036 87.9163 3.87659 88.0056 5.49271C88.0184 5.72358 87.9584 6.03567 87.8215 6.352C86.3585 9.21179 85.1777 11.5928 85.3308 14.3633C85.3861 15.3638 85.5953 16.3557 86.0396 17.4119C86.6718 19.0752 87.6846 20.6403 87.7867 22.4873C87.7952 22.6412 87.8037 22.7951 87.8079 22.8721C87.7905 23.9537 87.5209 24.6634 87.1744 25.3772C88.2476 25.2408 89.248 25.1855 90.2485 25.1302C90.3212 25.049 90.4751 25.0405 90.5478 24.9593C99.2921 21.1569 92.8051 11.3258 98.2665 5.38895C99.5026 4.00838 101.567 5.0522 101.644 6.43745C101.665 6.82224 101.532 7.21553 101.169 7.62158C98.2564 10.793 99.5464 14.5814 99.3784 18.5275C99.2152 21.1611 98.1798 23.3797 96.5033 25.1706C97.1233 25.2135 97.7432 25.2565 98.2861 25.3037C98.3333 24.7607 98.9235 24.2649 99.8555 24.3678C103.964 24.6812 104.534 19.6321 104.608 16.7719C104.652 13.373 107.29 10.8343 109.976 9.14202C111.395 8.29166 112.926 9.4422 112.994 10.6735C113.019 11.1353 112.818 11.6867 112.219 12.0286C109.679 13.5584 108.152 15.2638 108.246 18.3464C108.266 20.1207 108.039 21.5999 107.274 23.1089C106.653 24.4554 105.558 25.5966 104.297 26.5154C106.178 27.0291 107.995 27.7778 109.593 28.7702C113.339 28.1001 115.507 25.4329 116.705 21.9702C117.976 18.4263 121.136 16.9394 123.702 14.4819C124.951 13.3322 126.486 14.5597 126.558 15.868C126.588 16.4067 126.382 16.8812 125.946 17.3684C124.188 19.0866 121.704 20.2274 120.51 22.3775C119.527 24.1301 119.248 26.0753 118.029 27.7638C116.883 29.3709 114.95 30.7128 112.987 31.516C113.808 32.397 114.483 33.4404 115.081 34.488C121.9 34.9604 125.084 25.5213 131.908 24.6812C133.135 24.5362 133.883 25.4984 133.938 26.4988C133.985 27.3454 133.493 28.2217 132.42 28.3581C128.662 28.7974 126.087 32.4905 123.44 34.8754C121.455 36.6832 119.129 37.8925 116.598 38.1867C116.782 38.7169 116.97 39.3241 117.081 39.9355C117.397 40.0724 117.636 40.2135 117.888 40.5856C118.807 41.8471 120.962 41.728 122.347 41.6515C124.425 41.5367 125.896 40.2203 127.367 38.904C128.398 37.9979 129.424 37.0149 130.626 36.4081C132.131 35.7074 133.529 35.8618 135.043 35.315C136.479 34.7724 137.548 35.9485 137.607 37.0259C137.642 37.6416 137.291 38.2785 136.457 38.5561C135.546 38.838 134.781 38.9575 133.857 39.0085C132.395 39.0893 131.292 40.0766 130.261 40.9827C128.418 42.5512 126.883 44.1027 124.531 44.8501C122.483 45.5037 119.781 45.4986 117.571 44.6172C117.536 45.391 117.498 46.0879 117.382 46.789C119.203 47.6147 120.438 49.0131 122.264 49.9158C123.614 50.6131 126.334 49.5365 127.967 49.755C130.143 50.0208 131.947 51.9282 133.485 53.2326C133.891 53.5961 134.148 54.0451 134.173 54.5069C134.25 55.8921 132.706 57.2897 131.33 56.1307C129.466 54.5354 128.073 53.0685 125.388 53.3712C124.238 53.512 123.169 53.7254 122.002 53.5583C119.749 53.2968 118.33 51.3682 116.5 50.3886C116.025 51.5727 115.473 52.7611 114.836 53.7998C116.054 56.2799 120.337 56.9696 122.607 57.5389C126.211 58.4977 125.107 63.6534 128.407 64.7062C129.194 64.9715 129.531 65.4932 129.565 66.1089C129.629 67.2632 128.543 68.5583 127.051 68.1004C125.007 67.4414 123.858 66.1926 122.982 64.3112C122.537 63.255 122.44 61.485 121.255 61.0101C120.071 60.5351 118.601 60.462 117.416 59.9871C115.527 59.3196 113.77 58.2587 112.608 56.7791C111.735 57.7536 110.858 58.6512 109.9 59.476C110.353 60.6861 112.2 61.9736 112.858 62.7091C114.17 64.1033 114.64 65.6212 114.738 67.3912C114.751 67.6221 114.768 67.9299 114.78 68.1608C114.759 69.1655 114.57 69.9479 114.617 70.7944C114.643 71.2562 114.741 71.6367 114.92 72.0899C115.288 73.1503 116.416 74.0143 117.151 74.7456C117.895 75.6308 118.805 76.7385 118.869 77.8928C118.89 78.2776 118.839 78.7436 118.629 79.1412C117.726 80.9665 115.14 80.2602 115.051 78.6441C115.038 78.4133 115.098 78.1012 115.235 77.7848C115.098 78.1012 112.025 74.1797 111.598 73.4314C111.256 72.8327 111.145 72.2213 111.107 71.5287C111.068 70.8361 111.111 70.2162 111.227 69.515C111.266 68.8182 111.386 68.194 111.347 67.5014C111.313 66.8857 111.202 66.2743 110.865 65.7526C109.848 64.1105 108.309 62.8061 107.309 61.4718C106.343 62.1428 105.372 62.7368 104.32 63.258C104.221 64.267 104.05 65.3572 103.956 66.4431C103.891 66.6782 103.904 66.9091 103.921 67.2169C104.036 69.2948 105.613 71.2919 106.258 73.1861C106.442 73.7163 106.476 74.3319 106.51 74.9476C106.522 75.1785 106.539 75.4863 106.552 75.7172C106.565 75.948 106.582 76.2559 106.595 76.4868C106.671 77.872 106.897 79.1718 108.171 79.8733C108.727 80.1514 108.983 80.6004 109.009 81.0622C109.077 82.2935 107.452 83.6184 106.016 82.7714C102.19 80.5898 103.619 75.7248 101.966 72.3425C101.184 70.7647 100.398 69.1098 100.304 67.4168C100.291 67.1859 100.279 66.955 100.339 66.6429C100.386 66.1 100.506 65.4758 100.626 64.8516C99.5609 65.142 98.4962 65.4324 97.3504 65.6501C97.1964 65.6586 96.9698 65.7483 96.8159 65.7569C96.7645 66.2229 96.79 66.6846 96.8155 67.1464C96.9516 69.609 97.6221 71.9649 97.7666 74.5815L97.7709 74.6585C97.8559 76.1976 97.5519 77.6811 97.3291 79.2373C97.2777 79.7033 97.2262 80.1693 97.2517 80.631C97.341 82.2472 97.9563 83.6026 98.5073 85.1932C98.5928 85.3429 98.6055 85.5738 98.614 85.7277C98.7203 87.6516 95.8469 88.7367 95.1122 86.6159C94.5484 84.7944 93.7623 83.1396 93.5063 81.3011C93.4978 81.1472 93.4893 80.9933 93.4808 80.8394C93.4213 79.762 93.5926 78.6718 93.764 77.5816C93.9353 76.4914 94.1067 75.4013 94.0471 74.3239L94.0429 74.2469C93.8983 71.6303 93.3817 69.2659 93.2499 66.8802C93.2457 66.8032 93.2414 66.7263 93.2371 66.6493C91.638 67.0464 89.962 67.4478 88.3629 67.8449L88.3671 67.9219C88.4266 68.9993 89.0461 70.4318 89.3153 71.1116C89.5929 71.9454 89.7893 72.7065 89.8319 73.4761C89.8616 74.0148 89.8144 74.5577 89.8442 75.0964C89.6724 77.5761 88.1324 80.4401 88.277 83.0567C88.3195 83.8263 88.5117 84.5104 88.9347 85.1818C89.1057 85.4811 89.1996 85.7847 89.2166 86.0925C89.3102 87.7856 87.0737 89.2214 86.0482 87.4255C85.279 86.0785 84.8989 84.7872 84.8266 83.4789C84.6821 80.8623 85.6149 78.1862 86.1502 75.3005C86.2059 74.9115 86.2574 74.4455 86.2361 74.0607C86.1383 72.2907 85.3394 70.405 85.0065 68.5707L84.9295 68.575C83.4073 68.9679 81.8809 69.2838 80.2818 69.6809C80.8116 70.8867 81.0378 72.1865 81.1101 73.4948C81.1654 74.4952 81.1437 75.4999 81.0493 76.5859C80.852 78.6038 80.5735 80.549 80.4532 82.5627C80.4659 82.7935 80.4017 83.0287 80.4145 83.2595C80.5378 85.4913 81.8712 87.2703 82.7556 89.3056C82.8453 89.5323 82.935 89.7589 82.9478 89.9898C83.0455 91.7598 80.2406 92.6867 79.4374 90.724C78.1942 87.7822 77.0747 85.6827 76.9131 82.7582C76.8834 82.2195 76.8536 81.6808 76.8965 81.0609C77.0041 78.8164 77.7103 76.23 77.5743 73.7673C77.5105 72.613 77.2158 71.4713 76.6219 70.5007C75.027 70.9747 73.5091 71.4446 71.9185 71.9956C72.1107 72.6797 72.2259 73.3681 72.2684 74.1377C72.2769 74.2916 72.2897 74.5225 72.2982 74.6764C72.2676 76.9167 71.4074 79.5116 71.535 81.8203C71.5647 82.359 71.6672 82.8165 71.7739 83.351C72.3377 85.1724 74.8727 86.3447 76.0394 87.9013C76.6206 88.6411 76.817 89.4022 76.8553 90.0948C76.9148 91.1722 76.5126 92.2751 75.948 93.2326C74.9598 94.9083 72.8097 93.7148 72.7204 92.0987C72.6991 91.7139 72.7591 91.4018 72.9687 91.0042C73.1141 90.8418 73.1014 90.611 73.0929 90.457C73.0291 89.3027 71.1141 88.1734 70.4644 87.5917C69.2505 86.5781 68.2462 85.1669 68.003 83.5593C67.9817 83.1745 67.8878 82.8709 67.8665 82.4861C67.79 81.1009 67.9486 79.7799 68.1841 78.4546C68.3427 77.1335 68.5013 75.8125 68.4333 74.5811C68.412 74.1964 68.395 73.8885 68.2968 73.508C67.091 74.0378 65.8894 74.6445 64.6878 75.2512C64.0632 76.5208 63.9089 77.9188 63.9897 79.381C64.1045 81.4589 64.6895 83.6652 64.7958 85.5891C64.8001 85.6661 64.8001 85.6661 64.8043 85.743C65.0424 90.0527 63.1347 93.2458 58.97 94.711C57.6103 95.2493 56.4648 94.0775 56.401 92.9231C56.3628 92.2305 56.7135 91.5936 57.5473 91.3159C60.6516 90.2181 61.2252 88.025 61.0848 85.4854C61.0253 84.408 60.8076 83.2621 60.6626 82.035C60.5389 81.1927 60.4152 80.3505 60.3684 79.5039C60.3301 78.8113 60.2919 78.1187 60.3306 77.4218C59.129 78.0285 57.8547 78.7165 56.6531 79.3232C56.5847 79.4814 56.512 79.5626 56.5162 79.6396C56.2037 80.9691 56.2033 82.3586 56.1217 83.6754C55.9244 85.6933 56.518 88.0535 55.0723 89.8316C54.063 91.1225 52.8571 91.6523 51.3392 92.1221C49.6717 92.6774 48.6878 94.43 48.7771 96.0461C48.8154 96.7387 49.0845 97.4186 49.5803 98.0088C49.8281 98.3038 50.0033 98.6801 50.0203 98.9879C50.1011 100.45 47.9288 101.651 46.6937 100.252C45.7064 99.1491 45.2451 97.7851 45.1643 96.3229C44.99 93.1676 46.8893 89.8206 49.9166 88.727C52.187 87.9068 52.5251 87.039 52.466 84.5721C52.4022 83.4177 52.4966 82.3318 52.6637 81.1647C51.0773 81.7927 49.4867 82.3437 47.8149 82.8221C47.5321 84.6903 47.0143 86.4944 45.8637 88.0246C44.1358 90.2815 41.083 90.9133 39.1884 92.9478C37.4392 94.8199 38.2419 98.172 37.2835 100.386C36.5348 102.203 34.6236 102.54 32.9178 102.403C31.9088 102.304 31.4088 101.637 31.362 100.791C31.3067 99.7903 32.0168 98.6704 33.3336 98.752C34.5734 98.8379 34.519 95.0584 34.7074 94.2761C35.0798 92.6345 35.7771 91.2837 36.8677 90.0655C38.1037 88.6849 39.9936 87.963 41.5587 86.9502C42.9742 86.0229 43.603 84.8302 43.9882 83.4195C42.526 83.5002 41.0553 83.4271 39.5719 83.1231C38.4685 84.1104 37.19 84.7214 35.5097 85.0458C34.2099 85.272 32.9016 85.3443 31.6188 85.8783C29.9555 86.5106 29.2535 89.1739 28.4066 90.6102C25.3695 95.7183 15.1804 98.5199 13.0791 91.2254C12.9937 91.0758 12.9852 90.9218 12.9767 90.7679C12.8704 88.844 15.8165 87.6777 16.3973 89.807C17.4436 93.3773 22.5361 91.938 24.4307 89.9035C26.1114 88.1896 26.5056 85.5433 28.2633 83.8251C29.4351 82.6797 30.8718 82.1371 32.3982 81.8212C33.3132 81.6163 34.3179 81.6379 35.3056 81.3518C34.425 80.7829 33.536 80.0601 32.7196 79.2561C31.8178 78.3024 30.9887 77.2675 30.2365 76.2283L30.1596 76.2326C28.5864 75.702 27.0549 78.7199 26.3321 79.609C25.1046 81.1435 23.3643 81.78 21.4446 81.9632C18.2209 82.2957 11.8941 79.5576 11.0676 84.1576C10.7249 86.338 7.47139 86.1317 7.36509 84.2078C7.35659 84.0539 7.34809 83.9 7.41654 83.7418C8.34174 78.1328 12.6344 77.5868 17.5253 78.0885C20.4752 78.3887 22.4974 78.663 24.3622 76.0898C25.44 74.6407 26.3852 73.585 27.9588 72.7261C28.0315 72.6449 28.1085 72.6407 28.2624 72.6322C27.6472 71.2767 27.1089 69.9169 26.7203 68.4717C24.3303 68.5266 21.3842 69.6929 19.2124 69.5041C17.3526 69.3753 15.5358 68.6265 13.6076 68.6559C10.525 68.749 8.68995 71.8609 7.11167 74.0323C5.99941 76.2552 3.93046 75.1344 3.84967 73.6722Z" fill="#82C4ED"/>
</svg>
