<svg width="71" height="72" viewBox="0 0 71 72" fill="none" xmlns="http://www.w3.org/2000/svg">
<path d="M35.8999 71.8C35.1999 71.8 34.5999 71.8 33.8999 71.7C32.5999 71.6 30.1999 71.5 29.4999 70.3C28.7999 69 30.7999 67.4 31.7999 66.9C32.7999 66.4 33.8999 66.1 34.9999 65.9C36.5999 64.6 36.2999 62.7 36.1999 60.3C35.5999 60.4 34.9999 60.4 34.3999 60.4C32.8999 60.4 31.2999 60.2 29.7999 59.9C28.9999 59.6 27.1999 59 26.9999 58.9C25.9999 58.5 25.0999 58.1 24.1999 57.5C23.8999 58.6 23.6999 59.6 24.1999 60.6C24.5999 60.8 24.9999 61 25.3999 61.2C26.2999 61.7 27.5999 62.4 27.7999 63.5C28.0999 64.9 26.2999 65.4 25.2999 65.4C25.2999 65.4 25.2999 65.4 25.1999 65.4C23.4999 65.4 21.7999 64.7 20.1999 64.1H20.0999C18.8999 63.6 17.6999 63 16.5999 62.2C15.7999 61.7 14.2999 60.7 14.2999 59.6C14.2999 58.6 15.8999 58.2 16.7999 58.2C16.8999 58.2 16.9999 58.2 16.9999 58.2C17.7999 58.3 18.5999 58.5 19.3999 58.7C20.7999 58.5 21.2999 57.4 21.9999 56.1C20.8999 55.4 19.8999 54.6 18.9999 53.8C19.1999 53.9 19.2999 54.1 19.4999 54.2C17.0999 52 14.9999 49.5 13.3999 46.7C11.8999 47.7 10.6999 48.7 10.6999 50.4C11.0999 51.4 11.5999 52.5 11.7999 53.5C11.9999 54.6 11.9999 57.2 10.4999 57.4C10.3999 57.4 10.3999 57.4 10.2999 57.4C8.89994 57.4 7.49994 55.7 6.69994 54.8C5.49994 53.5 4.49994 52.1 3.59994 50.5L3.49994 50.4C3.39994 50.3 3.39994 50.2 3.29994 50C3.29994 49.9 3.19994 49.9 3.19994 49.8C2.19994 47.9 1.19994 46 0.89994 43.9C0.69994 42.6 1.09994 40.2 2.79994 40.2C2.89994 40.2 2.89994 40.2 2.99994 40.2C4.39994 40.3 5.69994 42 6.49994 43C6.89994 43.5 7.19994 43.9 7.49994 44.4C7.89994 44.6 8.39994 44.7 8.79994 44.7C9.79994 44.7 10.8999 44.3 11.8999 43.8C10.5999 40.8 9.89994 37.6 9.99994 34.1C9.99994 32.9 10.0999 31.8 10.2999 30.6C9.59994 30.5 8.89994 30.4 8.29994 30.4C7.49994 30.4 6.79994 30.6 6.19994 31.2C5.99994 32 5.69994 32.8 5.29994 33.5C4.99994 34.1 3.99994 35.2 3.09994 35.2C2.89994 35.2 2.79994 35.1 2.59994 35C1.69994 34.4 1.69994 32.6 1.79994 31.6C1.79994 30.3 1.89994 29 2.19994 27.7V27.6C2.09994 27.9 2.09994 28.2 2.09994 28.2C2.09994 28.2 2.09994 28 2.19994 27.6V27.5V27.6C2.29994 27.2 2.29994 27 2.29994 27C2.29994 27 2.29994 27 2.29994 27.1C2.69994 25.6 3.09994 24 3.99994 22.7C4.39994 22.1 5.29994 21.3 6.19994 21.3C6.49994 21.3 6.79994 21.4 7.09994 21.7C7.89994 22.5 7.69994 24 7.59994 25C7.59994 25.4 7.49994 25.9 7.39994 26.3C7.99994 27.5 9.39994 27.9 10.5999 28.3C11.2999 25 12.4999 21.8 14.0999 18.9C14.4999 18.2 14.8999 17.6 15.2999 17C13.9999 16 12.9999 15.2 11.6999 15.2C11.3999 15.2 11.0999 15.3 10.6999 15.4C9.89994 16.1 8.99994 16.9 8.09994 17.4C7.59994 17.7 6.49994 18.1 5.49994 18.1C4.79994 18.1 4.29994 17.9 3.99994 17.4C3.29994 16.1 4.59994 14 5.29994 12.9C6.19994 11.4 7.19994 9.9 8.39994 8.7L8.49994 8.6C8.59994 8.5 8.69994 8.4 8.79994 8.3C8.89994 8.7 8.79994 8.8 8.59994 8.9C10.1999 7.3 11.8999 5.5 13.8999 4.5C14.3999 4.2 15.2999 4 16.0999 4C16.9999 4 17.8999 4.3 18.0999 5.4C18.3999 6.8 17.2999 8.5 16.4999 9.6C16.1999 10.1 15.7999 10.5 15.4999 11C15.3999 12.6 16.3999 13.8 17.4999 15C19.2999 13.1 21.3999 11.4 23.8999 10.2C24.9999 9.7 26.0999 9.2 27.1999 8.9C26.6999 7.4 26.3999 6.2 24.9999 5.8C24.3999 5.9 23.7999 5.9 23.2999 5.9C23.0999 5.9 22.7999 5.9 22.5999 5.9C21.7999 5.8 19.8999 5.2 20.0999 4.1C20.2999 3 21.9999 2.3 22.7999 1.9C23.9999 1.4 25.2999 0.9 26.5999 0.7H26.6999C26.6999 0.7 26.6999 0.7 26.7999 0.7H26.8999H26.7999C27.1999 0.6 27.3999 0.6 27.3999 0.6C27.3999 0.6 27.2999 0.6 27.1999 0.7C28.1999 0.2 29.3999 0 30.5999 0C30.9999 0 31.3999 0 31.8999 0.1C32.8999 0.3 34.6999 1.1 34.0999 2.4C33.6999 3.4 32.1999 3.9 31.2999 4.3C30.8999 4.4 30.4999 4.6 29.9999 4.7C29.1999 5.7 29.2999 7 29.4999 8.2C30.9999 7.9 32.4999 7.8 33.9999 7.8C35.8999 7.8 37.8999 8 39.7999 8.5C39.9999 7 40.2999 5.9 39.3999 5C38.7999 4.8 38.0999 4.5 37.4999 4.1C36.8999 3.8 35.7999 2.6 36.2999 1.8C36.6999 1.3 37.5999 1.2 38.2999 1.2C38.5999 1.2 38.8999 1.2 39.0999 1.2C40.1999 1.2 41.2999 1.4 42.2999 1.7H42.3999C42.1999 1.7 41.9999 1.6 41.9999 1.6C41.9999 1.6 42.0999 1.6 42.4999 1.7H42.5999H42.4999C42.7999 1.9 42.9999 1.9 42.9999 1.9C42.9999 1.9 42.7999 1.8 42.5999 1.8C43.8999 2.2 45.3999 2.6 46.5999 3.4C47.2999 3.9 48.2999 5.2 47.3999 6C46.9999 6.3 46.3999 6.4 45.8999 6.4C45.4999 6.4 44.9999 6.3 44.6999 6.3C44.2999 6.3 43.9999 6.2 43.5999 6.1C42.4999 6.6 42.1999 7.8 41.7999 8.9C42.4999 9.1 43.1999 9.4 43.8999 9.6C46.7999 10.8 49.5999 12.5 51.9999 14.6C53.3999 13.1 54.4999 11.9 54.0999 10.1C53.3999 9.2 52.7999 8.3 52.2999 7.3C51.7999 6.3 51.3999 3.8 52.6999 3.2C52.8999 3.1 53.0999 3.1 53.2999 3.1C54.5999 3.1 56.0999 4.3 56.9999 4.9C58.3999 5.9 59.7999 7.1 60.8999 8.4L60.9999 8.5C62.4999 10.2 64.0999 12.1 64.8999 14.2C65.3999 15.5 65.4999 18 63.6999 18.3C63.5999 18.3 63.4999 18.3 63.3999 18.3C61.9999 18.3 60.5999 17.1 59.6999 16.3C59.2999 15.9 58.7999 15.5 58.3999 15.1C58.1999 15.1 57.9999 15 57.7999 15C56.4999 15 55.1999 15.8 54.0999 16.7C55.4999 18.2 56.6999 19.9 57.6999 21.8C58.7999 23.9 59.4999 26.3 59.8999 28.6C61.5999 28.4 62.9999 28.2 63.6999 26.8C63.7999 25.9 63.7999 25 64.0999 24.1C64.2999 23.3 65.1999 21.7 66.1999 21.7C66.2999 21.7 66.3999 21.7 66.4999 21.8C67.6999 22.2 68.0999 24.1 68.3999 25.1C68.7999 26.5 68.9999 27.9 69.0999 29.4C69.0999 29.1 69.0999 28.8 69.0999 28.8C69.0999 28.8 69.0999 29 69.0999 29.5V29.4V29.5V29.4C69.0999 29.9 69.0999 30.1 69.0999 30.1C69.0999 30.1 69.0999 29.8 69.0999 29.5C69.0999 31.4 69.1999 33.3 68.5999 35.1C68.2999 36 67.3999 37.3 66.3999 37.3C66.1999 37.3 65.8999 37.2 65.6999 37.1C64.6999 36.5 64.3999 34.8 64.1999 33.7C64.0999 33.2 63.9999 32.7 63.9999 32.3C63.0999 31.3 61.6999 31.2 60.2999 31.1C60.4999 34.1 60.1999 37.1 59.3999 39.9C59.1999 40.6 58.9999 41.3 58.6999 42C59.8999 42.5 60.9999 42.9 61.9999 42.9C62.5999 42.9 63.1999 42.7 63.7999 42.3C64.3999 41.4 64.9999 40.4 65.7999 39.6C66.2999 39 67.6999 38.1 68.6999 38.1C69.0999 38.1 69.3999 38.2 69.6999 38.5C70.6999 39.6 69.9999 41.9 69.6999 43.1C69.2999 44.8 68.6999 46.5 67.8999 48L67.7999 48.1C66.6999 50.1 65.5999 52.3 63.8999 53.9C63.2999 54.5 62.0999 55.1 61.0999 55.1C60.4999 55.1 59.8999 54.9 59.5999 54.3C58.8999 53 59.4999 51.1 59.9999 49.8C60.1999 49.2 60.3999 48.7 60.5999 48.2C60.2999 46.6 58.7999 45.6 57.3999 44.8C55.5999 48.3 53.1999 51.4 50.1999 53.9C51.0999 54.9 52.0999 55.9 53.3999 55.9H53.4999C53.8999 55.6 54.1999 55.4 54.5999 55.1C55.2999 54.6 56.3999 53.9 57.2999 53.9C57.4999 53.9 57.5999 53.9 57.7999 54C59.1999 54.4 58.7999 56.3 58.2999 57.2C57.4999 58.7 56.0999 59.9 54.8999 61H54.7999C53.7999 61.9 52.6999 62.6 51.4999 63.2C50.7999 63.6 49.6999 64.2 48.7999 64.2C48.5999 64.2 48.2999 64.1 48.0999 64C47.0999 63.5 47.7999 61.6 48.1999 60.9C48.5999 60.2 49.1999 59.6 49.7999 59C50.2999 57.5 49.3999 56.5 48.3999 55.1C45.6999 57 42.5999 58.5 39.3999 59.2C39.7999 61.1 40.0999 63.2 41.7999 64.2C42.3999 64.2 42.9999 64.1 43.5999 64.1C43.7999 64.1 43.8999 64.1 44.0999 64.1C45.3999 64.1 47.0999 64.2 47.9999 65.1C49.2999 66.5 47.4999 68.4 46.2999 69C44.4999 70 42.3999 70.4 40.2999 70.8C40.3999 70.8 40.3999 70.8 40.3999 70.8C40.3999 70.8 40.1999 70.8 39.5999 70.9C39.7999 70.9 39.9999 70.8 40.1999 70.8C39.9999 70.8 39.7999 70.9 39.4999 70.9H39.5999C38.9999 71 38.7999 71 38.7999 71C38.7999 71 39.0999 70.9 39.4999 70.9C38.0999 71.7 36.9999 71.8 35.8999 71.8ZM3.49994 50.3C3.49994 50.4 3.59994 50.5 3.59994 50.6C3.49994 50.5 3.49994 50.4 3.49994 50.3ZM3.29994 50.1V50.2C3.39994 50.1 3.29994 50.1 3.29994 50.1ZM54.1999 61.9C54.1999 61.9 54.2999 61.8 54.5999 61.5C54.3999 61.8 54.1999 61.9 54.1999 61.9ZM54.5999 61.5C54.7999 61.3 54.9999 61.2 54.9999 61.1C54.9999 61.2 54.8999 61.3 54.5999 61.5ZM54.9999 61.2C54.9999 61.1 54.9999 61.1 54.9999 61.2C54.9999 61.1 54.9999 61.1 54.9999 61.2ZM30.0999 60C29.9999 60 29.4999 59.8 28.0999 59.4C28.4999 59.5 28.8999 59.6 29.2999 59.7C29.4999 59.7 29.5999 59.8 29.7999 59.8C29.9999 59.9 30.1999 60 30.0999 60ZM28.0999 59.4C27.2999 59.1 26.9999 59 27.0999 59C27.3999 59.1 27.6999 59.3 28.0999 59.4ZM3.89994 51.2C3.89994 51.1 3.79994 51.1 3.79994 51C3.79994 51 3.89994 51.1 3.89994 51.2ZM3.79994 50.9C3.69994 50.8 3.69994 50.7 3.59994 50.6C3.69994 50.7 3.69994 50.8 3.79994 50.9ZM8.09994 9.5C8.09994 9.5 8.19994 9.3 8.69994 8.9C8.39994 9.2 8.09994 9.5 8.09994 9.5ZM25.9999 0.6C25.9999 0.6 26.2999 0.5 26.4999 0.5C26.1999 0.6 25.9999 0.6 25.9999 0.6Z" fill="#82C4ED"/>
</svg>
