<svg width="103" height="144" viewBox="0 0 103 144" fill="none" xmlns="http://www.w3.org/2000/svg">
<path d="M69.9631 143.721C69.5561 143.721 69.1492 143.559 68.7423 143.314C66.6262 141.605 63.859 139.652 62.8824 136.966C61.8243 134.036 62.1499 131.513 62.8824 128.502C63.6148 125.653 62.8824 122.723 62.801 119.956C61.9057 120.038 60.929 120.119 60.0338 120.119C59.0571 120.119 57.9991 120.038 57.0224 119.956C57.1038 122.235 56.5341 124.433 55.8016 126.793C54.2553 131.351 52.2206 135.827 56.0458 139.815C57.348 141.198 56.1272 143.314 54.7436 143.314C54.3366 143.314 53.9297 143.152 53.5228 142.745C50.1045 139.164 49.2092 135.094 50.43 130.374C51.3253 126.874 53.6855 122.886 53.1158 119.142C52.3833 118.98 51.6509 118.735 50.9184 118.41C49.6162 117.922 48.3953 117.27 47.2559 116.538C44.5701 118.98 46.3607 122.805 44.8957 126.304C44.0818 128.095 42.861 129.804 42.5354 131.839C42.1285 134.036 43.1865 136.885 44.6515 138.513C45.8723 139.896 44.4887 141.443 43.0238 141.443C42.454 141.443 41.9657 141.28 41.4774 140.71C37.815 136.641 38.2219 130.862 40.6635 126.386C42.2913 123.375 41.1518 120.119 42.2913 117.026C42.6982 115.887 43.3493 114.91 44.0818 114.178C41.9657 112.387 40.1752 110.271 38.6288 107.911C38.0591 108.236 37.4894 108.643 37.0011 109.132C35.2105 110.922 35.5361 114.829 35.0478 117.189C34.1525 121.014 26.8276 126.142 30.4901 129.967C31.7923 131.351 30.5714 133.467 29.1879 133.467C28.7809 133.467 28.374 133.304 27.967 132.897C26.0137 130.862 25.2813 128.827 25.6882 126.06C26.1765 122.479 29.2692 120.526 30.8156 117.596C32.4434 114.422 31.3039 110.352 33.5014 107.341C34.3967 106.12 35.4547 105.306 36.6755 104.655C35.6989 102.946 34.8036 101.156 34.0711 99.3652C31.6295 100.667 30.2459 104.981 29.1879 107.016C28.5368 108.318 27.3973 109.376 26.0951 110.027C24.8743 110.597 20.398 112.143 20.8863 114.178C21.2119 115.643 19.9911 116.782 18.7702 116.782C18.1191 116.782 17.468 116.375 17.2239 115.48C16.6542 113.038 17.3867 111.085 19.34 109.457C20.3166 108.643 21.2933 107.992 22.4327 107.423C24.7929 106.283 25.851 105.144 26.7462 102.783C27.8857 100.016 30.0017 97.1677 32.6061 95.8655C32.1178 94.5633 31.7109 93.2611 31.3039 91.9589C30.6528 92.0403 30.0017 92.203 29.3506 92.4472C27.2346 93.2611 26.0137 95.4585 23.9791 96.3538C22.6768 96.9235 21.3746 97.0049 19.9911 97.0863C16.7355 97.2491 16.0031 99.6907 13.7242 101.481C13.3987 101.807 12.9917 101.888 12.6662 101.888C11.1198 101.888 9.98037 99.5279 11.5267 98.3071C13.8056 96.5166 14.4567 94.2377 17.468 93.5052C19.9097 92.9355 21.7816 93.5866 23.7349 91.7147C25.6882 89.8428 27.8043 88.7034 30.1645 88.2964C29.6762 86.5059 29.2692 84.7154 28.8623 83.0062C28.2112 82.6807 27.5601 82.5993 26.8276 82.5993C24.386 82.5993 21.7816 84.0643 19.0958 84.1457C17.5494 84.1457 16.3286 83.0876 15.1892 82.1924C14.7009 81.7854 14.1311 81.6227 13.5614 81.6227C11.9337 81.6227 10.0618 83.0062 8.75956 83.576C8.5154 83.7387 8.18985 83.7387 7.94568 83.7387C6.23654 83.7387 5.50405 80.8088 7.45736 79.9135C9.32927 79.0182 10.8756 78.0416 12.9103 77.716C13.0731 77.716 13.3173 77.6347 13.48 77.6347C14.1311 77.6347 14.8636 77.7974 15.4333 77.9602C16.4914 78.3671 18.2005 80.1577 19.4213 80.1577C19.5027 80.1577 19.5841 80.1577 19.6655 80.1577C22.1885 79.588 24.7115 78.7741 27.0718 78.7741C27.3159 78.7741 27.5601 78.7741 27.8857 78.7741C27.7229 78.0416 27.5601 77.3091 27.3973 76.5766C26.5021 76.5766 25.6882 76.4138 24.7929 76.0883C22.3513 75.193 19.9097 72.9956 17.2239 72.9142C17.1425 72.9142 17.1425 72.9142 17.0611 72.9142C14.945 72.9142 12.8289 74.2978 10.957 74.9489C9.8176 75.3558 8.59678 75.6 7.37597 75.6C6.56209 75.6 5.74822 75.5186 4.85295 75.2744C2.65548 74.7047 2.98104 71.3678 5.01573 71.3678C5.1785 71.3678 5.34128 71.3678 5.50405 71.4492C6.07377 71.612 6.56209 71.612 7.13181 71.612C10.2245 71.612 13.0731 69.5773 16.1658 69.0076C16.4914 68.9262 16.8169 68.9262 17.1425 68.9262C20.5608 68.9262 23.4093 71.7747 26.5835 72.4258C26.2579 70.8795 26.0137 69.3331 25.6882 67.7868C24.0604 66.5659 22.3513 65.5079 20.2352 65.4265C20.1538 65.4265 20.1538 65.4265 20.0724 65.4265C17.7122 65.4265 15.2706 66.4845 12.9103 66.6473C12.5034 66.6473 12.0965 66.7287 11.6895 66.7287C7.78291 66.7287 4.28324 65.101 1.10912 62.7407C-0.518634 61.5199 0.783568 59.4038 2.41132 59.4038C2.81826 59.4038 3.2252 59.4852 3.55075 59.8108C6.31793 61.9268 9.08511 62.7407 12.0151 62.7407C13.7242 62.7407 15.4333 62.4966 17.3053 62.0082C18.2005 61.7641 19.0958 61.6827 19.9911 61.6827C21.7002 61.6827 23.3279 62.0896 24.7929 62.8221C24.5488 61.2757 24.386 59.648 24.2232 58.1016C23.7349 57.7761 23.2466 57.3691 22.8396 56.8808C22.2699 56.3111 21.7002 56.1483 21.0491 56.1483C20.1538 56.1483 19.2586 56.4739 18.4447 56.7994C16.4914 57.6133 14.5381 58.2644 12.422 58.4272C12.1778 58.4272 11.9337 58.4272 11.6895 58.4272C8.27123 58.4272 5.1785 56.4739 2.24855 54.7647C0.37663 53.7067 1.27189 51.0209 2.98103 51.0209C3.2252 51.0209 3.55075 51.1023 3.8763 51.2651C6.80625 52.9742 9.24788 54.3578 12.1778 54.3578C13.2359 54.3578 14.2939 54.195 15.4333 53.7881C17.2239 53.2184 18.933 52.2417 20.8863 52.2417C21.0491 52.2417 21.2119 52.2417 21.2933 52.2417C22.4327 52.3231 23.1652 52.6486 23.8977 53.0556C23.8163 51.9162 23.8163 50.8581 23.8163 49.8001C23.7349 49.7187 23.7349 49.5559 23.6535 49.4745C20.1538 40.0336 9.41066 46.3004 3.46936 40.1963C2.08577 38.8127 3.30659 36.6967 4.77156 36.6967C5.1785 36.6967 5.58544 36.8594 5.99238 37.2664C9.1665 40.5219 13.2359 39.3825 17.3867 39.7894C20.1538 40.1149 22.4327 41.3358 24.2232 43.2077C24.3046 42.5566 24.386 41.9055 24.4674 41.3358C23.8977 41.2544 23.4093 40.6033 23.5721 39.6266C24.1418 35.3131 18.8516 34.4178 15.8403 34.1736C12.2592 33.9295 9.73621 30.9995 8.10846 28.0696C7.29458 26.5232 8.59678 24.9768 9.89899 24.9768C10.3873 24.9768 10.957 25.221 11.2826 25.8721C12.7476 28.6393 14.4567 30.3484 17.7122 30.4298C19.5841 30.5112 21.1305 30.8368 22.6768 31.732C24.0604 32.4645 25.1999 33.6853 26.0951 35.0689C26.7462 33.1156 27.6415 31.2437 28.7809 29.6159C28.2926 25.6279 25.6068 23.1863 22.0257 21.7213C18.3633 20.175 16.9797 16.7567 14.5381 13.9081C13.3987 12.5245 14.7822 10.9782 16.1658 10.9782C16.7355 10.9782 17.2239 11.2223 17.7122 11.7107C19.4213 13.664 20.4794 16.3498 22.6768 17.7333C24.4674 18.8728 26.5021 19.2797 28.2112 20.6633C29.839 21.9655 31.1412 24.0816 31.8737 26.1977C32.8503 25.3838 33.9897 24.7327 35.1292 24.163C36.0244 17.0009 26.2579 13.0942 25.7696 5.85074C25.6882 4.54854 26.7462 3.81605 27.8043 3.81605C28.6995 3.81605 29.5948 4.38577 29.6762 5.52519C29.9203 9.51319 33.6642 12.4431 36.0244 15.3731C37.8149 17.5706 38.9544 20.0936 39.1172 22.7794C39.6869 22.6166 40.338 22.4538 40.9891 22.3724C41.1518 22.0469 41.3146 21.8027 41.7216 21.5586C43.1051 20.6633 43.1051 18.3844 43.1051 16.9195C43.1051 14.722 41.8029 13.0942 40.5007 11.4665C39.6055 10.3271 38.6288 9.18764 38.0591 7.88544C37.408 6.25768 37.6522 4.79271 37.1638 3.16495C36.6755 1.61859 37.9777 0.560547 39.1172 0.560547C39.7683 0.560547 40.4194 0.967485 40.6635 1.86275C40.9077 2.8394 40.9891 3.65328 40.9891 4.62993C40.9891 6.1763 41.9657 7.39711 42.861 8.53654C44.4074 10.5712 45.9537 12.2804 46.6048 14.8034C47.1745 17.0009 47.0118 19.8494 45.9537 22.1283C46.7676 22.2097 47.5001 22.2911 48.2326 22.4538C49.2092 20.5819 50.7556 19.3611 51.8136 17.4892C52.6275 16.1056 51.6509 13.1756 51.9764 11.4665C52.3833 9.18764 54.4994 7.39711 55.9644 5.85074C56.3713 5.44381 56.8597 5.19964 57.348 5.19964C58.813 5.19964 60.1966 6.90878 58.8944 8.29237C57.1038 10.1643 55.4761 11.5479 55.6388 14.3964C55.7202 15.6173 55.883 16.7567 55.6388 17.9775C55.2319 20.3377 53.1158 21.7213 51.9764 23.5933C53.1972 24.163 54.418 24.8141 55.4761 25.5466C58.1619 24.4071 59.1385 19.9308 59.871 17.5706C61.0918 13.8267 66.4634 15.2917 67.7656 11.8734C68.0912 11.0596 68.6609 10.734 69.312 10.734C70.5328 10.734 71.835 11.9548 71.2653 13.5012C70.4514 15.6173 69.0678 16.7567 67.0331 17.5706C65.8937 17.9775 64.0218 17.9775 63.4521 19.1983C62.8823 20.4191 62.7196 21.9655 62.1499 23.1863C61.336 25.1396 60.1152 26.9301 58.4874 28.0696C59.4641 29.0462 60.3593 30.0229 61.1732 31.0809C62.4754 30.674 63.9404 28.8021 64.7543 28.151C66.3006 26.8488 67.9284 26.4418 69.8003 26.4418C70.0445 26.4418 70.37 26.4418 70.6142 26.4418C71.6722 26.5232 72.4861 26.7674 73.3814 26.7674C73.8697 26.7674 74.2766 26.686 74.7649 26.5232C75.9044 26.1977 76.881 25.0582 77.6949 24.3257C78.6716 23.5933 79.8924 22.698 81.1132 22.698C81.5201 22.698 82.0084 22.7794 82.4154 23.0235C84.2873 24.0816 83.392 26.7674 81.6829 26.7674C81.4387 26.7674 81.1132 26.686 80.7876 26.5232C81.1132 26.686 76.7996 29.6973 75.9858 30.1043C75.3347 30.4298 74.6836 30.5112 73.9511 30.5112C73.2186 30.5112 72.5675 30.4298 71.835 30.267C71.1025 30.1857 70.4514 30.0229 69.7189 30.0229C69.0678 30.0229 68.4167 30.1043 67.847 30.4298C66.0565 31.4065 64.5915 32.9528 63.1265 33.9295C63.7776 34.9875 64.3473 36.0456 64.8357 37.185C65.8937 37.3478 67.0331 37.5919 68.1725 37.7547C68.4167 37.8361 68.6609 37.8361 68.9864 37.8361C71.1839 37.8361 73.3814 36.2897 75.416 35.72C75.9858 35.5572 76.6369 35.5572 77.288 35.5572C77.5321 35.5572 77.8577 35.5572 78.1018 35.5572C78.346 35.5572 78.6716 35.5572 78.9157 35.5572C80.3807 35.5572 81.7643 35.3945 82.5782 34.0923C82.9037 33.5225 83.392 33.2784 83.8804 33.2784C85.1826 33.2784 86.4848 35.0689 85.5081 36.5339C82.9851 40.4405 77.9391 38.65 74.2766 40.1963C72.5675 40.9288 70.777 41.6613 68.9864 41.6613C68.7423 41.6613 68.4981 41.6613 68.1725 41.5799C67.6028 41.4985 66.9517 41.3358 66.3006 41.173C66.5448 42.3124 66.789 43.4518 66.9517 44.6727C66.9517 44.8354 67.0331 45.0796 67.0331 45.2424C67.5214 45.3238 68.0098 45.3238 68.4981 45.3238C71.1025 45.3238 73.6255 44.754 76.3927 44.754H76.4741C78.1018 44.754 79.6482 45.161 81.276 45.4865C81.7643 45.5679 82.2526 45.6493 82.7409 45.6493C84.4501 45.6493 85.9151 45.0796 87.6242 44.5913C87.787 44.5099 88.0311 44.5099 88.1939 44.5099C90.2286 44.5099 91.2053 47.6026 88.9264 48.2537C86.9731 48.742 85.1826 49.4745 83.2293 49.6373C83.0665 49.6373 82.9037 49.6373 82.7409 49.6373C81.6015 49.6373 80.4621 49.3931 79.3227 49.149C78.1832 48.9048 77.0438 48.6607 75.9044 48.6607H75.823C73.0558 48.6607 70.5328 49.0676 68.0098 49.0676C67.9284 49.0676 67.847 49.0676 67.7656 49.0676C68.0912 50.7767 68.4167 52.5673 68.7423 54.2764H68.8237C69.9631 54.2764 71.5094 53.7067 72.2419 53.4625C73.1372 53.2184 73.9511 53.0556 74.7649 53.0556C75.3347 53.0556 75.9044 53.137 76.4741 53.137C79.0785 53.4625 82.0085 55.253 84.7756 55.253C85.5895 55.253 86.322 55.0903 87.0545 54.6833C87.38 54.5206 87.7056 54.4392 88.0311 54.4392C89.8217 54.4392 91.2053 56.8808 89.252 57.8575C87.787 58.5899 86.4034 58.9155 85.0198 58.9155C82.2526 58.9155 79.4854 57.7761 76.4741 57.0436C76.0671 56.9622 75.5788 56.8808 75.1719 56.8808C73.3 56.8808 71.2653 57.6133 69.312 57.8575V57.9388C69.6375 59.5666 69.8817 61.1944 70.2072 62.9035C71.5094 62.4152 72.893 62.2524 74.2766 62.2524C75.3347 62.2524 76.3927 62.3338 77.5321 62.4966C79.6482 62.8221 81.6829 63.229 83.799 63.4732C84.0431 63.4732 84.2873 63.5546 84.5315 63.5546C86.8917 63.5546 88.845 62.2524 91.0425 61.4385C91.2866 61.3571 91.5308 61.2757 91.775 61.2757C93.6469 61.2757 94.4608 64.2871 92.3447 65.0196C89.1706 66.159 86.8917 67.217 83.799 67.217C83.2293 67.217 82.6596 67.217 82.0084 67.1357C79.6482 66.8915 76.9624 65.9962 74.358 65.9962C73.1372 65.9962 71.9164 66.2404 70.8583 66.8101C71.2653 68.5192 71.6722 70.147 72.1605 71.8561C72.893 71.6934 73.6255 71.612 74.4394 71.612C74.6022 71.612 74.8463 71.612 75.0091 71.612C77.3694 71.7747 80.0551 72.8328 82.4968 72.8328C83.0665 72.8328 83.5548 72.7514 84.1245 72.67C86.0778 72.1817 87.4614 69.5773 89.1706 68.4379C89.9844 67.8681 90.7983 67.7054 91.5308 67.7054C92.6702 67.7054 93.8097 68.1937 94.7863 68.8448C96.4954 69.9842 95.1119 72.1817 93.4027 72.1817C92.9958 72.1817 92.6702 72.1003 92.2633 71.8561C92.1005 71.6934 91.8564 71.6934 91.6936 71.6934C90.4728 71.6934 89.1706 73.6467 88.5195 74.2978C87.38 75.5186 85.8337 76.4952 84.1245 76.658C83.7176 76.658 83.392 76.7394 82.9851 76.7394C81.5201 76.7394 80.1365 76.4952 78.7529 76.1697C77.3694 75.9255 75.9858 75.6814 74.6836 75.6814C74.2766 75.6814 73.9511 75.6814 73.5441 75.7627C74.0325 77.0649 74.6022 78.3671 75.1719 79.6693C76.4741 80.4018 77.9391 80.646 79.4854 80.646C81.6829 80.646 84.0431 80.1577 86.0778 80.1577C86.1592 80.1577 86.1592 80.1577 86.2406 80.1577C90.7983 80.1577 94.0538 82.3551 95.356 86.8315C95.8444 88.2964 94.5422 89.4359 93.3213 89.4359C92.5888 89.4359 91.9377 89.0289 91.6936 88.1337C90.7169 84.7968 88.4381 84.0643 85.7523 84.0643C84.6129 84.0643 83.392 84.2271 82.0898 84.3084C81.1946 84.3898 80.2993 84.4712 79.404 84.4712C78.6716 84.4712 77.9391 84.4712 77.2066 84.3898C77.7763 85.692 78.4274 87.0756 78.9971 88.3778C79.1599 88.4592 79.2413 88.5406 79.3227 88.5406C80.7062 88.9475 82.1712 89.0289 83.5548 89.1917C85.6709 89.5173 88.1939 89.0289 89.9844 90.6567C91.2866 91.7961 91.775 93.0983 92.1819 94.7261C92.6702 96.5166 94.4608 97.656 96.1699 97.656C96.9024 97.656 97.6349 97.4119 98.286 96.9235C98.6115 96.6794 99.0185 96.5166 99.344 96.5166C100.89 96.5166 102.03 98.8768 100.483 100.098C99.2626 101.074 97.7977 101.481 96.2513 101.481C92.9144 101.481 89.4961 99.2838 88.5195 96.0283C87.787 93.5866 86.8917 93.1797 84.2873 93.0983C83.0665 93.0983 81.9271 92.9355 80.7062 92.6914C81.276 94.4005 81.7643 96.1097 82.1712 97.9002C84.1245 98.3071 85.9964 98.9582 87.5428 100.26C89.8217 102.214 90.31 105.469 92.3447 107.585C94.2166 109.539 97.7977 108.888 100.077 110.027C101.948 110.922 102.193 112.957 101.948 114.747C101.786 115.805 101.053 116.294 100.158 116.294C99.0999 116.294 97.9604 115.48 98.1232 114.096C98.286 112.794 94.298 112.631 93.4841 112.387C91.775 111.899 90.3914 111.085 89.1706 109.864C87.787 108.481 87.1359 106.446 86.1592 104.737C85.264 103.19 84.0431 102.458 82.5782 101.97C82.5782 103.516 82.4154 105.062 82.0084 106.609C82.9851 107.829 83.5548 109.213 83.799 111.004C83.9617 112.387 83.9618 113.771 84.4501 115.154C85.0198 116.945 87.787 117.84 89.252 118.817C94.4608 122.316 96.821 133.222 89.0078 135.013C88.845 135.094 88.6822 135.094 88.5195 135.094C86.4848 135.094 85.4267 131.92 87.7056 131.432C91.5308 130.537 90.31 125.084 88.2753 122.968C86.5662 121.096 83.799 120.526 82.0898 118.573C80.9504 117.27 80.4621 115.724 80.2179 114.096C80.0551 113.12 80.1365 112.062 79.8924 111.004C79.2413 111.899 78.4274 112.794 77.5321 113.608C76.4741 114.503 75.3347 115.317 74.1952 116.05V116.131C73.5441 117.759 76.6369 119.549 77.5321 120.363C79.0785 121.747 79.6482 123.619 79.7296 125.653C79.8924 129.072 76.6369 135.583 81.4387 136.722C83.7176 137.21 83.3106 140.629 81.276 140.629C81.1132 140.629 80.9504 140.629 80.7876 140.547C74.9277 139.245 74.6022 134.687 75.416 129.56C75.9044 126.467 76.3113 124.351 73.7069 122.235C72.2419 121.014 71.1839 119.956 70.37 118.247C70.2886 118.166 70.2886 118.084 70.2886 117.922C68.8236 118.491 67.3587 118.98 65.8123 119.305C65.7309 121.828 66.789 125.002 66.4634 127.281C66.2192 129.234 65.324 131.106 65.2426 133.141C65.1612 136.397 68.3353 138.513 70.5328 140.303C72.8116 141.605 71.5094 143.721 69.9631 143.721Z" fill="#82C4ED"/>
</svg>
