<svg width="70" height="70" viewBox="0 0 70 70" fill="none" xmlns="http://www.w3.org/2000/svg">
<path d="M34.7007 69.3999C53.8964 69.3999 69.4006 53.7726 69.4006 34.6999C69.4006 15.5042 53.7734 0 34.7007 0C15.505 0 0.000762939 15.6273 0.000762939 34.6999C-0.122292 53.7726 15.505 69.3999 34.7007 69.3999ZM34.7007 5.29111C50.8202 5.29111 63.9864 18.4574 63.9864 34.5769C63.9864 50.6963 50.8202 63.8626 34.7007 63.8626C18.5812 63.8626 5.41495 50.6963 5.41495 34.5769C5.29189 18.4574 18.4582 5.29111 34.7007 5.29111Z" fill="#82C4ED"/>
<path d="M55.2499 37.4071C56.7265 37.4071 57.957 36.1766 57.957 34.7C57.957 21.9028 47.4978 11.4437 34.7006 11.4437C33.224 11.4437 31.9935 12.6742 31.9935 14.1508C31.9935 15.6273 33.224 16.8578 34.7006 16.8578C44.5446 16.8578 52.5428 24.856 52.5428 34.7C52.5428 36.1766 53.7733 37.4071 55.2499 37.4071Z" fill="#82C4ED"/>
</svg>
