<svg width="83" height="83" viewBox="0 0 83 83" fill="none" xmlns="http://www.w3.org/2000/svg">
<path d="M41.697 82.1389C19.2014 82.1389 0.769531 63.7071 0.769531 41.0664C0.769531 18.5708 19.2014 0.138916 41.697 0.138916C64.3377 0.138916 82.6244 18.5708 82.6244 41.0664C82.7695 63.7071 64.3377 82.1389 41.697 82.1389ZM41.697 6.52476C22.6846 6.52476 7.15537 22.054 7.15537 41.0664C7.15537 60.0787 22.6846 75.6079 41.697 75.6079C60.7094 75.6079 76.2386 60.0787 76.2386 41.0664C76.3837 22.054 60.8545 6.52476 41.697 6.52476Z" fill="#82C4ED"/>
<path d="M17.4598 44.2592C15.7182 44.2592 14.2668 42.8079 14.2668 41.0663C14.2668 25.9725 26.6031 13.6362 41.6969 13.6362C43.4385 13.6362 44.8899 15.0876 44.8899 16.8291C44.8899 18.5707 43.4385 20.0221 41.6969 20.0221C30.0863 20.0221 20.6527 29.4557 20.6527 41.0663C20.6527 42.953 19.2014 44.2592 17.4598 44.2592Z" fill="#82C4ED"/>
</svg>
