<svg width="58" height="58" viewBox="0 0 58 58" fill="none" xmlns="http://www.w3.org/2000/svg">
<path d="M29.1872 57.0204C13.5872 57.0204 0.987183 44.3203 0.987183 28.8203C0.987183 13.2203 13.6872 0.620361 29.1872 0.620361C44.7872 0.620361 57.3872 13.3203 57.3872 28.8203C57.4872 44.3203 44.7872 57.0204 29.1872 57.0204ZM29.1872 4.92035C16.0872 4.92035 5.38719 15.6203 5.38719 28.7203C5.38719 41.8203 16.0872 52.5204 29.1872 52.5204C42.2872 52.5204 52.9872 41.8203 52.9872 28.7203C53.0872 15.6203 42.3872 4.92035 29.1872 4.92035Z" fill="#82C4ED"/>
<path d="M12.4872 31.0204C11.2872 31.0204 10.2872 30.0204 10.2872 28.8204C10.2872 18.4204 18.7872 9.92041 29.1872 9.92041C30.3872 9.92041 31.3872 10.9204 31.3872 12.1204C31.3872 13.3204 30.3872 14.3204 29.1872 14.3204C21.1872 14.3204 14.6872 20.8204 14.6872 28.8204C14.6872 30.0204 13.6872 31.0204 12.4872 31.0204Z" fill="#82C4ED"/>
</svg>
