<svg width="56" height="57" viewBox="0 0 56 57" fill="none" xmlns="http://www.w3.org/2000/svg">
<path d="M27.5999 56.5999C11.9999 56.5999 -0.600098 43.8999 -0.600098 28.3999C-0.600098 12.7999 12.0999 0.199951 27.5999 0.199951C43.1999 0.199951 55.7999 12.8999 55.7999 28.3999C55.8999 43.8999 43.1999 56.5999 27.5999 56.5999ZM27.5999 4.49994C14.4999 4.49994 3.79991 15.1999 3.79991 28.2999C3.79991 41.3999 14.4999 52.0999 27.5999 52.0999C40.6999 52.0999 51.3999 41.3999 51.3999 28.2999C51.4999 15.1999 40.7999 4.49994 27.5999 4.49994Z" fill="#82C4ED"/>
<path d="M10.8999 30.6C9.69995 30.6 8.69995 29.6 8.69995 28.4C8.69995 18 17.1999 9.5 27.5999 9.5C28.7999 9.5 29.8 10.5 29.8 11.7C29.8 12.9 28.7999 13.9 27.5999 13.9C19.5999 13.9 13.0999 20.4 13.0999 28.4C13.0999 29.6 12.0999 30.6 10.8999 30.6Z" fill="#82C4ED"/>
</svg>
