<svg width="188" height="188" viewBox="0 0 188 188" fill="none" xmlns="http://www.w3.org/2000/svg">
<path d="M94 188C42.2066 188 0 145.793 0 94C0 42.2066 42.2066 0 94 0C145.793 0 188 42.2066 188 94C188 145.793 145.918 188 94 188ZM94 10.4583C48.0583 10.4583 10.5828 47.9338 10.5828 93.8755C10.5828 139.817 48.0583 177.293 94 177.293C139.942 177.293 177.417 139.817 177.417 93.8755C177.417 47.9338 140.066 10.4583 94 10.4583Z" fill="#82C4ED"/>
<path d="M40.8371 99.2292C37.849 99.2292 35.4834 96.8636 35.4834 93.8755C35.4834 61.6292 61.7536 35.359 94 35.359C96.9881 35.359 99.3537 37.7245 99.3537 40.7126C99.3537 43.7007 96.9881 46.0662 94 46.0662C67.6053 46.0662 46.0662 67.6053 46.0662 94C46.0662 96.8636 43.7007 99.2292 40.8371 99.2292Z" fill="#82C4ED"/>
</svg>
