<svg width="25" height="39" viewBox="0 0 25 39" fill="none" xmlns="http://www.w3.org/2000/svg">
<path d="M5.29991 38.1999C-5.10009 38.1999 -13.6001 29.6999 -13.6001 19.2999C-13.6001 8.8999 -5.10009 0.399902 5.29991 0.399902C15.6999 0.399902 24.1999 8.8999 24.1999 19.2999C24.1999 29.6999 15.6999 38.1999 5.29991 38.1999ZM5.29991 4.7999C-2.70009 4.7999 -9.20009 11.2999 -9.20009 19.2999C-9.20009 27.2999 -2.70009 33.7999 5.29991 33.7999C13.2999 33.7999 19.7999 27.2999 19.7999 19.2999C19.7999 11.2999 13.2999 4.7999 5.29991 4.7999Z" fill="#82C4ED"/>
<path d="M-2.10005 21.4999C-3.30005 21.4999 -4.30005 20.4999 -4.30005 19.2999C-4.30005 13.9999 -4.29153e-05 9.69995 5.29996 9.69995C6.49996 9.69995 7.49995 10.6999 7.49995 11.8999C7.49995 13.0999 6.49996 14.0999 5.29996 14.0999C2.39996 14.0999 0.0999451 16.4999 0.0999451 19.2999C0.0999451 20.4999 -0.900052 21.4999 -2.10005 21.4999Z" fill="#82C4ED"/>
</svg>
