<svg width="31" height="30" viewBox="0 0 31 30" fill="none" xmlns="http://www.w3.org/2000/svg">
<path d="M15.1734 30C6.94331 30 0.199951 23.2566 0.199951 14.9735C0.199951 6.74336 6.94331 0 15.1734 0C23.4566 0 30.1469 6.74336 30.1469 14.9735C30.2 23.2566 23.4566 30 15.1734 30ZM15.1734 2.33628C8.21765 2.33628 2.53623 8.0177 2.53623 14.9735C2.53623 21.9292 8.21765 27.6106 15.1734 27.6106C22.1292 27.6106 27.8106 21.9292 27.8106 14.9735C27.8637 8.0177 22.1823 2.33628 15.1734 2.33628Z" fill="#82C4ED"/>
<path d="M6.30608 16.1415C5.66891 16.1415 5.13794 15.6106 5.13794 14.9734C5.13794 9.45126 9.65121 4.93799 15.1733 4.93799C15.8105 4.93799 16.3415 5.46896 16.3415 6.10613C16.3415 6.7433 15.8105 7.27427 15.1733 7.27427C10.9256 7.27427 7.47422 10.7256 7.47422 14.9734C7.47422 15.6637 6.94325 16.1415 6.30608 16.1415Z" fill="#82C4ED"/>
</svg>
