<svg width="41" height="41" viewBox="0 0 41 41" fill="none" xmlns="http://www.w3.org/2000/svg">
<path d="M20.5 41C9.20464 41 0 31.7954 0 20.5C0 9.20463 9.20464 0 20.5 0C31.7954 0 41 9.20463 41 20.5C41 31.7954 31.8225 41 20.5 41ZM20.5 2.28079C10.4808 2.28079 2.30795 10.4536 2.30795 20.4728C2.30795 30.4921 10.4808 38.6649 20.5 38.6649C30.5192 38.6649 38.6921 30.4921 38.6921 20.4728C38.6921 10.4536 30.5464 2.28079 20.5 2.28079Z" fill="#82C4ED"/>
<path d="M8.90596 21.6404C8.2543 21.6404 7.7384 21.1245 7.7384 20.4728C7.7384 13.4404 13.4675 7.71126 20.5 7.71126C21.1516 7.71126 21.6675 8.22715 21.6675 8.8788C21.6675 9.53046 21.1516 10.0464 20.5 10.0464C14.7437 10.0464 10.0464 14.7437 10.0464 20.5C10.0464 21.1245 9.53046 21.6404 8.90596 21.6404Z" fill="#82C4ED"/>
</svg>
