<svg width="53" height="199" viewBox="0 0 53 199" fill="none" xmlns="http://www.w3.org/2000/svg">
<path d="M-51.9383 181.163C-62.8747 181.163 -73.3356 179.071 -83.2259 175.077C-82.9406 173.651 -82.7504 172.224 -82.5602 170.703C-82.37 169.276 -83.1308 168.04 -84.3671 167.469C-74.1915 172.224 -63.3502 174.697 -51.9383 174.697C-42.6186 174.697 -33.4891 172.985 -24.74 169.657C-25.7861 170.227 -26.5469 171.273 -26.5469 172.605C-26.5469 173.175 -26.3567 173.746 -26.0714 174.221C-25.691 175.077 -25.3106 175.838 -24.8351 176.694C-33.5842 179.642 -42.7137 181.163 -51.9383 181.163ZM-18.7488 174.221C-19.3194 173.27 -19.7949 172.224 -20.2704 171.178C-20.841 170.037 -21.9822 169.276 -23.2185 169.276C-23.5038 169.276 -23.789 169.276 -24.0743 169.371C-2.39178 161.003 14.5358 142.744 21.3829 120.585C20.9075 122.202 21.7633 124.009 23.38 124.58C24.4261 124.96 25.4722 125.436 26.5183 125.911C18.6251 147.403 2.17296 165.092 -18.7488 174.221ZM-89.4073 172.224C-109.663 161.954 -124.784 143.98 -131.441 122.297C-130.68 122.297 -129.919 122.297 -129.159 122.392H-129.064C-127.257 122.392 -125.83 121.061 -125.83 119.254C-125.735 117.447 -127.162 115.926 -128.968 115.831C-129.919 115.831 -130.87 115.735 -131.917 115.735C-132.392 115.735 -132.868 115.735 -133.248 115.735C-134.484 110.029 -135.15 104.038 -135.15 97.9519C-135.15 52.1142 -97.8711 14.8354 -52.0334 14.8354C-46.7079 14.8354 -41.3823 15.3109 -36.1519 16.357C-36.8176 18.4492 -37.3882 20.5414 -37.7686 22.7287C-42.4284 21.8728 -47.1834 21.3973 -52.0334 21.3973C-94.2574 21.3973 -128.588 55.728 -128.588 97.9519C-128.588 104.894 -127.637 111.741 -125.83 118.113C-119.934 139.7 -104.908 157.579 -84.6524 167.184C-84.9377 167.089 -85.3181 166.994 -85.6034 166.899C-85.6984 166.899 -85.8887 166.899 -85.9838 166.899C-87.6004 166.899 -89.0269 168.135 -89.2171 169.847C-89.2171 170.703 -89.3122 171.463 -89.4073 172.224ZM21.1927 120.49C23.4751 113.263 24.6163 105.75 24.6163 98.047C24.6163 89.7734 23.2849 81.69 20.7173 73.987C22.8094 73.3213 24.9016 72.4654 26.8036 71.5144C29.6566 80.0733 31.1781 88.9175 31.1781 98.047C31.1781 105.37 30.2271 112.597 28.3252 119.539C27.3742 119.159 26.4232 118.683 25.4722 118.398C25.0918 118.303 24.7114 118.208 24.331 118.208C22.9996 118.208 21.7633 119.064 21.2878 120.3C21.1927 120.395 21.1927 120.395 21.1927 120.49ZM21.0977 66.8546C21.1927 66.7595 21.3829 66.7595 21.478 66.6644C21.5731 66.6644 21.6682 66.5693 21.7633 66.5693C21.5732 66.6644 21.2879 66.7595 21.0977 66.8546ZM-30.7313 21.3973C-30.6362 21.2071 -30.6362 21.0169 -30.5411 20.8267C-30.5411 20.9218 -30.5411 21.0169 -30.5411 21.0169C-30.6362 21.2071 -30.6362 21.3022 -30.7313 21.3973Z" fill="#82C4ED"/>
<path d="M6.83278 76.0791C-18.1782 76.0791 -38.4343 55.728 -38.4343 30.8121C-38.4343 28.0542 -38.149 25.3914 -37.7686 22.8237C-37.3882 20.6365 -36.8176 18.5443 -36.1519 16.4521C-34.0598 10.2707 -30.7313 4.65985 -26.3568 0H-16.6567C-23.4087 5.13534 -28.3538 12.458 -30.6362 20.8267C-30.7313 21.0169 -30.7313 21.2071 -30.8264 21.3973C-31.5872 24.4404 -31.9676 27.5787 -31.9676 30.8121C-31.9676 52.2093 -14.5645 69.5173 6.73767 69.5173C11.7779 69.5173 16.5329 68.5663 20.9074 66.8546C21.1927 66.7595 21.3829 66.6644 21.6682 66.5693C35.6477 60.6731 45.4429 46.8838 45.4429 30.8121C45.538 18.259 39.5468 7.03732 30.3222 0H40.0223C47.5351 8.08341 52.0999 18.9247 52.0999 30.8121C52.0999 48.5956 41.7341 64.0967 26.7084 71.5144C24.7114 72.4654 22.7143 73.3213 20.6221 73.987C16.3427 75.3184 11.6828 76.0791 6.83278 76.0791Z" fill="#82C4ED"/>
<path d="M-6.57608 33.2846C-8.38296 33.2846 -9.90454 31.8581 -9.90454 30.0513C-9.90454 16.6423 1.03184 5.80103 14.3457 5.80103C16.1526 5.80103 17.5791 7.22751 17.5791 9.12949C17.5791 11.0315 16.1526 12.458 14.3457 12.458C4.5505 12.458 -3.34271 20.4463 -3.34271 30.1464C-3.24761 31.8581 -4.7692 33.2846 -6.57608 33.2846Z" fill="#82C4ED"/>
<path d="M11.0173 198.091C-4.00831 198.091 -17.7977 189.817 -24.9301 176.789C-25.4056 176.028 -25.786 175.172 -26.1664 174.316C-26.4516 173.841 -26.6418 173.27 -26.6418 172.7C-26.6418 171.368 -25.8811 170.322 -24.835 169.752C-24.6448 169.657 -24.4546 169.561 -24.2644 169.561C-23.9791 169.466 -23.6938 169.466 -23.4085 169.466C-22.0771 169.466 -20.9359 170.227 -20.4604 171.368C-19.9849 172.414 -19.5094 173.46 -18.9388 174.411C-12.8525 184.967 -1.44063 191.624 10.8271 191.624C29.8469 191.624 45.348 176.123 45.348 157.103C45.348 143.885 37.7401 131.902 26.043 126.196C24.9969 125.721 23.9508 125.245 22.9047 124.865C21.288 124.294 20.4321 122.487 20.9076 120.871C20.9076 120.776 20.9076 120.776 21.0027 120.681C21.4782 119.349 22.7145 118.588 24.0459 118.588C24.4263 118.588 24.8067 118.683 25.1871 118.779C26.1381 119.159 27.0891 119.539 28.04 119.92C42.4 126.577 51.9099 141.127 51.9099 157.199C52.1001 179.642 33.746 198.091 11.0173 198.091Z" fill="#82C4ED"/>
</svg>
