<svg width="107" height="107" viewBox="0 0 107 107" fill="none" xmlns="http://www.w3.org/2000/svg">
<path d="M53.5 107C24.0219 107 0 82.9781 0 53.5C0 24.0218 24.0219 0 53.5 0C82.9781 0 107 24.0218 107 53.5C107 82.9781 83.049 107 53.5 107ZM53.5 5.95231C27.3523 5.95231 6.02318 27.2815 6.02318 53.4291C6.02318 79.5768 27.3523 100.906 53.5 100.906C79.6477 100.906 100.977 79.5768 100.977 53.4291C100.977 27.2815 79.7185 5.95231 53.5 5.95231Z" fill="#82C4ED"/>
<path d="M23.2424 56.4762C21.5417 56.4762 20.1954 55.1298 20.1954 53.4291C20.1954 35.0762 35.147 20.1245 53.5 20.1245C55.2007 20.1245 56.547 21.4709 56.547 23.1715C56.547 24.8722 55.2007 26.2185 53.5 26.2185C38.4775 26.2185 26.2186 38.4775 26.2186 53.5C26.2186 55.1298 24.8722 56.4762 23.2424 56.4762Z" fill="#82C4ED"/>
</svg>
