<svg width="152" height="152" viewBox="0 0 152 152" fill="none" xmlns="http://www.w3.org/2000/svg">
<path d="M75.5999 151.6C33.9999 151.6 0.0998535 117.7 0.0998535 76.1001C0.0998535 34.5001 33.9999 0.600098 75.5999 0.600098C117.2 0.600098 151.1 34.5001 151.1 76.1001C151.1 117.7 117.3 151.6 75.5999 151.6ZM75.5999 9.00009C38.6999 9.00009 8.59985 39.1001 8.59985 76.0001C8.59985 112.9 38.6999 143 75.5999 143C112.5 143 142.6 112.9 142.6 76.0001C142.6 39.1001 112.6 9.00009 75.5999 9.00009Z" fill="#82C4ED"/>
<path d="M32.8999 80.3C30.4999 80.3 28.5999 78.4 28.5999 76C28.5999 50.1 49.6999 29 75.5999 29C77.9999 29 79.8999 30.9 79.8999 33.3C79.8999 35.7 77.9999 37.6 75.5999 37.6C54.3999 37.6 37.0999 54.9 37.0999 76.1C37.0999 78.4 35.1999 80.3 32.8999 80.3Z" fill="#82C4ED"/>
</svg>
