<svg width="83" height="82" viewBox="0 0 83 82" fill="none" xmlns="http://www.w3.org/2000/svg">
<path d="M41.4186 82C18.9231 82 0.491211 63.5681 0.491211 40.9274C0.491211 18.4319 18.9231 0 41.4186 0C64.0594 0 82.3461 18.4319 82.3461 40.9274C82.4912 63.5681 64.0594 82 41.4186 82ZM41.4186 6.38584C22.4063 6.38584 6.87705 21.915 6.87705 40.9274C6.87705 59.9398 22.4063 75.469 41.4186 75.469C60.431 75.469 75.9602 59.9398 75.9602 40.9274C76.1054 21.915 60.5762 6.38584 41.4186 6.38584Z" fill="#82C4ED"/>
<path d="M17.1814 44.1203C15.4399 44.1203 13.9885 42.669 13.9885 40.9274C13.9885 25.8336 26.3248 13.4973 41.4186 13.4973C43.1602 13.4973 44.6115 14.9486 44.6115 16.6902C44.6115 18.4318 43.1602 19.8832 41.4186 19.8832C29.808 19.8832 20.3744 29.3168 20.3744 40.9274C20.3744 42.8141 18.923 44.1203 17.1814 44.1203Z" fill="#82C4ED"/>
</svg>
