<svg width="14" height="23" viewBox="0 0 14 23" fill="none" xmlns="http://www.w3.org/2000/svg">
<path d="M7.19127 0.940674C4.12125 0.940674 1.61975 3.44217 1.65765 6.51219C1.69555 9.58221 4.15915 12.0837 7.22917 12.0458C10.2613 12.0458 12.7628 9.58221 12.7628 6.51219C12.7628 3.44217 10.2613 0.940674 7.19127 0.940674ZM7.19127 8.82418C5.90262 8.82418 4.87928 7.80084 4.87928 6.51219C4.87928 5.22354 5.90262 4.2002 7.19127 4.2002C8.47992 4.2002 9.50326 5.22354 9.50326 6.51219C9.46536 7.76294 8.44202 8.82418 7.19127 8.82418Z" fill="black"/>
<path d="M9.16208 16.4803C10.4886 16.2529 11.7015 15.7222 12.7627 14.9263C13.3691 14.3578 13.3691 13.3724 12.8006 12.7659C12.3079 12.2353 11.4741 12.1595 10.8676 12.5764C9.7306 13.2966 8.40405 13.7135 7.0775 13.6756C5.75095 13.7135 4.4244 13.2966 3.28735 12.5764C2.60513 12.1216 1.65759 12.3111 1.20277 12.9933C0.785854 13.5998 0.899559 14.3957 1.39228 14.9263C2.49142 15.7222 3.78007 16.2908 5.14452 16.5182L1.9608 19.8535C1.39228 20.4599 1.39228 21.4075 1.9987 22.0139C2.26401 22.2792 2.64303 22.4308 3.05994 22.4308C3.47686 22.4308 3.85587 22.2792 4.15909 21.976L7.1154 18.8302L10.3749 22.0139C10.9814 22.6203 11.9289 22.6203 12.5353 22.0139C13.1417 21.4075 13.1417 20.4599 12.5353 19.8535L9.16208 16.4803Z" fill="black"/>
</svg>
