<svg width="19" height="15" viewBox="0 0 19 15" fill="none" xmlns="http://www.w3.org/2000/svg">
<path d="M18.1791 2.22797C17.5348 2.53118 16.8147 2.68279 16.1324 2.79649C16.8905 2.34167 17.459 1.65945 17.7243 0.825613C17.0421 1.24253 16.2462 1.54574 15.4502 1.69735C14.768 0.977219 13.8205 0.560303 12.835 0.560303C10.8262 0.560303 9.23438 2.15216 9.23438 4.16094C9.23438 4.42625 9.27228 4.72947 9.31018 4.99478C6.42967 4.84317 3.73866 3.47872 1.91939 1.24253C0.971853 2.87229 1.42667 4.99478 3.01853 6.05602C2.45001 6.05602 1.88149 5.90441 1.38877 5.6012V5.6391C1.38877 7.34467 2.60162 8.82283 4.26928 9.16394C3.96607 9.23974 3.62496 9.27764 3.32174 9.27764C3.09434 9.27764 2.86693 9.23974 2.63952 9.23974C3.13224 10.7179 4.45879 11.7033 6.01275 11.7412C4.7241 12.7267 3.17014 13.2573 1.54038 13.2573C1.27506 13.2573 0.971853 13.2573 0.706543 13.2194C2.33631 14.2806 4.26928 14.8492 6.20226 14.8492C12.835 14.8492 16.4357 9.35345 16.4357 4.61576C16.4357 4.46416 16.4357 4.31255 16.4357 4.16094C17.1179 3.55452 17.7243 2.91019 18.1791 2.22797Z" fill="black"/>
</svg>
