<svg width="19" height="12" viewBox="0 0 19 12" fill="none" xmlns="http://www.w3.org/2000/svg">
<path d="M17.6753 1.11732C17.7807 0.695507 17.6753 0.414301 17.0777 0.414301H15.1092C14.7226 0.37915 14.4062 0.625205 14.2656 0.976713C14.2656 0.976713 13.2814 3.40212 11.8402 4.98391C11.3833 5.44087 11.1724 5.58147 10.9263 5.58147C10.8208 5.58147 10.6099 5.44087 10.6099 5.01906V1.11732C10.6099 0.625206 10.4693 0.414301 10.0475 0.414301H6.98941C6.70821 0.414301 6.4973 0.590054 6.46215 0.871261C6.46215 1.32822 7.16517 1.43367 7.23547 2.76941V5.65177C7.23547 6.28449 7.13001 6.38994 6.84881 6.38994C6.18094 6.38994 4.56401 3.96453 3.61493 1.15247C3.43918 0.625205 3.22828 0.37915 2.73616 0.37915H0.80287C0.240457 0.37915 0.0998535 0.660356 0.0998535 0.941563C0.0998535 1.46882 0.767719 4.03483 3.19312 7.44446C4.81006 9.79957 7.09486 11.0298 9.16876 11.0298C10.4342 11.0298 10.5748 10.7486 10.5748 10.2565V8.49899C10.5748 7.93657 10.6802 7.79597 11.1021 7.79597C11.3833 7.79597 11.9105 7.93657 13.0354 9.0614C14.3711 10.3971 14.582 10.9947 15.3553 10.9947H17.3237C17.8862 10.9947 18.1674 10.7135 17.9916 10.1511C17.8159 9.58866 17.1831 8.81534 16.3395 7.86627C15.8826 7.33901 15.2147 6.74145 15.0038 6.46024C14.7226 6.07358 14.7929 5.93298 15.0038 5.58147C15.0038 5.61662 17.394 2.24214 17.6753 1.11732Z" fill="black"/>
</svg>
